STARTFONT 2.1
COMMENT  
COMMENT generated from the Baekmuk johab font.
COMMENT  Tue Oct  8 16:07:24 KST 2002
COMMENT
FONT -Baekmuk-Gulim-Medium-R-Normal--10-100-75-75-M-100-KSX1001.1998-0
SIZE 10 75 75
FONTBOUNDINGBOX 10 10 0 -2
STARTPROPERTIES 23
FOUNDRY "Baekmuk"
FAMILY_NAME "Gulim"
WEIGHT_NAME "Medium"
SLANT "R"
SETWIDTH_NAME "Normal"
ADD_STYLE_NAME ""
PIXEL_SIZE 10
POINT_SIZE 100
RESOLUTION_X 75
RESOLUTION_Y 75
SPACING "M"
AVERAGE_WIDTH 100
CHARSET_REGISTRY "KSX1001.1998"
CHARSET_ENCODING "0"
NOTICE "Thanks to (c) Mizi Research, Inc. and Kim Jeong-Hwan"
NOTICE "KSX 1001-1998"
COPYRIGHT "made by Won-kyu Park <wkpark@kldp.org>. Share and enjoy"
WEIGHT 10
X_HEIGHT 0
QUAD_WIDTH 10
DEFAULT_CHAR 8481
FONT_ASCENT  8
FONT_DESCENT 2
ENDPROPERTIES
CHARS    8226
STARTCHAR K+2121
ENCODING 8481
SWIDTH 960 0
DWIDTH 10 0
BBX 10 10 0 -2
BITMAP
0000
0000
0000
0000
0000
0000
0000
0000
0000
0000
ENDCHAR
STARTCHAR K+2122
ENCODING 8482
SWIDTH 960 0
DWIDTH 10 0
BBX 10 10 0 -2
BITMAP
0000
0000
0000
0000
0000
0000
0200
0180
0080
0000
ENDCHAR
STARTCHAR K+2123
ENCODING 8483
SWIDTH 960 0
DWIDTH 10 0
BBX 10 10 0 -2
BITMAP
0000
0000
0000
0000
0000
0300
0480
0480
0300
0000
ENDCHAR
STARTCHAR K+2124
ENCODING 8484
SWIDTH 960 0
DWIDTH 10 0
BBX 10 10 0 -2
BITMAP
0000
0000
0000
0000
0c00
0c00
0000
0000
0000
0000
ENDCHAR
STARTCHAR K+2125
ENCODING 8485
SWIDTH 960 0
DWIDTH 10 0
BBX 10 10 0 -2
BITMAP
0000
0000
0000
0000
3300
3300
0000
0000
0000
0000
ENDCHAR
STARTCHAR K+2126
ENCODING 8486
SWIDTH 960 0
DWIDTH 10 0
BBX 10 10 0 -2
BITMAP
0000
0000
0000
0000
2a00
2a00
0000
0000
0000
0000
ENDCHAR
STARTCHAR K+2127
ENCODING 8487
SWIDTH 960 0
DWIDTH 10 0
BBX 10 10 0 -2
BITMAP
0000
1200
0000
0000
0000
0000
0000
0000
0000
0000
ENDCHAR
STARTCHAR K+2128
ENCODING 8488
SWIDTH 960 0
DWIDTH 10 0
BBX 10 10 0 -2
BITMAP
0000
0000
0000
0a00
0a00
1400
1400
0000
0000
0000
ENDCHAR
STARTCHAR K+2129
ENCODING 8489
SWIDTH 960 0
DWIDTH 10 0
BBX 10 10 0 -2
BITMAP
0000
0000
0000
0000
0000
0c00
0000
0000
0000
0000
ENDCHAR
STARTCHAR K+212A
ENCODING 8490
SWIDTH 960 0
DWIDTH 10 0
BBX 10 10 0 -2
BITMAP
0000
0000
0000
0000
0000
7f80
0000
0000
0000
0000
ENDCHAR
STARTCHAR K+212B
ENCODING 8491
SWIDTH 960 0
DWIDTH 10 0
BBX 10 10 0 -2
BITMAP
0000
0000
1400
1400
1400
1400
1400
1400
1400
0000
ENDCHAR
STARTCHAR K+212C
ENCODING 8492
SWIDTH 960 0
DWIDTH 10 0
BBX 10 10 0 -2
BITMAP
0000
0000
4000
2000
1000
0800
0400
0200
0100
0080
ENDCHAR
STARTCHAR K+212D
ENCODING 8493
SWIDTH 960 0
DWIDTH 10 0
BBX 10 10 0 -2
BITMAP
0000
0000
0000
0000
0000
1900
2600
0000
0000
0000
ENDCHAR
STARTCHAR K+212E
ENCODING 8494
SWIDTH 960 0
DWIDTH 10 0
BBX 10 10 0 -2
BITMAP
0000
0000
0200
0200
0100
0000
0000
0000
0000
0000
ENDCHAR
STARTCHAR K+212F
ENCODING 8495
SWIDTH 960 0
DWIDTH 10 0
BBX 10 10 0 -2
BITMAP
0000
0000
2000
2000
4000
0000
0000
0000
0000
0000
ENDCHAR
STARTCHAR K+2130
ENCODING 8496
SWIDTH 960 0
DWIDTH 10 0
BBX 10 10 0 -2
BITMAP
0000
0500
0500
0280
0000
0000
0000
0000
0000
0000
ENDCHAR
STARTCHAR K+2131
ENCODING 8497
SWIDTH 960 0
DWIDTH 10 0
BBX 10 10 0 -2
BITMAP
0000
5000
5000
a000
0000
0000
0000
0000
0000
0000
ENDCHAR
STARTCHAR K+2132
ENCODING 8498
SWIDTH 960 0
DWIDTH 10 0
BBX 10 10 0 -2
BITMAP
0080
0100
0100
0100
0100
0100
0100
0100
0080
0000
ENDCHAR
STARTCHAR K+2133
ENCODING 8499
SWIDTH 960 0
DWIDTH 10 0
BBX 10 10 0 -2
BITMAP
4000
2000
2000
2000
2000
2000
2000
2000
4000
0000
ENDCHAR
STARTCHAR K+2134
ENCODING 8500
SWIDTH 960 0
DWIDTH 10 0
BBX 10 10 0 -2
BITMAP
0000
0080
0100
0200
0400
0400
0200
0100
0080
0000
ENDCHAR
STARTCHAR K+2135
ENCODING 8501
SWIDTH 960 0
DWIDTH 10 0
BBX 10 10 0 -2
BITMAP
0000
4000
2000
1000
0800
0800
1000
2000
4000
0000
ENDCHAR
STARTCHAR K+2136
ENCODING 8502
SWIDTH 960 0
DWIDTH 10 0
BBX 10 10 0 -2
BITMAP
0000
0140
0280
0500
0a00
0a00
0500
0280
0140
0000
ENDCHAR
STARTCHAR K+2137
ENCODING 8503
SWIDTH 960 0
DWIDTH 10 0
BBX 10 10 0 -2
BITMAP
0000
5000
2800
1400
0a00
0a00
1400
2800
5000
0000
ENDCHAR
STARTCHAR K+2138
ENCODING 8504
SWIDTH 960 0
DWIDTH 10 0
BBX 10 10 0 -2
BITMAP
03c0
0200
0200
0200
0200
0000
0000
0000
0000
0000
ENDCHAR
STARTCHAR K+2139
ENCODING 8505
SWIDTH 960 0
DWIDTH 10 0
BBX 10 10 0 -2
BITMAP
0000
0000
0000
0000
1000
1000
1000
1000
f000
0000
ENDCHAR
STARTCHAR K+213A
ENCODING 8506
SWIDTH 960 0
DWIDTH 10 0
BBX 10 10 0 -2
BITMAP
07c0
0440
05c0
0500
0700
0000
0000
0000
0000
0000
ENDCHAR
STARTCHAR K+213B
ENCODING 8507
SWIDTH 960 0
DWIDTH 10 0
BBX 10 10 0 -2
BITMAP
0000
0000
0000
0000
0000
3800
2800
e800
8800
f800
ENDCHAR
STARTCHAR K+213C
ENCODING 8508
SWIDTH 960 0
DWIDTH 10 0
BBX 10 10 0 -2
BITMAP
0780
0700
0600
0600
0600
0600
0600
0700
0780
0000
ENDCHAR
STARTCHAR K+213D
ENCODING 8509
SWIDTH 960 0
DWIDTH 10 0
BBX 10 10 0 -2
BITMAP
f000
7000
3000
3000
3000
3000
3000
7000
f000
0000
ENDCHAR
STARTCHAR K+213E
ENCODING 8510
SWIDTH 960 0
DWIDTH 10 0
BBX 10 10 0 -2
BITMAP
0000
0400
0400
0400
3f80
0400
0400
0400
3f80
0000
ENDCHAR
STARTCHAR K+213F
ENCODING 8511
SWIDTH 960 0
DWIDTH 10 0
BBX 10 10 0 -2
BITMAP
0000
0000
0000
2100
1200
0c00
0c00
1200
2100
0000
ENDCHAR
STARTCHAR K+2140
ENCODING 8512
SWIDTH 960 0
DWIDTH 10 0
BBX 10 10 0 -2
BITMAP
0000
0000
0800
0000
0000
7f00
0000
0000
0800
0000
ENDCHAR
STARTCHAR K+2141
ENCODING 8513
SWIDTH 960 0
DWIDTH 10 0
BBX 10 10 0 -2
BITMAP
0000
0000
0300
0400
7f00
0800
7f00
1000
6000
0000
ENDCHAR
STARTCHAR K+2142
ENCODING 8514
SWIDTH 960 0
DWIDTH 10 0
BBX 10 10 0 -2
BITMAP
0000
0100
0600
1800
2000
1800
0600
0100
3f00
0000
ENDCHAR
STARTCHAR K+2143
ENCODING 8515
SWIDTH 960 0
DWIDTH 10 0
BBX 10 10 0 -2
BITMAP
0000
2000
1800
0600
0100
0600
1800
2000
3f00
0000
ENDCHAR
STARTCHAR K+2144
ENCODING 8516
SWIDTH 960 0
DWIDTH 10 0
BBX 10 10 0 -2
BITMAP
0000
0000
0000
3300
4c80
4c80
3300
0000
0000
0000
ENDCHAR
STARTCHAR K+2145
ENCODING 8517
SWIDTH 960 0
DWIDTH 10 0
BBX 10 10 0 -2
BITMAP
0000
0000
0c00
0c00
0000
0000
3300
3300
0000
0000
ENDCHAR
STARTCHAR K+2146
ENCODING 8518
SWIDTH 960 0
DWIDTH 10 0
BBX 10 10 0 -2
BITMAP
0000
3000
4800
4800
3000
0000
0000
0000
0000
0000
ENDCHAR
STARTCHAR K+2147
ENCODING 8519
SWIDTH 960 0
DWIDTH 10 0
BBX 10 10 0 -2
BITMAP
0000
2000
2000
4000
0000
0000
0000
0000
0000
0000
ENDCHAR
STARTCHAR K+2148
ENCODING 8520
SWIDTH 960 0
DWIDTH 10 0
BBX 10 10 0 -2
BITMAP
0000
5000
5000
a000
0000
0000
0000
0000
0000
0000
ENDCHAR
STARTCHAR K+2149
ENCODING 8521
SWIDTH 960 0
DWIDTH 10 0
BBX 10 10 0 -2
BITMAP
0000
4000
ae00
5100
1000
1000
1000
1100
0e00
0000
ENDCHAR
STARTCHAR K+214A
ENCODING 8522
SWIDTH 960 0
DWIDTH 10 0
BBX 10 10 0 -2
BITMAP
0000
0c00
1200
0c00
1200
2100
3f00
2100
2100
0000
ENDCHAR
STARTCHAR K+214B
ENCODING 8523
SWIDTH 960 0
DWIDTH 10 0
BBX 10 10 0 -2
BITMAP
0000
0200
1e00
2500
2400
2800
2900
1e00
1000
0000
ENDCHAR
STARTCHAR K+214C
ENCODING 8524
SWIDTH 960 0
DWIDTH 10 0
BBX 10 10 0 -2
BITMAP
0000
0e00
1100
1000
3e00
1000
1000
2900
1600
0000
ENDCHAR
STARTCHAR K+214D
ENCODING 8525
SWIDTH 960 0
DWIDTH 10 0
BBX 10 10 0 -2
BITMAP
0000
4100
2200
1400
0800
3e00
0800
3e00
0800
0000
ENDCHAR
STARTCHAR K+214E
ENCODING 8526
SWIDTH 960 0
DWIDTH 10 0
BBX 10 10 0 -2
BITMAP
0800
1c00
2a00
4900
1c00
2200
2200
2200
1c00
0000
ENDCHAR
STARTCHAR K+214F
ENCODING 8527
SWIDTH 960 0
DWIDTH 10 0
BBX 10 10 0 -2
BITMAP
1c00
2200
2200
2200
1c00
0800
7f00
0800
0800
0000
ENDCHAR
STARTCHAR K+2150
ENCODING 8528
SWIDTH 960 0
DWIDTH 10 0
BBX 10 10 0 -2
BITMAP
0000
0100
0200
0400
0800
1000
2000
3f00
0000
0000
ENDCHAR
STARTCHAR K+2151
ENCODING 8529
SWIDTH 960 0
DWIDTH 10 0
BBX 10 10 0 -2
BITMAP
0000
0000
0000
0800
0800
0800
0800
7f00
0000
0000
ENDCHAR
STARTCHAR K+2152
ENCODING 8530
SWIDTH 960 0
DWIDTH 10 0
BBX 10 10 0 -2
BITMAP
0000
0000
1c00
6300
0000
0000
0000
0000
0000
0000
ENDCHAR
STARTCHAR K+2153
ENCODING 8531
SWIDTH 960 0
DWIDTH 10 0
BBX 10 10 0 -2
BITMAP
0000
0000
0c00
1200
0200
0e00
1200
2400
1800
0000
ENDCHAR
STARTCHAR K+2154
ENCODING 8532
SWIDTH 960 0
DWIDTH 10 0
BBX 10 10 0 -2
BITMAP
0000
0000
0000
7f80
3100
3100
1a00
1a00
0c00
0000
ENDCHAR
STARTCHAR K+2155
ENCODING 8533
SWIDTH 960 0
DWIDTH 10 0
BBX 10 10 0 -2
BITMAP
0000
0000
0000
3f00
0000
3f00
0000
3f00
0000
0000
ENDCHAR
STARTCHAR K+2156
ENCODING 8534
SWIDTH 960 0
DWIDTH 10 0
BBX 10 10 0 -2
BITMAP
0000
0000
1000
0000
3f00
0000
3f00
0000
0200
0000
ENDCHAR
STARTCHAR K+2157
ENCODING 8535
SWIDTH 960 0
DWIDTH 10 0
BBX 10 10 0 -2
BITMAP
0000
0e00
1000
0c00
1200
1200
0c00
0200
1c00
0000
ENDCHAR
STARTCHAR K+2158
ENCODING 8536
SWIDTH 960 0
DWIDTH 10 0
BBX 10 10 0 -2
BITMAP
0000
0000
2480
1100
0a00
2480
0a00
1100
2480
0000
ENDCHAR
STARTCHAR K+2159
ENCODING 8537
SWIDTH 960 0
DWIDTH 10 0
BBX 10 10 0 -2
BITMAP
0000
0800
1400
e380
8080
4100
2200
2a00
3600
0000
ENDCHAR
STARTCHAR K+215A
ENCODING 8538
SWIDTH 960 0
DWIDTH 10 0
BBX 10 10 0 -2
BITMAP
0000
0800
1c00
1c00
ff80
7f00
3e00
3600
2200
0000
ENDCHAR
STARTCHAR K+215B
ENCODING 8539
SWIDTH 960 0
DWIDTH 10 0
BBX 10 10 0 -2
BITMAP
0000
1e00
2100
4080
4080
4080
4080
2100
1e00
0000
ENDCHAR
STARTCHAR K+215C
ENCODING 8540
SWIDTH 960 0
DWIDTH 10 0
BBX 10 10 0 -2
BITMAP
0000
1e00
3f00
7f80
7f80
7f80
7f80
3f00
1e00
0000
ENDCHAR
STARTCHAR K+215D
ENCODING 8541
SWIDTH 960 0
DWIDTH 10 0
BBX 10 10 0 -2
BITMAP
0000
1e00
2100
4c80
5280
5280
4c80
2100
1e00
0000
ENDCHAR
STARTCHAR K+215E
ENCODING 8542
SWIDTH 960 0
DWIDTH 10 0
BBX 10 10 0 -2
BITMAP
0800
1400
2200
4100
8080
4100
2200
1400
0800
0000
ENDCHAR
STARTCHAR K+215F
ENCODING 8543
SWIDTH 960 0
DWIDTH 10 0
BBX 10 10 0 -2
BITMAP
0800
1c00
3e00
7f00
ff80
7f00
3e00
1c00
0800
0000
ENDCHAR
STARTCHAR K+2160
ENCODING 8544
SWIDTH 960 0
DWIDTH 10 0
BBX 10 10 0 -2
BITMAP
0000
7f80
4080
4080
4080
4080
4080
4080
7f80
0000
ENDCHAR
STARTCHAR K+2161
ENCODING 8545
SWIDTH 960 0
DWIDTH 10 0
BBX 10 10 0 -2
BITMAP
0000
7f00
7f00
7f00
7f00
7f00
7f00
7f00
0000
0000
ENDCHAR
STARTCHAR K+2162
ENCODING 8546
SWIDTH 960 0
DWIDTH 10 0
BBX 10 10 0 -2
BITMAP
0000
0800
1400
1400
2200
2200
4100
7f00
0000
0000
ENDCHAR
STARTCHAR K+2163
ENCODING 8547
SWIDTH 960 0
DWIDTH 10 0
BBX 10 10 0 -2
BITMAP
0000
0800
1c00
1c00
3e00
3e00
7f00
7f00
0000
0000
ENDCHAR
STARTCHAR K+2164
ENCODING 8548
SWIDTH 960 0
DWIDTH 10 0
BBX 10 10 0 -2
BITMAP
0000
0000
7f00
4100
2200
2200
1400
1400
0800
0000
ENDCHAR
STARTCHAR K+2165
ENCODING 8549
SWIDTH 960 0
DWIDTH 10 0
BBX 10 10 0 -2
BITMAP
0000
0000
7f00
7f00
3e00
3e00
1c00
1c00
0800
0000
ENDCHAR
STARTCHAR K+2166
ENCODING 8550
SWIDTH 960 0
DWIDTH 10 0
BBX 10 10 0 -2
BITMAP
0000
0000
0000
0200
0100
3f80
0100
0200
0000
0000
ENDCHAR
STARTCHAR K+2167
ENCODING 8551
SWIDTH 960 0
DWIDTH 10 0
BBX 10 10 0 -2
BITMAP
0000
0000
0000
0800
1000
3f00
1000
0800
0000
0000
ENDCHAR
STARTCHAR K+2168
ENCODING 8552
SWIDTH 960 0
DWIDTH 10 0
BBX 10 10 0 -2
BITMAP
0000
0000
0400
0e00
1500
0400
0400
0400
0400
0000
ENDCHAR
STARTCHAR K+2169
ENCODING 8553
SWIDTH 960 0
DWIDTH 10 0
BBX 10 10 0 -2
BITMAP
0000
0000
0000
0800
0800
0800
2a00
1c00
0800
0000
ENDCHAR
STARTCHAR K+216A
ENCODING 8554
SWIDTH 960 0
DWIDTH 10 0
BBX 10 10 0 -2
BITMAP
0000
0000
0000
1200
2100
7f80
2100
1200
0000
0000
ENDCHAR
STARTCHAR K+216B
ENCODING 8555
SWIDTH 960 0
DWIDTH 10 0
BBX 10 10 0 -2
BITMAP
0000
0000
0000
0000
3f00
0000
3f00
0000
0000
0000
ENDCHAR
STARTCHAR K+216C
ENCODING 8556
SWIDTH 960 0
DWIDTH 10 0
BBX 10 10 0 -2
BITMAP
0000
0000
0900
1200
2400
4800
2400
1200
0900
0000
ENDCHAR
STARTCHAR K+216D
ENCODING 8557
SWIDTH 960 0
DWIDTH 10 0
BBX 10 10 0 -2
BITMAP
0000
0000
2400
1200
0900
0480
0900
1200
2400
0000
ENDCHAR
STARTCHAR K+216E
ENCODING 8558
SWIDTH 960 0
DWIDTH 10 0
BBX 10 10 0 -2
BITMAP
0000
0f80
0800
0800
0800
5000
5000
2000
0000
0000
ENDCHAR
STARTCHAR K+216F
ENCODING 8559
SWIDTH 960 0
DWIDTH 10 0
BBX 10 10 0 -2
BITMAP
0000
0000
0000
3300
4480
4880
3300
0000
0000
0000
ENDCHAR
STARTCHAR K+2170
ENCODING 8560
SWIDTH 960 0
DWIDTH 10 0
BBX 10 10 0 -2
BITMAP
0000
0000
0000
1b00
2400
2400
1b00
0000
0000
0000
ENDCHAR
STARTCHAR K+2171
ENCODING 8561
SWIDTH 960 0
DWIDTH 10 0
BBX 10 10 0 -2
BITMAP
0000
0000
0000
3300
3300
0000
0000
0c00
0c00
0000
ENDCHAR
STARTCHAR K+2172
ENCODING 8562
SWIDTH 960 0
DWIDTH 10 0
BBX 10 10 0 -2
BITMAP
0000
0000
0200
0500
0400
0400
0400
1400
0800
0000
ENDCHAR
STARTCHAR K+2173
ENCODING 8563
SWIDTH 960 0
DWIDTH 10 0
BBX 10 10 0 -2
BITMAP
0000
0000
0b00
1400
1400
1400
1400
1400
6800
0000
ENDCHAR
STARTCHAR K+2174
ENCODING 8564
SWIDTH 960 0
DWIDTH 10 0
BBX 10 10 0 -2
BITMAP
0000
0000
3f00
4000
4000
7f00
4000
4000
3f00
0000
ENDCHAR
STARTCHAR K+2175
ENCODING 8565
SWIDTH 960 0
DWIDTH 10 0
BBX 10 10 0 -2
BITMAP
0000
0000
3f00
0080
0080
3f80
0080
0080
3f00
0000
ENDCHAR
STARTCHAR K+2176
ENCODING 8566
SWIDTH 960 0
DWIDTH 10 0
BBX 10 10 0 -2
BITMAP
0000
0000
3f00
4000
4000
4000
3f00
0000
7f00
0000
ENDCHAR
STARTCHAR K+2177
ENCODING 8567
SWIDTH 960 0
DWIDTH 10 0
BBX 10 10 0 -2
BITMAP
0000
0000
7e00
0100
0100
0100
7e00
0000
7f00
0000
ENDCHAR
STARTCHAR K+2178
ENCODING 8568
SWIDTH 960 0
DWIDTH 10 0
BBX 10 10 0 -2
BITMAP
0000
0000
1f80
2000
2000
2000
2000
1f80
0000
0000
ENDCHAR
STARTCHAR K+2179
ENCODING 8569
SWIDTH 960 0
DWIDTH 10 0
BBX 10 10 0 -2
BITMAP
0000
0000
7e00
0100
0100
0100
0100
7e00
0000
0000
ENDCHAR
STARTCHAR K+217A
ENCODING 8570
SWIDTH 960 0
DWIDTH 10 0
BBX 10 10 0 -2
BITMAP
0000
0000
2100
2100
2100
2100
2100
2100
1e00
0000
ENDCHAR
STARTCHAR K+217B
ENCODING 8571
SWIDTH 960 0
DWIDTH 10 0
BBX 10 10 0 -2
BITMAP
0000
0000
1e00
2100
2100
2100
2100
2100
2100
0000
ENDCHAR
STARTCHAR K+217C
ENCODING 8572
SWIDTH 960 0
DWIDTH 10 0
BBX 10 10 0 -2
BITMAP
0000
0000
0800
1400
1400
2200
2200
4100
4100
0000
ENDCHAR
STARTCHAR K+217D
ENCODING 8573
SWIDTH 960 0
DWIDTH 10 0
BBX 10 10 0 -2
BITMAP
0000
0000
4100
4100
2200
2200
1400
1400
0800
0000
ENDCHAR
STARTCHAR K+217E
ENCODING 8574
SWIDTH 960 0
DWIDTH 10 0
BBX 10 10 0 -2
BITMAP
0000
0000
0000
3f00
0100
0100
0100
0000
0000
0000
ENDCHAR
STARTCHAR K+2221
ENCODING 8737
SWIDTH 960 0
DWIDTH 10 0
BBX 10 10 0 -2
BITMAP
0000
0000
0400
0200
3f00
0080
3f00
0200
0400
0000
ENDCHAR
STARTCHAR K+2222
ENCODING 8738
SWIDTH 960 0
DWIDTH 10 0
BBX 10 10 0 -2
BITMAP
0000
0000
0000
2200
7f00
8080
7f00
2200
0000
0000
ENDCHAR
STARTCHAR K+2223
ENCODING 8739
SWIDTH 960 0
DWIDTH 10 0
BBX 10 10 0 -2
BITMAP
0000
0000
4100
4100
3e00
2200
1400
1400
0800
0000
ENDCHAR
STARTCHAR K+2224
ENCODING 8740
SWIDTH 960 0
DWIDTH 10 0
BBX 10 10 0 -2
BITMAP
0000
3e00
0200
0200
3e00
0200
0200
0200
3e00
0000
ENDCHAR
STARTCHAR K+2225
ENCODING 8741
SWIDTH 960 0
DWIDTH 10 0
BBX 10 10 0 -2
BITMAP
0000
0000
0400
0800
0000
0000
0000
0000
0000
0000
ENDCHAR
STARTCHAR K+2226
ENCODING 8742
SWIDTH 960 0
DWIDTH 10 0
BBX 10 10 0 -2
BITMAP
0000
0000
1900
2600
0000
0000
0000
0000
0000
0000
ENDCHAR
STARTCHAR K+2227
ENCODING 8743
SWIDTH 960 0
DWIDTH 10 0
BBX 10 10 0 -2
BITMAP
1400
0800
0000
0000
0000
0000
0000
0000
0000
0000
ENDCHAR
STARTCHAR K+2228
ENCODING 8744
SWIDTH 960 0
DWIDTH 10 0
BBX 10 10 0 -2
BITMAP
1200
0c00
0000
0000
0000
0000
0000
0000
0000
0000
ENDCHAR
STARTCHAR K+2229
ENCODING 8745
SWIDTH 960 0
DWIDTH 10 0
BBX 10 10 0 -2
BITMAP
0000
1b00
1200
0000
0000
0000
0000
0000
0000
0000
ENDCHAR
STARTCHAR K+222A
ENCODING 8746
SWIDTH 960 0
DWIDTH 10 0
BBX 10 10 0 -2
BITMAP
0000
0c00
1200
0c00
0000
0000
0000
0000
0000
0000
ENDCHAR
STARTCHAR K+222B
ENCODING 8747
SWIDTH 960 0
DWIDTH 10 0
BBX 10 10 0 -2
BITMAP
0000
0800
0000
0000
0000
0000
0000
0000
0000
0000
ENDCHAR
STARTCHAR K+222C
ENCODING 8748
SWIDTH 960 0
DWIDTH 10 0
BBX 10 10 0 -2
BITMAP
0000
0000
0000
0000
0000
0000
0000
0800
0400
1800
ENDCHAR
STARTCHAR K+222D
ENCODING 8749
SWIDTH 960 0
DWIDTH 10 0
BBX 10 10 0 -2
BITMAP
0000
0000
0000
0000
0000
0000
0000
0400
0800
0600
ENDCHAR
STARTCHAR K+222E
ENCODING 8750
SWIDTH 960 0
DWIDTH 10 0
BBX 10 10 0 -2
BITMAP
0000
0000
0800
0000
0800
0800
0800
0800
0800
0000
ENDCHAR
STARTCHAR K+222F
ENCODING 8751
SWIDTH 960 0
DWIDTH 10 0
BBX 10 10 0 -2
BITMAP
0000
0800
1c00
0000
0800
0800
1000
2200
2200
1c00
ENDCHAR
STARTCHAR K+2230
ENCODING 8752
SWIDTH 960 0
DWIDTH 10 0
BBX 10 10 0 -2
BITMAP
0000
0000
1c00
0800
0000
0000
0800
1c00
0000
0000
ENDCHAR
STARTCHAR K+2231
ENCODING 8753
SWIDTH 960 0
DWIDTH 10 0
BBX 10 10 0 -2
BITMAP
0000
0600
0800
1c00
2a00
2a00
1c00
0800
3000
0000
ENDCHAR
STARTCHAR K+2232
ENCODING 8754
SWIDTH 960 0
DWIDTH 10 0
BBX 10 10 0 -2
BITMAP
0000
0000
7f00
2100
1100
0800
1100
2100
7f00
0000
ENDCHAR
STARTCHAR K+2233
ENCODING 8755
SWIDTH 960 0
DWIDTH 10 0
BBX 10 10 0 -2
BITMAP
0000
0000
3f00
1200
1200
1200
1200
1200
1200
0000
ENDCHAR
STARTCHAR K+2234
ENCODING 8756
SWIDTH 960 0
DWIDTH 10 0
BBX 10 10 0 -2
BITMAP
0000
0000
4100
3e00
2200
2200
2200
3e00
4100
0000
ENDCHAR
STARTCHAR K+2235
ENCODING 8757
SWIDTH 960 0
DWIDTH 10 0
BBX 10 10 0 -2
BITMAP
0000
2000
5780
5400
2400
0780
0400
0400
0400
0000
ENDCHAR
STARTCHAR K+2236
ENCODING 8758
SWIDTH 960 0
DWIDTH 10 0
BBX 10 10 0 -2
BITMAP
0000
2200
5400
5400
2800
1000
2500
2a80
4a80
0500
ENDCHAR
STARTCHAR K+2237
ENCODING 8759
SWIDTH 960 0
DWIDTH 10 0
BBX 10 10 0 -2
BITMAP
0000
0000
0300
0d00
3100
4100
3100
0d00
0300
0000
ENDCHAR
STARTCHAR K+2238
ENCODING 8760
SWIDTH 960 0
DWIDTH 10 0
BBX 10 10 0 -2
BITMAP
0000
0000
0300
0f00
3f00
7f00
3f00
0f00
0300
0000
ENDCHAR
STARTCHAR K+2239
ENCODING 8761
SWIDTH 960 0
DWIDTH 10 0
BBX 10 10 0 -2
BITMAP
0000
0000
3000
2c00
2300
2080
2300
2c00
3000
0000
ENDCHAR
STARTCHAR K+223A
ENCODING 8762
SWIDTH 960 0
DWIDTH 10 0
BBX 10 10 0 -2
BITMAP
0000
0000
3000
3c00
3f00
3f80
3f00
3c00
3000
0000
ENDCHAR
STARTCHAR K+223B
ENCODING 8763
SWIDTH 960 0
DWIDTH 10 0
BBX 10 10 0 -2
BITMAP
0000
0800
1400
2200
4100
4100
3600
0800
1c00
0000
ENDCHAR
STARTCHAR K+223C
ENCODING 8764
SWIDTH 960 0
DWIDTH 10 0
BBX 10 10 0 -2
BITMAP
0000
0800
1c00
3e00
7f00
7f00
3e00
0800
1c00
0000
ENDCHAR
STARTCHAR K+223D
ENCODING 8765
SWIDTH 960 0
DWIDTH 10 0
BBX 10 10 0 -2
BITMAP
0000
0000
1b00
2480
2080
2080
1100
0a00
0400
0000
ENDCHAR
STARTCHAR K+223E
ENCODING 8766
SWIDTH 960 0
DWIDTH 10 0
BBX 10 10 0 -2
BITMAP
0000
0000
1b00
3f80
3f80
3f80
1f00
0e00
0400
0000
ENDCHAR
STARTCHAR K+223F
ENCODING 8767
SWIDTH 960 0
DWIDTH 10 0
BBX 10 10 0 -2
BITMAP
1c00
2200
6300
9480
8080
9480
7700
2200
1c00
0000
ENDCHAR
STARTCHAR K+2240
ENCODING 8768
SWIDTH 960 0
DWIDTH 10 0
BBX 10 10 0 -2
BITMAP
0000
0800
1c00
1c00
6b00
ff80
6b00
0800
1c00
0000
ENDCHAR
STARTCHAR K+2241
ENCODING 8769
SWIDTH 960 0
DWIDTH 10 0
BBX 10 10 0 -2
BITMAP
0000
1e00
2100
4c80
5e80
5e80
4c80
2100
1e00
0000
ENDCHAR
STARTCHAR K+2242
ENCODING 8770
SWIDTH 960 0
DWIDTH 10 0
BBX 10 10 0 -2
BITMAP
0800
1400
2a00
5d00
be80
5d00
2a00
1400
0800
0000
ENDCHAR
STARTCHAR K+2243
ENCODING 8771
SWIDTH 960 0
DWIDTH 10 0
BBX 10 10 0 -2
BITMAP
0000
7f80
4080
5e80
5e80
5e80
5e80
4080
7f80
0000
ENDCHAR
STARTCHAR K+2244
ENCODING 8772
SWIDTH 960 0
DWIDTH 10 0
BBX 10 10 0 -2
BITMAP
0000
0000
1c00
3200
7100
7100
7100
3200
1c00
0000
ENDCHAR
STARTCHAR K+2245
ENCODING 8773
SWIDTH 960 0
DWIDTH 10 0
BBX 10 10 0 -2
BITMAP
0000
0000
1c00
2600
4700
4700
4700
2600
1c00
0000
ENDCHAR
STARTCHAR K+2246
ENCODING 8774
SWIDTH 960 0
DWIDTH 10 0
BBX 10 10 0 -2
BITMAP
aa80
5500
aa80
5500
aa80
5500
aa80
5500
aa80
0000
ENDCHAR
STARTCHAR K+2247
ENCODING 8775
SWIDTH 960 0
DWIDTH 10 0
BBX 10 10 0 -2
BITMAP
ff80
8080
ff80
8080
ff80
8080
ff80
8080
ff80
0000
ENDCHAR
STARTCHAR K+2248
ENCODING 8776
SWIDTH 960 0
DWIDTH 10 0
BBX 10 10 0 -2
BITMAP
ff80
aa80
aa80
aa80
aa80
aa80
aa80
aa80
ff80
0000
ENDCHAR
STARTCHAR K+2249
ENCODING 8777
SWIDTH 960 0
DWIDTH 10 0
BBX 10 10 0 -2
BITMAP
ff80
a480
c980
9280
a480
c980
9280
a480
ff80
0000
ENDCHAR
STARTCHAR K+224A
ENCODING 8778
SWIDTH 960 0
DWIDTH 10 0
BBX 10 10 0 -2
BITMAP
ff80
9280
c980
a480
9280
c980
a480
9280
ff80
0000
ENDCHAR
STARTCHAR K+224B
ENCODING 8779
SWIDTH 960 0
DWIDTH 10 0
BBX 10 10 0 -2
BITMAP
ff80
aa80
ff80
aa80
ff80
aa80
ff80
aa80
ff80
0000
ENDCHAR
STARTCHAR K+224C
ENCODING 8780
SWIDTH 960 0
DWIDTH 10 0
BBX 10 10 0 -2
BITMAP
ff80
d580
a280
d580
8880
d580
a280
d580
ff80
0000
ENDCHAR
STARTCHAR K+224D
ENCODING 8781
SWIDTH 960 0
DWIDTH 10 0
BBX 10 10 0 -2
BITMAP
0000
2a00
5400
5400
2a00
aa80
d580
7f00
3e00
0000
ENDCHAR
STARTCHAR K+224E
ENCODING 8782
SWIDTH 960 0
DWIDTH 10 0
BBX 10 10 0 -2
BITMAP
0000
3f00
4080
9e40
e1c0
2d00
5280
4c80
7f80
0000
ENDCHAR
STARTCHAR K+224F
ENCODING 8783
SWIDTH 960 0
DWIDTH 10 0
BBX 10 10 0 -2
BITMAP
0000
3f00
7f80
edc0
ffc0
7380
2100
7380
7f80
0000
ENDCHAR
STARTCHAR K+2250
ENCODING 8784
SWIDTH 960 0
DWIDTH 10 0
BBX 10 10 0 -2
BITMAP
0000
0000
7e80
8180
7180
2180
3180
2180
1e80
0000
ENDCHAR
STARTCHAR K+2251
ENCODING 8785
SWIDTH 960 0
DWIDTH 10 0
BBX 10 10 0 -2
BITMAP
0000
0000
5f80
6040
6380
6100
6300
6100
5e00
0000
ENDCHAR
STARTCHAR K+2252
ENCODING 8786
SWIDTH 960 0
DWIDTH 10 0
BBX 10 10 0 -2
BITMAP
0000
1e00
2600
2600
2600
1e00
0600
0600
0600
0000
ENDCHAR
STARTCHAR K+2253
ENCODING 8787
SWIDTH 960 0
DWIDTH 10 0
BBX 10 10 0 -2
BITMAP
0000
0800
0800
3e00
0800
0800
0800
0800
0800
0000
ENDCHAR
STARTCHAR K+2254
ENCODING 8788
SWIDTH 960 0
DWIDTH 10 0
BBX 10 10 0 -2
BITMAP
0000
0800
0800
3e00
0800
0800
3e00
0800
0800
0000
ENDCHAR
STARTCHAR K+2255
ENCODING 8789
SWIDTH 960 0
DWIDTH 10 0
BBX 10 10 0 -2
BITMAP
0000
0800
1c00
2a00
0800
0800
2a00
1c00
0800
0000
ENDCHAR
STARTCHAR K+2256
ENCODING 8790
SWIDTH 960 0
DWIDTH 10 0
BBX 10 10 0 -2
BITMAP
0000
0000
0f00
0300
0500
0900
1000
2000
4000
0000
ENDCHAR
STARTCHAR K+2257
ENCODING 8791
SWIDTH 960 0
DWIDTH 10 0
BBX 10 10 0 -2
BITMAP
0000
0000
0100
0200
0400
4800
5000
6000
7800
0000
ENDCHAR
STARTCHAR K+2258
ENCODING 8792
SWIDTH 960 0
DWIDTH 10 0
BBX 10 10 0 -2
BITMAP
0000
7800
6000
5000
4800
0400
0200
0100
0000
0000
ENDCHAR
STARTCHAR K+2259
ENCODING 8793
SWIDTH 960 0
DWIDTH 10 0
BBX 10 10 0 -2
BITMAP
0000
0000
4000
2000
1000
0900
0500
0300
0f00
0000
ENDCHAR
STARTCHAR K+225A
ENCODING 8794
SWIDTH 960 0
DWIDTH 10 0
BBX 10 10 0 -2
BITMAP
0000
0000
1000
1000
1c00
1200
1200
1400
1800
0000
ENDCHAR
STARTCHAR K+225B
ENCODING 8795
SWIDTH 960 0
DWIDTH 10 0
BBX 10 10 0 -2
BITMAP
0000
0000
0400
0400
0400
0400
1c00
3c00
3800
0000
ENDCHAR
STARTCHAR K+225C
ENCODING 8796
SWIDTH 960 0
DWIDTH 10 0
BBX 10 10 0 -2
BITMAP
0000
0800
0c00
0a00
0a00
0a00
3800
7800
3000
0000
ENDCHAR
STARTCHAR K+225D
ENCODING 8797
SWIDTH 960 0
DWIDTH 10 0
BBX 10 10 0 -2
BITMAP
0000
1000
1c00
1300
1d00
7300
f100
6700
0f00
0600
ENDCHAR
STARTCHAR K+225E
ENCODING 8798
SWIDTH 960 0
DWIDTH 10 0
BBX 10 10 0 -2
BITMAP
0000
1e00
2100
5680
5800
1580
5280
2100
1e00
0000
ENDCHAR
STARTCHAR K+225F
ENCODING 8799
SWIDTH 960 0
DWIDTH 10 0
BBX 10 10 0 -2
BITMAP
0000
2100
5e80
4480
5a80
4080
5e80
4480
2500
0000
ENDCHAR
STARTCHAR K+2260
ENCODING 8800
SWIDTH 960 0
DWIDTH 10 0
BBX 10 10 0 -2
BITMAP
0000
0000
9000
d000
d600
b900
b900
9900
9680
0000
ENDCHAR
STARTCHAR K+2261
ENCODING 8801
SWIDTH 960 0
DWIDTH 10 0
BBX 10 10 0 -2
BITMAP
0000
0000
7000
8000
8600
8900
8900
8900
7680
0000
ENDCHAR
STARTCHAR K+2262
ENCODING 8802
SWIDTH 960 0
DWIDTH 10 0
BBX 10 10 0 -2
BITMAP
0000
e880
4d80
4a80
4a80
4880
0000
0000
0000
0000
ENDCHAR
STARTCHAR K+2263
ENCODING 8803
SWIDTH 960 0
DWIDTH 10 0
BBX 10 10 0 -2
BITMAP
0000
0000
0000
cf00
2a80
6a80
aa80
6a80
0000
0000
ENDCHAR
STARTCHAR K+2264
ENCODING 8804
SWIDTH 960 0
DWIDTH 10 0
BBX 10 10 0 -2
BITMAP
0000
0000
0000
cf00
aa80
aa80
aa80
ca80
8000
8000
ENDCHAR
STARTCHAR K+2265
ENCODING 8805
SWIDTH 960 0
DWIDTH 10 0
BBX 10 10 0 -2
BITMAP
0000
0000
f100
4100
4900
5500
5d00
5100
4d00
0000
ENDCHAR
STARTCHAR K+2266
ENCODING 8806
SWIDTH 960 0
DWIDTH 10 0
BBX 10 10 0 -2
BITMAP
0000
1C00
2200
4000
FC00
FC00
4000
2200
1C00
0000
ENDCHAR
STARTCHAR K+2267
ENCODING 8807
SWIDTH 960 0
DWIDTH 10 0
BBX 10 10 0 -2
BITMAP
0000
3C00
7A00
A500
B900
A500
A500
4200
3C00
0000
ENDCHAR
STARTCHAR K+2321
ENCODING 8993
SWIDTH 960 0
DWIDTH 10 0
BBX 10 10 0 -2
BITMAP
0000
0800
0800
0800
0800
0800
0800
0000
0800
0000
ENDCHAR
STARTCHAR K+2322
ENCODING 8994
SWIDTH 960 0
DWIDTH 10 0
BBX 10 10 0 -2
BITMAP
0000
1400
1400
1400
0000
0000
0000
0000
0000
0000
ENDCHAR
STARTCHAR K+2323
ENCODING 8995
SWIDTH 960 0
DWIDTH 10 0
BBX 10 10 0 -2
BITMAP
0000
0000
1200
3f00
1200
1200
3f00
1200
0000
0000
ENDCHAR
STARTCHAR K+2324
ENCODING 8996
SWIDTH 960 0
DWIDTH 10 0
BBX 10 10 0 -2
BITMAP
0800
1c00
2a00
2800
1c00
0a00
2a00
1c00
0800
0000
ENDCHAR
STARTCHAR K+2325
ENCODING 8997
SWIDTH 960 0
DWIDTH 10 0
BBX 10 10 0 -2
BITMAP
0000
3000
4900
4a00
3400
0b00
1480
2480
0300
0000
ENDCHAR
STARTCHAR K+2326
ENCODING 8998
SWIDTH 960 0
DWIDTH 10 0
BBX 10 10 0 -2
BITMAP
0000
1000
2800
2800
1000
2800
2500
2200
1d00
0000
ENDCHAR
STARTCHAR K+2327
ENCODING 8999
SWIDTH 960 0
DWIDTH 10 0
BBX 10 10 0 -2
BITMAP
0000
0800
0800
0000
0000
0000
0000
0000
0000
0000
ENDCHAR
STARTCHAR K+2328
ENCODING 9000
SWIDTH 960 0
DWIDTH 10 0
BBX 10 10 0 -2
BITMAP
0000
0400
0800
1000
1000
1000
1000
1000
0800
0400
ENDCHAR
STARTCHAR K+2329
ENCODING 9001
SWIDTH 960 0
DWIDTH 10 0
BBX 10 10 0 -2
BITMAP
0000
1000
0800
0400
0400
0400
0400
0400
0800
1000
ENDCHAR
STARTCHAR K+232A
ENCODING 9002
SWIDTH 960 0
DWIDTH 10 0
BBX 10 10 0 -2
BITMAP
0000
0000
2200
1400
1400
6b00
1400
1400
2200
0000
ENDCHAR
STARTCHAR K+232B
ENCODING 9003
SWIDTH 960 0
DWIDTH 10 0
BBX 10 10 0 -2
BITMAP
0000
0000
0800
0800
0800
7f00
0800
0800
0800
0000
ENDCHAR
STARTCHAR K+232C
ENCODING 9004
SWIDTH 960 0
DWIDTH 10 0
BBX 10 10 0 -2
BITMAP
0000
0000
0000
0000
0000
0000
0000
0c00
0800
1000
ENDCHAR
STARTCHAR K+232D
ENCODING 9005
SWIDTH 960 0
DWIDTH 10 0
BBX 10 10 0 -2
BITMAP
0000
0000
0000
0000
3f80
0000
0000
0000
0000
0000
ENDCHAR
STARTCHAR K+232E
ENCODING 9006
SWIDTH 960 0
DWIDTH 10 0
BBX 10 10 0 -2
BITMAP
0000
0000
0000
0000
0000
0000
0000
1800
1800
0000
ENDCHAR
STARTCHAR K+232F
ENCODING 9007
SWIDTH 960 0
DWIDTH 10 0
BBX 10 10 0 -2
BITMAP
0000
0200
0200
0400
0400
0800
0800
1000
1000
0000
ENDCHAR
STARTCHAR K+2330
ENCODING 9008
SWIDTH 960 0
DWIDTH 10 0
BBX 10 10 0 -2
BITMAP
0000
0000
0c00
1200
2500
2900
2900
1200
0c00
0000
ENDCHAR
STARTCHAR K+2331
ENCODING 9009
SWIDTH 960 0
DWIDTH 10 0
BBX 10 10 0 -2
BITMAP
0000
0000
0400
1c00
0400
0400
0400
0400
0400
0000
ENDCHAR
STARTCHAR K+2332
ENCODING 9010
SWIDTH 960 0
DWIDTH 10 0
BBX 10 10 0 -2
BITMAP
0000
0000
1c00
2200
2200
0400
0800
1000
3e00
0000
ENDCHAR
STARTCHAR K+2333
ENCODING 9011
SWIDTH 960 0
DWIDTH 10 0
BBX 10 10 0 -2
BITMAP
0000
0000
1c00
2200
0200
0c00
2200
2200
1c00
0000
ENDCHAR
STARTCHAR K+2334
ENCODING 9012
SWIDTH 960 0
DWIDTH 10 0
BBX 10 10 0 -2
BITMAP
0000
0000
0200
0600
0a00
1200
2200
3f00
0200
0000
ENDCHAR
STARTCHAR K+2335
ENCODING 9013
SWIDTH 960 0
DWIDTH 10 0
BBX 10 10 0 -2
BITMAP
0000
0000
1f00
1000
1000
1e00
0100
1100
0e00
0000
ENDCHAR
STARTCHAR K+2336
ENCODING 9014
SWIDTH 960 0
DWIDTH 10 0
BBX 10 10 0 -2
BITMAP
0000
0000
1c00
2200
2000
3c00
2200
2200
1c00
0000
ENDCHAR
STARTCHAR K+2337
ENCODING 9015
SWIDTH 960 0
DWIDTH 10 0
BBX 10 10 0 -2
BITMAP
0000
0000
3e00
0200
0400
0400
0800
0800
1000
0000
ENDCHAR
STARTCHAR K+2338
ENCODING 9016
SWIDTH 960 0
DWIDTH 10 0
BBX 10 10 0 -2
BITMAP
0000
0000
1c00
2200
2200
1c00
2200
2200
1c00
0000
ENDCHAR
STARTCHAR K+2339
ENCODING 9017
SWIDTH 960 0
DWIDTH 10 0
BBX 10 10 0 -2
BITMAP
0000
0000
1c00
2200
2200
1e00
0200
2200
1c00
0000
ENDCHAR
STARTCHAR K+233A
ENCODING 9018
SWIDTH 960 0
DWIDTH 10 0
BBX 10 10 0 -2
BITMAP
0000
0000
0000
0800
0000
0000
0000
0800
0000
0000
ENDCHAR
STARTCHAR K+233B
ENCODING 9019
SWIDTH 960 0
DWIDTH 10 0
BBX 10 10 0 -2
BITMAP
0000
0000
0000
0800
0000
0000
0000
0800
1000
0000
ENDCHAR
STARTCHAR K+233C
ENCODING 9020
SWIDTH 960 0
DWIDTH 10 0
BBX 10 10 0 -2
BITMAP
0000
0000
0100
0600
1800
2000
1800
0600
0100
0000
ENDCHAR
STARTCHAR K+233D
ENCODING 9021
SWIDTH 960 0
DWIDTH 10 0
BBX 10 10 0 -2
BITMAP
0000
0000
0000
7f00
0000
0000
7f00
0000
0000
0000
ENDCHAR
STARTCHAR K+233E
ENCODING 9022
SWIDTH 960 0
DWIDTH 10 0
BBX 10 10 0 -2
BITMAP
0000
0000
2000
1800
0600
0100
0600
1800
2000
0000
ENDCHAR
STARTCHAR K+233F
ENCODING 9023
SWIDTH 960 0
DWIDTH 10 0
BBX 10 10 0 -2
BITMAP
1c00
2200
4100
4100
0200
0400
0800
0000
0800
0000
ENDCHAR
STARTCHAR K+2340
ENCODING 9024
SWIDTH 960 0
DWIDTH 10 0
BBX 10 10 0 -2
BITMAP
0000
1e00
2100
4c80
5280
5280
4f00
2000
1e00
0000
ENDCHAR
STARTCHAR K+2341
ENCODING 9025
SWIDTH 960 0
DWIDTH 10 0
BBX 10 10 0 -2
BITMAP
0000
0c00
1200
2100
2100
3f00
2100
2100
0000
0000
ENDCHAR
STARTCHAR K+2342
ENCODING 9026
SWIDTH 960 0
DWIDTH 10 0
BBX 10 10 0 -2
BITMAP
0000
3e00
2100
2100
3e00
2100
2100
3e00
0000
0000
ENDCHAR
STARTCHAR K+2343
ENCODING 9027
SWIDTH 960 0
DWIDTH 10 0
BBX 10 10 0 -2
BITMAP
0000
0e00
1100
2000
2000
2000
1100
0e00
0000
0000
ENDCHAR
STARTCHAR K+2344
ENCODING 9028
SWIDTH 960 0
DWIDTH 10 0
BBX 10 10 0 -2
BITMAP
0000
3c00
2200
2100
2100
2100
2200
3c00
0000
0000
ENDCHAR
STARTCHAR K+2345
ENCODING 9029
SWIDTH 960 0
DWIDTH 10 0
BBX 10 10 0 -2
BITMAP
0000
3e00
2000
2000
3e00
2000
2000
3e00
0000
0000
ENDCHAR
STARTCHAR K+2346
ENCODING 9030
SWIDTH 960 0
DWIDTH 10 0
BBX 10 10 0 -2
BITMAP
0000
1f00
1000
1000
1f00
1000
1000
1000
0000
0000
ENDCHAR
STARTCHAR K+2347
ENCODING 9031
SWIDTH 960 0
DWIDTH 10 0
BBX 10 10 0 -2
BITMAP
0000
0e00
1100
2000
2700
2100
1100
0e00
0000
0000
ENDCHAR
STARTCHAR K+2348
ENCODING 9032
SWIDTH 960 0
DWIDTH 10 0
BBX 10 10 0 -2
BITMAP
0000
2100
2100
2100
3f00
2100
2100
2100
0000
0000
ENDCHAR
STARTCHAR K+2349
ENCODING 9033
SWIDTH 960 0
DWIDTH 10 0
BBX 10 10 0 -2
BITMAP
0000
0400
0400
0400
0400
0400
0400
0400
0000
0000
ENDCHAR
STARTCHAR K+234A
ENCODING 9034
SWIDTH 960 0
DWIDTH 10 0
BBX 10 10 0 -2
BITMAP
0000
0200
0200
0200
2200
2200
2200
1c00
0000
0000
ENDCHAR
STARTCHAR K+234B
ENCODING 9035
SWIDTH 960 0
DWIDTH 10 0
BBX 10 10 0 -2
BITMAP
0000
1100
1200
1400
1800
1400
1200
1100
0000
0000
ENDCHAR
STARTCHAR K+234C
ENCODING 9036
SWIDTH 960 0
DWIDTH 10 0
BBX 10 10 0 -2
BITMAP
0000
1000
1000
1000
1000
1000
1000
1f00
0000
0000
ENDCHAR
STARTCHAR K+234D
ENCODING 9037
SWIDTH 960 0
DWIDTH 10 0
BBX 10 10 0 -2
BITMAP
0000
4100
6300
5500
4900
4100
4100
4100
0000
0000
ENDCHAR
STARTCHAR K+234E
ENCODING 9038
SWIDTH 960 0
DWIDTH 10 0
BBX 10 10 0 -2
BITMAP
0000
2100
3100
2900
2500
2300
2100
2100
0000
0000
ENDCHAR
STARTCHAR K+234F
ENCODING 9039
SWIDTH 960 0
DWIDTH 10 0
BBX 10 10 0 -2
BITMAP
0000
0c00
1200
2100
2100
2100
2100
1200
0c00
0000
ENDCHAR
STARTCHAR K+2350
ENCODING 9040
SWIDTH 960 0
DWIDTH 10 0
BBX 10 10 0 -2
BITMAP
0000
3e00
2100
2100
3e00
2000
2000
2000
0000
0000
ENDCHAR
STARTCHAR K+2351
ENCODING 9041
SWIDTH 960 0
DWIDTH 10 0
BBX 10 10 0 -2
BITMAP
0000
1c00
2200
4100
4100
5d00
2200
1c00
0300
0000
ENDCHAR
STARTCHAR K+2352
ENCODING 9042
SWIDTH 960 0
DWIDTH 10 0
BBX 10 10 0 -2
BITMAP
0000
3e00
2100
2100
3e00
2400
2200
2100
0000
0000
ENDCHAR
STARTCHAR K+2353
ENCODING 9043
SWIDTH 960 0
DWIDTH 10 0
BBX 10 10 0 -2
BITMAP
0000
1e00
2100
2000
1e00
0100
2100
1e00
0000
0000
ENDCHAR
STARTCHAR K+2354
ENCODING 9044
SWIDTH 960 0
DWIDTH 10 0
BBX 10 10 0 -2
BITMAP
0000
3f00
0400
0400
0400
0400
0400
0400
0000
0000
ENDCHAR
STARTCHAR K+2355
ENCODING 9045
SWIDTH 960 0
DWIDTH 10 0
BBX 10 10 0 -2
BITMAP
0000
2100
2100
2100
2100
2100
2100
1e00
0000
0000
ENDCHAR
STARTCHAR K+2356
ENCODING 9046
SWIDTH 960 0
DWIDTH 10 0
BBX 10 10 0 -2
BITMAP
0000
2100
2100
1200
1200
1200
0c00
0c00
0000
0000
ENDCHAR
STARTCHAR K+2357
ENCODING 9047
SWIDTH 960 0
DWIDTH 10 0
BBX 10 10 0 -2
BITMAP
0000
4100
4100
4900
4900
4900
3600
3600
0000
0000
ENDCHAR
STARTCHAR K+2358
ENCODING 9048
SWIDTH 960 0
DWIDTH 10 0
BBX 10 10 0 -2
BITMAP
0000
2100
1200
0c00
0c00
0c00
1200
2100
0000
0000
ENDCHAR
STARTCHAR K+2359
ENCODING 9049
SWIDTH 960 0
DWIDTH 10 0
BBX 10 10 0 -2
BITMAP
0000
4100
2200
1400
0800
0800
0800
0800
0000
0000
ENDCHAR
STARTCHAR K+235A
ENCODING 9050
SWIDTH 960 0
DWIDTH 10 0
BBX 10 10 0 -2
BITMAP
0000
3f00
0200
0400
0800
1000
2000
3f00
0000
0000
ENDCHAR
STARTCHAR K+235B
ENCODING 9051
SWIDTH 960 0
DWIDTH 10 0
BBX 10 10 0 -2
BITMAP
1e00
1000
1000
1000
1000
1000
1000
1000
1e00
0000
ENDCHAR
STARTCHAR K+235C
ENCODING 9052
SWIDTH 960 0
DWIDTH 10 0
BBX 10 10 0 -2
BITMAP
0000
8080
8080
4900
ff80
5500
ff80
2200
0000
0000
ENDCHAR
STARTCHAR K+235D
ENCODING 9053
SWIDTH 960 0
DWIDTH 10 0
BBX 10 10 0 -2
BITMAP
3c00
0400
0400
0400
0400
0400
0400
0400
3c00
0000
ENDCHAR
STARTCHAR K+235E
ENCODING 9054
SWIDTH 960 0
DWIDTH 10 0
BBX 10 10 0 -2
BITMAP
0000
0c00
0000
0000
0000
0000
0000
0000
0000
0000
ENDCHAR
STARTCHAR K+235F
ENCODING 9055
SWIDTH 960 0
DWIDTH 10 0
BBX 10 10 0 -2
BITMAP
0000
0000
0000
0000
0000
0000
0000
0000
0000
7fc0
ENDCHAR
STARTCHAR K+2360
ENCODING 9056
SWIDTH 960 0
DWIDTH 10 0
BBX 10 10 0 -2
BITMAP
0000
0800
0400
0000
0000
0000
0000
0000
0000
0000
ENDCHAR
STARTCHAR K+2361
ENCODING 9057
SWIDTH 960 0
DWIDTH 10 0
BBX 10 10 0 -2
BITMAP
0000
0000
0000
0c00
0200
0e00
1200
0d00
0000
0000
ENDCHAR
STARTCHAR K+2362
ENCODING 9058
SWIDTH 960 0
DWIDTH 10 0
BBX 10 10 0 -2
BITMAP
0000
1000
1000
1c00
1200
1200
1200
1c00
0000
0000
ENDCHAR
STARTCHAR K+2363
ENCODING 9059
SWIDTH 960 0
DWIDTH 10 0
BBX 10 10 0 -2
BITMAP
0000
0000
0000
0e00
1000
1000
1000
0e00
0000
0000
ENDCHAR
STARTCHAR K+2364
ENCODING 9060
SWIDTH 960 0
DWIDTH 10 0
BBX 10 10 0 -2
BITMAP
0000
0200
0200
0e00
1200
1200
1200
0e00
0000
0000
ENDCHAR
STARTCHAR K+2365
ENCODING 9061
SWIDTH 960 0
DWIDTH 10 0
BBX 10 10 0 -2
BITMAP
0000
0000
0000
0c00
1200
1e00
1000
0e00
0000
0000
ENDCHAR
STARTCHAR K+2366
ENCODING 9062
SWIDTH 960 0
DWIDTH 10 0
BBX 10 10 0 -2
BITMAP
0000
0600
0800
0800
1e00
0800
0800
0800
0000
0000
ENDCHAR
STARTCHAR K+2367
ENCODING 9063
SWIDTH 960 0
DWIDTH 10 0
BBX 10 10 0 -2
BITMAP
0000
0000
0000
0e00
1200
0c00
1000
0e00
1100
0e00
ENDCHAR
STARTCHAR K+2368
ENCODING 9064
SWIDTH 960 0
DWIDTH 10 0
BBX 10 10 0 -2
BITMAP
0000
1000
1000
1c00
1200
1200
1200
1200
0000
0000
ENDCHAR
STARTCHAR K+2369
ENCODING 9065
SWIDTH 960 0
DWIDTH 10 0
BBX 10 10 0 -2
BITMAP
0000
0400
0000
0400
0400
0400
0400
0400
0000
0000
ENDCHAR
STARTCHAR K+236A
ENCODING 9066
SWIDTH 960 0
DWIDTH 10 0
BBX 10 10 0 -2
BITMAP
0000
0200
0000
0200
0200
0200
0200
0200
1200
0c00
ENDCHAR
STARTCHAR K+236B
ENCODING 9067
SWIDTH 960 0
DWIDTH 10 0
BBX 10 10 0 -2
BITMAP
0000
1000
1000
1200
1400
1800
1400
1200
0000
0000
ENDCHAR
STARTCHAR K+236C
ENCODING 9068
SWIDTH 960 0
DWIDTH 10 0
BBX 10 10 0 -2
BITMAP
0000
0400
0400
0400
0400
0400
0400
0400
0000
0000
ENDCHAR
STARTCHAR K+236D
ENCODING 9069
SWIDTH 960 0
DWIDTH 10 0
BBX 10 10 0 -2
BITMAP
0000
0000
0000
3b00
2480
2480
2480
2480
0000
0000
ENDCHAR
STARTCHAR K+236E
ENCODING 9070
SWIDTH 960 0
DWIDTH 10 0
BBX 10 10 0 -2
BITMAP
0000
0000
0000
1c00
1200
1200
1200
1200
0000
0000
ENDCHAR
STARTCHAR K+236F
ENCODING 9071
SWIDTH 960 0
DWIDTH 10 0
BBX 10 10 0 -2
BITMAP
0000
0000
0000
1c00
2200
2200
2200
1c00
0000
0000
ENDCHAR
STARTCHAR K+2370
ENCODING 9072
SWIDTH 960 0
DWIDTH 10 0
BBX 10 10 0 -2
BITMAP
0000
0000
0000
1c00
1200
1200
1200
1c00
1000
1000
ENDCHAR
STARTCHAR K+2371
ENCODING 9073
SWIDTH 960 0
DWIDTH 10 0
BBX 10 10 0 -2
BITMAP
0000
0000
0000
0e00
1200
1200
1200
0e00
0200
0200
ENDCHAR
STARTCHAR K+2372
ENCODING 9074
SWIDTH 960 0
DWIDTH 10 0
BBX 10 10 0 -2
BITMAP
0000
0000
0000
0b00
0c00
0800
0800
0800
0000
0000
ENDCHAR
STARTCHAR K+2373
ENCODING 9075
SWIDTH 960 0
DWIDTH 10 0
BBX 10 10 0 -2
BITMAP
0000
0000
0000
0e00
1000
0c00
0200
1c00
0000
0000
ENDCHAR
STARTCHAR K+2374
ENCODING 9076
SWIDTH 960 0
DWIDTH 10 0
BBX 10 10 0 -2
BITMAP
0000
0800
0800
1e00
0800
0800
0800
0600
0000
0000
ENDCHAR
STARTCHAR K+2375
ENCODING 9077
SWIDTH 960 0
DWIDTH 10 0
BBX 10 10 0 -2
BITMAP
0000
0000
0000
1200
1200
1200
1200
0c00
0000
0000
ENDCHAR
STARTCHAR K+2376
ENCODING 9078
SWIDTH 960 0
DWIDTH 10 0
BBX 10 10 0 -2
BITMAP
0000
0000
0000
1100
1100
0a00
0a00
0400
0000
0000
ENDCHAR
STARTCHAR K+2377
ENCODING 9079
SWIDTH 960 0
DWIDTH 10 0
BBX 10 10 0 -2
BITMAP
0000
0000
0000
2480
2480
2a80
1100
1100
0000
0000
ENDCHAR
STARTCHAR K+2378
ENCODING 9080
SWIDTH 960 0
DWIDTH 10 0
BBX 10 10 0 -2
BITMAP
0000
0000
0000
2200
1400
0800
1400
2200
0000
0000
ENDCHAR
STARTCHAR K+2379
ENCODING 9081
SWIDTH 960 0
DWIDTH 10 0
BBX 10 10 0 -2
BITMAP
0000
0000
0000
1100
1100
0a00
0a00
0400
0400
1800
ENDCHAR
STARTCHAR K+237A
ENCODING 9082
SWIDTH 960 0
DWIDTH 10 0
BBX 10 10 0 -2
BITMAP
0000
0000
0000
1e00
0200
0400
0800
1e00
0000
0000
ENDCHAR
STARTCHAR K+237B
ENCODING 9083
SWIDTH 960 0
DWIDTH 10 0
BBX 10 10 0 -2
BITMAP
0400
0800
0800
0400
1800
0400
0800
0800
0400
0000
ENDCHAR
STARTCHAR K+237C
ENCODING 9084
SWIDTH 960 0
DWIDTH 10 0
BBX 10 10 0 -2
BITMAP
0000
0800
0800
0800
0800
0800
0800
0800
0800
0000
ENDCHAR
STARTCHAR K+237D
ENCODING 9085
SWIDTH 960 0
DWIDTH 10 0
BBX 10 10 0 -2
BITMAP
0800
0400
0400
0800
0600
0800
0400
0400
0800
0000
ENDCHAR
STARTCHAR K+237E
ENCODING 9086
SWIDTH 960 0
DWIDTH 10 0
BBX 10 10 0 -2
BITMAP
0000
0000
0000
0000
1f00
0000
0000
0000
0000
0000
ENDCHAR
STARTCHAR K+2421
ENCODING 9249
SWIDTH 960 0
DWIDTH 10 0
BBX 10 10 0 -2
BITMAP
0000
0000
0000
3f00
0100
0100
0100
0100
0000
0000
ENDCHAR
STARTCHAR K+2422
ENCODING 9250
SWIDTH 960 0
DWIDTH 10 0
BBX 10 10 0 -2
BITMAP
0000
0000
0000
3f00
0900
0900
0900
0900
0000
0000
ENDCHAR
STARTCHAR K+2423
ENCODING 9251
SWIDTH 960 0
DWIDTH 10 0
BBX 10 10 0 -2
BITMAP
0000
0000
0000
7200
1200
1200
1500
1880
0000
0000
ENDCHAR
STARTCHAR K+2424
ENCODING 9252
SWIDTH 960 0
DWIDTH 10 0
BBX 10 10 0 -2
BITMAP
0000
0000
0000
2000
2000
2000
2000
3f00
0000
0000
ENDCHAR
STARTCHAR K+2425
ENCODING 9253
SWIDTH 960 0
DWIDTH 10 0
BBX 10 10 0 -2
BITMAP
0000
0000
0000
4f80
4200
4200
4500
7880
0000
0000
ENDCHAR
STARTCHAR K+2426
ENCODING 9254
SWIDTH 960 0
DWIDTH 10 0
BBX 10 10 0 -2
BITMAP
0000
0000
0200
4f80
4000
4700
4880
7700
0000
0000
ENDCHAR
STARTCHAR K+2427
ENCODING 9255
SWIDTH 960 0
DWIDTH 10 0
BBX 10 10 0 -2
BITMAP
0000
0000
0000
3f00
2000
2000
2000
3f00
0000
0000
ENDCHAR
STARTCHAR K+2428
ENCODING 9256
SWIDTH 960 0
DWIDTH 10 0
BBX 10 10 0 -2
BITMAP
0000
0000
0000
7f00
4800
4800
4800
7f00
0000
0000
ENDCHAR
STARTCHAR K+2429
ENCODING 9257
SWIDTH 960 0
DWIDTH 10 0
BBX 10 10 0 -2
BITMAP
0000
0000
0000
3f00
0100
3f00
2000
3f00
0000
0000
ENDCHAR
STARTCHAR K+242A
ENCODING 9258
SWIDTH 960 0
DWIDTH 10 0
BBX 10 10 0 -2
BITMAP
0000
0000
0000
7f00
0900
7900
4100
7900
0000
0000
ENDCHAR
STARTCHAR K+242B
ENCODING 9259
SWIDTH 960 0
DWIDTH 10 0
BBX 10 10 0 -2
BITMAP
0000
0000
0000
7780
1480
7480
4480
7780
0000
0000
ENDCHAR
STARTCHAR K+242C
ENCODING 9260
SWIDTH 960 0
DWIDTH 10 0
BBX 10 10 0 -2
BITMAP
0000
0000
0000
7480
1480
7780
4480
7780
0000
0000
ENDCHAR
STARTCHAR K+242D
ENCODING 9261
SWIDTH 960 0
DWIDTH 10 0
BBX 10 10 0 -2
BITMAP
0000
0000
0000
7200
1200
7200
4500
7880
0000
0000
ENDCHAR
STARTCHAR K+242E
ENCODING 9262
SWIDTH 960 0
DWIDTH 10 0
BBX 10 10 0 -2
BITMAP
0000
0000
0000
7780
1400
7780
4400
7780
0000
0000
ENDCHAR
STARTCHAR K+242F
ENCODING 9263
SWIDTH 960 0
DWIDTH 10 0
BBX 10 10 0 -2
BITMAP
0000
0000
0000
7f80
1500
7500
4500
7f80
0000
0000
ENDCHAR
STARTCHAR K+2430
ENCODING 9264
SWIDTH 960 0
DWIDTH 10 0
BBX 10 10 0 -2
BITMAP
0000
0000
0000
7300
1780
7300
4480
7300
0000
0000
ENDCHAR
STARTCHAR K+2431
ENCODING 9265
SWIDTH 960 0
DWIDTH 10 0
BBX 10 10 0 -2
BITMAP
0000
0000
0000
3f00
2100
2100
2100
3f00
0000
0000
ENDCHAR
STARTCHAR K+2432
ENCODING 9266
SWIDTH 960 0
DWIDTH 10 0
BBX 10 10 0 -2
BITMAP
0000
0000
0000
2100
2100
3f00
2100
3f00
0000
0000
ENDCHAR
STARTCHAR K+2433
ENCODING 9267
SWIDTH 960 0
DWIDTH 10 0
BBX 10 10 0 -2
BITMAP
0000
0000
0000
5500
5500
7700
5500
7700
0000
0000
ENDCHAR
STARTCHAR K+2434
ENCODING 9268
SWIDTH 960 0
DWIDTH 10 0
BBX 10 10 0 -2
BITMAP
0000
0000
0000
4a00
4a00
7a00
4d00
7880
0000
0000
ENDCHAR
STARTCHAR K+2435
ENCODING 9269
SWIDTH 960 0
DWIDTH 10 0
BBX 10 10 0 -2
BITMAP
0000
0000
0000
0800
0800
0800
1400
6300
0000
0000
ENDCHAR
STARTCHAR K+2436
ENCODING 9270
SWIDTH 960 0
DWIDTH 10 0
BBX 10 10 0 -2
BITMAP
0000
0000
0000
2200
2200
2200
5500
8880
0000
0000
ENDCHAR
STARTCHAR K+2437
ENCODING 9271
SWIDTH 960 0
DWIDTH 10 0
BBX 10 10 0 -2
BITMAP
0000
0000
0000
1e00
2100
2100
2100
1e00
0000
0000
ENDCHAR
STARTCHAR K+2438
ENCODING 9272
SWIDTH 960 0
DWIDTH 10 0
BBX 10 10 0 -2
BITMAP
0000
0000
0000
3e00
0800
0800
1400
6300
0000
0000
ENDCHAR
STARTCHAR K+2439
ENCODING 9273
SWIDTH 960 0
DWIDTH 10 0
BBX 10 10 0 -2
BITMAP
0000
0000
0000
ff80
2200
2200
5500
8880
0000
0000
ENDCHAR
STARTCHAR K+243A
ENCODING 9274
SWIDTH 960 0
DWIDTH 10 0
BBX 10 10 0 -2
BITMAP
0000
0000
1c00
0000
7f00
0800
1400
6300
0000
0000
ENDCHAR
STARTCHAR K+243B
ENCODING 9275
SWIDTH 960 0
DWIDTH 10 0
BBX 10 10 0 -2
BITMAP
0000
0000
0000
3f00
0100
3f00
0100
0100
0000
0000
ENDCHAR
STARTCHAR K+243C
ENCODING 9276
SWIDTH 960 0
DWIDTH 10 0
BBX 10 10 0 -2
BITMAP
0000
0000
0000
3f00
2000
3f00
2000
3f00
0000
0000
ENDCHAR
STARTCHAR K+243D
ENCODING 9277
SWIDTH 960 0
DWIDTH 10 0
BBX 10 10 0 -2
BITMAP
0000
0000
0000
3f00
1200
1200
1200
3f00
0000
0000
ENDCHAR
STARTCHAR K+243E
ENCODING 9278
SWIDTH 960 0
DWIDTH 10 0
BBX 10 10 0 -2
BITMAP
0000
1c00
0000
7f00
0000
1c00
2200
1c00
0000
0000
ENDCHAR
STARTCHAR K+243F
ENCODING 9279
SWIDTH 960 0
DWIDTH 10 0
BBX 10 10 0 -2
BITMAP
0000
0800
0800
0800
0800
0e00
0800
0800
0800
0000
ENDCHAR
STARTCHAR K+2440
ENCODING 9280
SWIDTH 960 0
DWIDTH 10 0
BBX 10 10 0 -2
BITMAP
0000
1400
1400
1400
1c00
1400
1400
1400
1400
0000
ENDCHAR
STARTCHAR K+2441
ENCODING 9281
SWIDTH 960 0
DWIDTH 10 0
BBX 10 10 0 -2
BITMAP
0000
0800
0800
0e00
0800
0800
0e00
0800
0800
0000
ENDCHAR
STARTCHAR K+2442
ENCODING 9282
SWIDTH 960 0
DWIDTH 10 0
BBX 10 10 0 -2
BITMAP
0000
1200
1200
1e00
1200
1200
1e00
1200
1200
0000
ENDCHAR
STARTCHAR K+2443
ENCODING 9283
SWIDTH 960 0
DWIDTH 10 0
BBX 10 10 0 -2
BITMAP
0000
0400
0400
0400
3c00
0400
0400
0400
0400
0000
ENDCHAR
STARTCHAR K+2444
ENCODING 9284
SWIDTH 960 0
DWIDTH 10 0
BBX 10 10 0 -2
BITMAP
0000
0a00
0a00
0a00
3a00
0a00
0a00
0a00
0a00
0000
ENDCHAR
STARTCHAR K+2445
ENCODING 9285
SWIDTH 960 0
DWIDTH 10 0
BBX 10 10 0 -2
BITMAP
0000
0400
0400
3c00
0400
0400
3c00
0400
0400
0000
ENDCHAR
STARTCHAR K+2446
ENCODING 9286
SWIDTH 960 0
DWIDTH 10 0
BBX 10 10 0 -2
BITMAP
0000
0a00
0a00
3a00
0a00
0a00
3a00
0a00
0a00
0000
ENDCHAR
STARTCHAR K+2447
ENCODING 9287
SWIDTH 960 0
DWIDTH 10 0
BBX 10 10 0 -2
BITMAP
0000
0000
0000
0000
0800
0800
0800
7f00
0000
0000
ENDCHAR
STARTCHAR K+2448
ENCODING 9288
SWIDTH 960 0
DWIDTH 10 0
BBX 10 10 0 -2
BITMAP
0000
0200
0200
0200
2200
2380
fa00
0200
0200
0000
ENDCHAR
STARTCHAR K+2449
ENCODING 9289
SWIDTH 960 0
DWIDTH 10 0
BBX 10 10 0 -2
BITMAP
0000
0500
0500
0500
2500
2700
fd00
0500
0500
0000
ENDCHAR
STARTCHAR K+244A
ENCODING 9290
SWIDTH 960 0
DWIDTH 10 0
BBX 10 10 0 -2
BITMAP
0000
0100
0100
0100
1100
1100
7d00
0100
0100
0000
ENDCHAR
STARTCHAR K+244B
ENCODING 9291
SWIDTH 960 0
DWIDTH 10 0
BBX 10 10 0 -2
BITMAP
0000
0000
0000
0000
1200
1200
1200
7f80
0000
0000
ENDCHAR
STARTCHAR K+244C
ENCODING 9292
SWIDTH 960 0
DWIDTH 10 0
BBX 10 10 0 -2
BITMAP
0000
0000
ff80
0800
0800
0800
0800
0800
0800
0000
ENDCHAR
STARTCHAR K+244D
ENCODING 9293
SWIDTH 960 0
DWIDTH 10 0
BBX 10 10 0 -2
BITMAP
0000
0100
0100
0100
7d00
1100
1700
1100
1100
0000
ENDCHAR
STARTCHAR K+244E
ENCODING 9294
SWIDTH 960 0
DWIDTH 10 0
BBX 10 10 0 -2
BITMAP
0000
0280
0280
0280
7e80
1280
1e80
1280
1280
0000
ENDCHAR
STARTCHAR K+244F
ENCODING 9295
SWIDTH 960 0
DWIDTH 10 0
BBX 10 10 0 -2
BITMAP
0000
0100
0100
0100
7d00
1100
1100
1100
1100
0000
ENDCHAR
STARTCHAR K+2450
ENCODING 9296
SWIDTH 960 0
DWIDTH 10 0
BBX 10 10 0 -2
BITMAP
0000
0000
0000
7f80
1200
1200
1200
1200
1200
0000
ENDCHAR
STARTCHAR K+2451
ENCODING 9297
SWIDTH 960 0
DWIDTH 10 0
BBX 10 10 0 -2
BITMAP
0000
0000
0000
0000
0000
7f80
0000
0000
0000
0000
ENDCHAR
STARTCHAR K+2452
ENCODING 9298
SWIDTH 960 0
DWIDTH 10 0
BBX 10 10 0 -2
BITMAP
0000
0100
0100
0100
0100
0100
7f00
0100
0100
0000
ENDCHAR
STARTCHAR K+2453
ENCODING 9299
SWIDTH 960 0
DWIDTH 10 0
BBX 10 10 0 -2
BITMAP
0000
0800
0800
0800
0800
0800
0800
0800
0800
0000
ENDCHAR
STARTCHAR K+2454
ENCODING 9300
SWIDTH 960 0
DWIDTH 10 0
BBX 10 10 0 -2
BITMAP
0000
0000
0000
0000
0000
0000
0000
0000
0000
0000
ENDCHAR
STARTCHAR K+2455
ENCODING 9301
SWIDTH 960 0
DWIDTH 10 0
BBX 10 10 0 -2
BITMAP
0000
0000
0000
4400
4400
4400
4400
7f80
0000
0000
ENDCHAR
STARTCHAR K+2456
ENCODING 9302
SWIDTH 960 0
DWIDTH 10 0
BBX 10 10 0 -2
BITMAP
0000
0000
0000
4780
4400
4400
4400
7f80
0000
0000
ENDCHAR
STARTCHAR K+2457
ENCODING 9303
SWIDTH 960 0
DWIDTH 10 0
BBX 10 10 0 -2
BITMAP
0000
0000
0000
4200
4200
4200
4500
7880
0000
0000
ENDCHAR
STARTCHAR K+2458
ENCODING 9304
SWIDTH 960 0
DWIDTH 10 0
BBX 10 10 0 -2
BITMAP
0000
0000
0000
4200
4500
4500
4880
7f80
0000
0000
ENDCHAR
STARTCHAR K+2459
ENCODING 9305
SWIDTH 960 0
DWIDTH 10 0
BBX 10 10 0 -2
BITMAP
0000
0000
0000
fd00
2500
e500
8680
e680
0000
0000
ENDCHAR
STARTCHAR K+245A
ENCODING 9306
SWIDTH 960 0
DWIDTH 10 0
BBX 10 10 0 -2
BITMAP
0000
0000
0000
7700
1400
7400
4400
7700
0000
0000
ENDCHAR
STARTCHAR K+245B
ENCODING 9307
SWIDTH 960 0
DWIDTH 10 0
BBX 10 10 0 -2
BITMAP
0000
0000
0000
d500
5500
dd00
9680
de80
0000
0000
ENDCHAR
STARTCHAR K+245C
ENCODING 9308
SWIDTH 960 0
DWIDTH 10 0
BBX 10 10 0 -2
BITMAP
0000
0000
0000
7200
1200
7500
4500
7700
0000
0000
ENDCHAR
STARTCHAR K+245D
ENCODING 9309
SWIDTH 960 0
DWIDTH 10 0
BBX 10 10 0 -2
BITMAP
0000
0000
0000
7780
1300
7480
4480
7300
0000
0000
ENDCHAR
STARTCHAR K+245E
ENCODING 9310
SWIDTH 960 0
DWIDTH 10 0
BBX 10 10 0 -2
BITMAP
0000
0000
0000
7480
5480
5780
5480
7780
0000
0000
ENDCHAR
STARTCHAR K+245F
ENCODING 9311
SWIDTH 960 0
DWIDTH 10 0
BBX 10 10 0 -2
BITMAP
0000
0000
0000
7200
5200
5200
5500
7880
0000
0000
ENDCHAR
STARTCHAR K+2460
ENCODING 9312
SWIDTH 960 0
DWIDTH 10 0
BBX 10 10 0 -2
BITMAP
0000
0000
0000
7200
5200
5500
5500
7f80
0000
0000
ENDCHAR
STARTCHAR K+2461
ENCODING 9313
SWIDTH 960 0
DWIDTH 10 0
BBX 10 10 0 -2
BITMAP
0000
0000
1e00
1200
1e00
0000
0c00
1200
0c00
0000
ENDCHAR
STARTCHAR K+2462
ENCODING 9314
SWIDTH 960 0
DWIDTH 10 0
BBX 10 10 0 -2
BITMAP
0000
0000
0000
4b80
4880
7880
4880
7880
0000
0000
ENDCHAR
STARTCHAR K+2463
ENCODING 9315
SWIDTH 960 0
DWIDTH 10 0
BBX 10 10 0 -2
BITMAP
0000
0000
0000
4b80
4a00
7a00
4a00
7b80
0000
0000
ENDCHAR
STARTCHAR K+2464
ENCODING 9316
SWIDTH 960 0
DWIDTH 10 0
BBX 10 10 0 -2
BITMAP
0000
0000
0000
a580
a480
e480
aa80
ea80
0000
0000
ENDCHAR
STARTCHAR K+2465
ENCODING 9317
SWIDTH 960 0
DWIDTH 10 0
BBX 10 10 0 -2
BITMAP
0000
0000
0000
5580
5500
7500
5500
7b80
0000
0000
ENDCHAR
STARTCHAR K+2466
ENCODING 9318
SWIDTH 960 0
DWIDTH 10 0
BBX 10 10 0 -2
BITMAP
0000
0000
0000
5700
5200
7200
5500
7500
0000
0000
ENDCHAR
STARTCHAR K+2467
ENCODING 9319
SWIDTH 960 0
DWIDTH 10 0
BBX 10 10 0 -2
BITMAP
0000
0000
0000
5700
5400
7700
5400
7700
0000
0000
ENDCHAR
STARTCHAR K+2468
ENCODING 9320
SWIDTH 960 0
DWIDTH 10 0
BBX 10 10 0 -2
BITMAP
0000
0000
1200
1e00
1200
1e00
0c00
1200
0c00
0000
ENDCHAR
STARTCHAR K+2469
ENCODING 9321
SWIDTH 960 0
DWIDTH 10 0
BBX 10 10 0 -2
BITMAP
0000
0000
2900
3f00
2900
3f00
0c00
1200
0c00
0000
ENDCHAR
STARTCHAR K+246A
ENCODING 9322
SWIDTH 960 0
DWIDTH 10 0
BBX 10 10 0 -2
BITMAP
0000
0000
0000
1700
1100
1100
2900
4500
0000
0000
ENDCHAR
STARTCHAR K+246B
ENCODING 9323
SWIDTH 960 0
DWIDTH 10 0
BBX 10 10 0 -2
BITMAP
0000
0000
0000
2400
2400
2400
5400
8f80
0000
0000
ENDCHAR
STARTCHAR K+246C
ENCODING 9324
SWIDTH 960 0
DWIDTH 10 0
BBX 10 10 0 -2
BITMAP
0000
0000
0000
2780
2400
2400
5400
8f80
0000
0000
ENDCHAR
STARTCHAR K+246D
ENCODING 9325
SWIDTH 960 0
DWIDTH 10 0
BBX 10 10 0 -2
BITMAP
0000
0000
0000
2500
2500
2700
5500
8f00
0000
0000
ENDCHAR
STARTCHAR K+246E
ENCODING 9326
SWIDTH 960 0
DWIDTH 10 0
BBX 10 10 0 -2
BITMAP
0000
0000
0000
2200
2200
2200
5500
8880
0000
0000
ENDCHAR
STARTCHAR K+246F
ENCODING 9327
SWIDTH 960 0
DWIDTH 10 0
BBX 10 10 0 -2
BITMAP
0000
0000
0000
0800
0800
1400
2200
3e00
0000
0000
ENDCHAR
STARTCHAR K+2470
ENCODING 9328
SWIDTH 960 0
DWIDTH 10 0
BBX 10 10 0 -2
BITMAP
0000
0000
2400
3600
4900
4900
4900
3600
0000
0000
ENDCHAR
STARTCHAR K+2471
ENCODING 9329
SWIDTH 960 0
DWIDTH 10 0
BBX 10 10 0 -2
BITMAP
0000
0000
0800
1c00
2200
2200
2200
1c00
0000
0000
ENDCHAR
STARTCHAR K+2472
ENCODING 9330
SWIDTH 960 0
DWIDTH 10 0
BBX 10 10 0 -2
BITMAP
0000
0000
0000
3200
4a00
4a00
4d00
3500
0000
0000
ENDCHAR
STARTCHAR K+2473
ENCODING 9331
SWIDTH 960 0
DWIDTH 10 0
BBX 10 10 0 -2
BITMAP
0000
0000
0000
3200
4a00
4d00
4d00
3700
0000
0000
ENDCHAR
STARTCHAR K+2474
ENCODING 9332
SWIDTH 960 0
DWIDTH 10 0
BBX 10 10 0 -2
BITMAP
0000
0000
3f00
1200
3f00
0000
0c00
1200
0c00
0000
ENDCHAR
STARTCHAR K+2475
ENCODING 9333
SWIDTH 960 0
DWIDTH 10 0
BBX 10 10 0 -2
BITMAP
0000
0000
3600
0000
7f00
3600
4900
4900
3600
0000
ENDCHAR
STARTCHAR K+2476
ENCODING 9334
SWIDTH 960 0
DWIDTH 10 0
BBX 10 10 0 -2
BITMAP
0000
0000
7f00
0000
1c00
2200
2200
2200
1c00
0000
ENDCHAR
STARTCHAR K+2477
ENCODING 9335
SWIDTH 960 0
DWIDTH 10 0
BBX 10 10 0 -2
BITMAP
0000
0200
0200
2a00
2b80
2a00
7f80
0200
0200
0000
ENDCHAR
STARTCHAR K+2478
ENCODING 9336
SWIDTH 960 0
DWIDTH 10 0
BBX 10 10 0 -2
BITMAP
0000
0500
0500
5700
5500
5500
ff00
0500
0500
0000
ENDCHAR
STARTCHAR K+2479
ENCODING 9337
SWIDTH 960 0
DWIDTH 10 0
BBX 10 10 0 -2
BITMAP
0000
0100
0100
2900
2900
2900
7d00
0100
0100
0000
ENDCHAR
STARTCHAR K+247A
ENCODING 9338
SWIDTH 960 0
DWIDTH 10 0
BBX 10 10 0 -2
BITMAP
0000
0080
0080
7c80
2b80
2880
2b80
2880
2880
0000
ENDCHAR
STARTCHAR K+247B
ENCODING 9339
SWIDTH 960 0
DWIDTH 10 0
BBX 10 10 0 -2
BITMAP
0000
0280
0280
7e80
2a80
2e80
2a80
2e80
2a80
0000
ENDCHAR
STARTCHAR K+247C
ENCODING 9340
SWIDTH 960 0
DWIDTH 10 0
BBX 10 10 0 -2
BITMAP
0000
0100
0100
0100
7d00
2900
2900
2900
2900
0000
ENDCHAR
STARTCHAR K+247D
ENCODING 9341
SWIDTH 960 0
DWIDTH 10 0
BBX 10 10 0 -2
BITMAP
0000
0000
0000
0000
0800
0800
0000
0000
0000
0000
ENDCHAR
STARTCHAR K+247E
ENCODING 9342
SWIDTH 960 0
DWIDTH 10 0
BBX 10 10 0 -2
BITMAP
0000
0200
0200
0200
1200
1200
0200
0200
0200
0000
ENDCHAR
STARTCHAR K+2521
ENCODING 9505
SWIDTH 960 0
DWIDTH 10 0
BBX 10 10 0 -2
BITMAP
0000
0800
0800
0800
0800
0800
0800
0800
0800
0000
ENDCHAR
STARTCHAR K+2522
ENCODING 9506
SWIDTH 960 0
DWIDTH 10 0
BBX 10 10 0 -2
BITMAP
0000
1200
0000
1200
1200
1200
1200
1200
0000
0000
ENDCHAR
STARTCHAR K+2523
ENCODING 9507
SWIDTH 960 0
DWIDTH 10 0
BBX 10 10 0 -2
BITMAP
0000
2a00
0000
2a00
2a00
2a00
2a00
2a00
0000
0000
ENDCHAR
STARTCHAR K+2524
ENCODING 9508
SWIDTH 960 0
DWIDTH 10 0
BBX 10 10 0 -2
BITMAP
0000
2000
0000
2a00
2a00
2a00
2a00
2400
0000
0000
ENDCHAR
STARTCHAR K+2525
ENCODING 9509
SWIDTH 960 0
DWIDTH 10 0
BBX 10 10 0 -2
BITMAP
0000
0000
0000
1400
1400
1400
1400
0800
0000
0000
ENDCHAR
STARTCHAR K+2526
ENCODING 9510
SWIDTH 960 0
DWIDTH 10 0
BBX 10 10 0 -2
BITMAP
0000
0100
0000
2900
2900
2900
2900
1100
0000
0000
ENDCHAR
STARTCHAR K+2527
ENCODING 9511
SWIDTH 960 0
DWIDTH 10 0
BBX 10 10 0 -2
BITMAP
0000
0500
0000
5500
5500
5500
5500
2500
0000
0000
ENDCHAR
STARTCHAR K+2528
ENCODING 9512
SWIDTH 960 0
DWIDTH 10 0
BBX 10 10 0 -2
BITMAP
0000
0a80
0000
aa80
aa80
aa80
aa80
4a80
0000
0000
ENDCHAR
STARTCHAR K+2529
ENCODING 9513
SWIDTH 960 0
DWIDTH 10 0
BBX 10 10 0 -2
BITMAP
0000
4000
0000
5100
4a00
4400
4a00
5100
0000
0000
ENDCHAR
STARTCHAR K+252A
ENCODING 9514
SWIDTH 960 0
DWIDTH 10 0
BBX 10 10 0 -2
BITMAP
0000
0000
0000
2200
1400
0800
1400
2200
0000
0000
ENDCHAR
STARTCHAR K+2530
ENCODING 9520
SWIDTH 960 0
DWIDTH 10 0
BBX 10 10 0 -2
BITMAP
0000
0800
0800
0800
0800
0800
0800
0800
0000
0000
ENDCHAR
STARTCHAR K+2531
ENCODING 9521
SWIDTH 960 0
DWIDTH 10 0
BBX 10 10 0 -2
BITMAP
0000
1200
1200
1200
1200
1200
1200
1200
0000
0000
ENDCHAR
STARTCHAR K+2532
ENCODING 9522
SWIDTH 960 0
DWIDTH 10 0
BBX 10 10 0 -2
BITMAP
0000
4900
4900
4900
4900
4900
4900
4900
0000
0000
ENDCHAR
STARTCHAR K+2533
ENCODING 9523
SWIDTH 960 0
DWIDTH 10 0
BBX 10 10 0 -2
BITMAP
0000
5100
5100
4a00
4a00
4a00
4400
4400
0000
0000
ENDCHAR
STARTCHAR K+2534
ENCODING 9524
SWIDTH 960 0
DWIDTH 10 0
BBX 10 10 0 -2
BITMAP
0000
2200
2200
1400
1400
1400
0800
0800
0000
0000
ENDCHAR
STARTCHAR K+2535
ENCODING 9525
SWIDTH 960 0
DWIDTH 10 0
BBX 10 10 0 -2
BITMAP
0000
4500
4500
2900
2900
2900
1100
1100
0000
0000
ENDCHAR
STARTCHAR K+2536
ENCODING 9526
SWIDTH 960 0
DWIDTH 10 0
BBX 10 10 0 -2
BITMAP
0000
8a80
8a80
5280
5280
5280
2280
2280
0000
0000
ENDCHAR
STARTCHAR K+2537
ENCODING 9527
SWIDTH 960 0
DWIDTH 10 0
BBX 10 10 0 -2
BITMAP
0000
aa80
aa80
aa80
aa80
aa80
4a80
4a80
0000
0000
ENDCHAR
STARTCHAR K+2538
ENCODING 9528
SWIDTH 960 0
DWIDTH 10 0
BBX 10 10 0 -2
BITMAP
0000
2a00
2a00
2400
2400
2400
2a00
2a00
0000
0000
ENDCHAR
STARTCHAR K+2539
ENCODING 9529
SWIDTH 960 0
DWIDTH 10 0
BBX 10 10 0 -2
BITMAP
0000
2200
1400
0800
0800
0800
1400
2200
0000
0000
ENDCHAR
STARTCHAR K+2541
ENCODING 9537
SWIDTH 960 0
DWIDTH 10 0
BBX 10 10 0 -2
BITMAP
0000
0400
0400
0a00
0a00
1f00
1100
3b80
0000
0000
ENDCHAR
STARTCHAR K+2542
ENCODING 9538
SWIDTH 960 0
DWIDTH 10 0
BBX 10 10 0 -2
BITMAP
0000
3e00
1100
1100
1e00
1100
1100
3e00
0000
0000
ENDCHAR
STARTCHAR K+2543
ENCODING 9539
SWIDTH 960 0
DWIDTH 10 0
BBX 10 10 0 -2
BITMAP
0000
3f00
1100
1000
1000
1000
1000
3800
0000
0000
ENDCHAR
STARTCHAR K+2544
ENCODING 9540
SWIDTH 960 0
DWIDTH 10 0
BBX 10 10 0 -2
BITMAP
0000
0400
0400
0a00
0a00
1100
1100
3f80
0000
0000
ENDCHAR
STARTCHAR K+2545
ENCODING 9541
SWIDTH 960 0
DWIDTH 10 0
BBX 10 10 0 -2
BITMAP
0000
3f00
1100
1400
1c00
1400
1100
3f00
0000
0000
ENDCHAR
STARTCHAR K+2546
ENCODING 9542
SWIDTH 960 0
DWIDTH 10 0
BBX 10 10 0 -2
BITMAP
0000
3f00
2200
0400
0800
0800
1100
3f00
0000
0000
ENDCHAR
STARTCHAR K+2547
ENCODING 9543
SWIDTH 960 0
DWIDTH 10 0
BBX 10 10 0 -2
BITMAP
0000
3b80
1100
1100
1f00
1100
1100
3b80
0000
0000
ENDCHAR
STARTCHAR K+2548
ENCODING 9544
SWIDTH 960 0
DWIDTH 10 0
BBX 10 10 0 -2
BITMAP
0000
0e00
1100
2080
2e80
2080
1100
0e00
0000
0000
ENDCHAR
STARTCHAR K+2549
ENCODING 9545
SWIDTH 960 0
DWIDTH 10 0
BBX 10 10 0 -2
BITMAP
0000
0e00
0400
0400
0400
0400
0400
0e00
0000
0000
ENDCHAR
STARTCHAR K+254A
ENCODING 9546
SWIDTH 960 0
DWIDTH 10 0
BBX 10 10 0 -2
BITMAP
0000
3b80
1200
1400
1800
1400
1200
3b80
0000
0000
ENDCHAR
STARTCHAR K+254B
ENCODING 9547
SWIDTH 960 0
DWIDTH 10 0
BBX 10 10 0 -2
BITMAP
0000
0400
0400
0a00
0a00
1100
1100
3b80
0000
0000
ENDCHAR
STARTCHAR K+254C
ENCODING 9548
SWIDTH 960 0
DWIDTH 10 0
BBX 10 10 0 -2
BITMAP
0000
60c0
3180
3180
2a80
2a80
2480
75c0
0000
0000
ENDCHAR
STARTCHAR K+254D
ENCODING 9549
SWIDTH 960 0
DWIDTH 10 0
BBX 10 10 0 -2
BITMAP
0000
6380
3100
2900
2500
2300
2100
7380
0000
0000
ENDCHAR
STARTCHAR K+254E
ENCODING 9550
SWIDTH 960 0
DWIDTH 10 0
BBX 10 10 0 -2
BITMAP
0000
3f00
2100
0000
1e00
0000
2100
3f00
0000
0000
ENDCHAR
STARTCHAR K+254F
ENCODING 9551
SWIDTH 960 0
DWIDTH 10 0
BBX 10 10 0 -2
BITMAP
0000
0e00
1100
2080
2080
2080
1100
0e00
0000
0000
ENDCHAR
STARTCHAR K+2550
ENCODING 9552
SWIDTH 960 0
DWIDTH 10 0
BBX 10 10 0 -2
BITMAP
0000
3f80
1100
1100
1100
1100
1100
3b80
0000
0000
ENDCHAR
STARTCHAR K+2551
ENCODING 9553
SWIDTH 960 0
DWIDTH 10 0
BBX 10 10 0 -2
BITMAP
0000
3e00
1100
1100
1e00
1000
1000
3800
0000
0000
ENDCHAR
STARTCHAR K+2552
ENCODING 9554
SWIDTH 960 0
DWIDTH 10 0
BBX 10 10 0 -2
BITMAP
0000
3f00
1100
0800
0400
0800
1100
3f00
0000
0000
ENDCHAR
STARTCHAR K+2553
ENCODING 9555
SWIDTH 960 0
DWIDTH 10 0
BBX 10 10 0 -2
BITMAP
0000
3f80
2480
0400
0400
0400
0400
0e00
0000
0000
ENDCHAR
STARTCHAR K+2554
ENCODING 9556
SWIDTH 960 0
DWIDTH 10 0
BBX 10 10 0 -2
BITMAP
0000
1100
2a80
2480
0400
0400
0400
0e00
0000
0000
ENDCHAR
STARTCHAR K+2555
ENCODING 9557
SWIDTH 960 0
DWIDTH 10 0
BBX 10 10 0 -2
BITMAP
0000
0400
1f00
2480
2480
2480
1f00
0400
0000
0000
ENDCHAR
STARTCHAR K+2556
ENCODING 9558
SWIDTH 960 0
DWIDTH 10 0
BBX 10 10 0 -2
BITMAP
0000
3b80
1100
0a00
0400
0a00
1100
3b80
0000
0000
ENDCHAR
STARTCHAR K+2557
ENCODING 9559
SWIDTH 960 0
DWIDTH 10 0
BBX 10 10 0 -2
BITMAP
0000
0e00
2480
5540
1500
0e00
0400
0e00
0000
0000
ENDCHAR
STARTCHAR K+2558
ENCODING 9560
SWIDTH 960 0
DWIDTH 10 0
BBX 10 10 0 -2
BITMAP
0000
0e00
1100
2080
2080
1100
2a80
3b80
0000
0000
ENDCHAR
STARTCHAR K+2561
ENCODING 9569
SWIDTH 960 0
DWIDTH 10 0
BBX 10 10 0 -2
BITMAP
0000
0000
0000
0d00
1300
2200
2400
1b00
0000
0000
ENDCHAR
STARTCHAR K+2562
ENCODING 9570
SWIDTH 960 0
DWIDTH 10 0
BBX 10 10 0 -2
BITMAP
0000
0600
0900
0900
0a00
1100
1900
1600
1000
1000
ENDCHAR
STARTCHAR K+2563
ENCODING 9571
SWIDTH 960 0
DWIDTH 10 0
BBX 10 10 0 -2
BITMAP
0000
0000
0000
1900
2600
0400
0400
0800
0800
0000
ENDCHAR
STARTCHAR K+2564
ENCODING 9572
SWIDTH 960 0
DWIDTH 10 0
BBX 10 10 0 -2
BITMAP
0000
0600
0900
0400
0a00
1200
1200
0c00
0000
0000
ENDCHAR
STARTCHAR K+2565
ENCODING 9573
SWIDTH 960 0
DWIDTH 10 0
BBX 10 10 0 -2
BITMAP
0000
0000
0000
0600
0900
0c00
1100
0e00
0000
0000
ENDCHAR
STARTCHAR K+2566
ENCODING 9574
SWIDTH 960 0
DWIDTH 10 0
BBX 10 10 0 -2
BITMAP
0000
0400
0f00
0400
0800
1000
1000
0c00
0200
0c00
ENDCHAR
STARTCHAR K+2567
ENCODING 9575
SWIDTH 960 0
DWIDTH 10 0
BBX 10 10 0 -2
BITMAP
0000
0000
0000
1a00
2d00
0900
1100
1200
0200
0200
ENDCHAR
STARTCHAR K+2568
ENCODING 9576
SWIDTH 960 0
DWIDTH 10 0
BBX 10 10 0 -2
BITMAP
0000
0600
0900
0900
1f00
1200
1200
0c00
0000
0000
ENDCHAR
STARTCHAR K+2569
ENCODING 9577
SWIDTH 960 0
DWIDTH 10 0
BBX 10 10 0 -2
BITMAP
0000
0000
0000
0400
0400
0800
0a00
0400
0000
0000
ENDCHAR
STARTCHAR K+256A
ENCODING 9578
SWIDTH 960 0
DWIDTH 10 0
BBX 10 10 0 -2
BITMAP
0000
0000
0000
0a00
0c00
0800
1400
1300
0000
0000
ENDCHAR
STARTCHAR K+256B
ENCODING 9579
SWIDTH 960 0
DWIDTH 10 0
BBX 10 10 0 -2
BITMAP
0000
0c00
0200
0200
0600
0a00
0900
1100
0000
0000
ENDCHAR
STARTCHAR K+256C
ENCODING 9580
SWIDTH 960 0
DWIDTH 10 0
BBX 10 10 0 -2
BITMAP
0000
0000
0000
0900
0900
1200
1200
2d80
2000
2000
ENDCHAR
STARTCHAR K+256D
ENCODING 9581
SWIDTH 960 0
DWIDTH 10 0
BBX 10 10 0 -2
BITMAP
0000
0000
0000
1100
2900
0a00
0c00
0800
0000
0000
ENDCHAR
STARTCHAR K+256E
ENCODING 9582
SWIDTH 960 0
DWIDTH 10 0
BBX 10 10 0 -2
BITMAP
0200
0400
0700
0800
0f00
1000
1000
0c00
0200
0c00
ENDCHAR
STARTCHAR K+256F
ENCODING 9583
SWIDTH 960 0
DWIDTH 10 0
BBX 10 10 0 -2
BITMAP
0000
0000
0000
0600
0900
1100
1200
0c00
0000
0000
ENDCHAR
STARTCHAR K+2570
ENCODING 9584
SWIDTH 960 0
DWIDTH 10 0
BBX 10 10 0 -2
BITMAP
0000
0000
0000
1f80
2a00
0a00
1200
2180
0000
0000
ENDCHAR
STARTCHAR K+2571
ENCODING 9585
SWIDTH 960 0
DWIDTH 10 0
BBX 10 10 0 -2
BITMAP
0000
0000
0000
0600
0900
0900
1900
1600
1000
1000
ENDCHAR
STARTCHAR K+2572
ENCODING 9586
SWIDTH 960 0
DWIDTH 10 0
BBX 10 10 0 -2
BITMAP
0000
0000
0000
0f00
1200
2200
2400
1800
0000
0000
ENDCHAR
STARTCHAR K+2573
ENCODING 9587
SWIDTH 960 0
DWIDTH 10 0
BBX 10 10 0 -2
BITMAP
0000
0000
0000
1f00
2400
0800
0800
0600
0000
0000
ENDCHAR
STARTCHAR K+2574
ENCODING 9588
SWIDTH 960 0
DWIDTH 10 0
BBX 10 10 0 -2
BITMAP
0000
0000
0000
1200
2900
1100
1200
0c00
0000
0000
ENDCHAR
STARTCHAR K+2575
ENCODING 9589
SWIDTH 960 0
DWIDTH 10 0
BBX 10 10 0 -2
BITMAP
0000
0200
0200
0e00
1500
1500
1500
0e00
0800
0800
ENDCHAR
STARTCHAR K+2576
ENCODING 9590
SWIDTH 960 0
DWIDTH 10 0
BBX 10 10 0 -2
BITMAP
0000
0000
1880
0500
0600
0400
0c00
1400
2300
0000
ENDCHAR
STARTCHAR K+2577
ENCODING 9591
SWIDTH 960 0
DWIDTH 10 0
BBX 10 10 0 -2
BITMAP
0000
0200
0200
1280
2a80
1480
1500
0e00
0400
0400
ENDCHAR
STARTCHAR K+2578
ENCODING 9592
SWIDTH 960 0
DWIDTH 10 0
BBX 10 10 0 -2
BITMAP
0000
0000
0000
1100
2480
2480
2480
1b00
0000
0000
ENDCHAR
STARTCHAR K+2621
ENCODING 9761
SWIDTH 960 0
DWIDTH 10 0
BBX 10 10 0 -2
BITMAP
0000
0000
0000
0000
ffc0
0000
0000
0000
0000
0000
ENDCHAR
STARTCHAR K+2622
ENCODING 9762
SWIDTH 960 0
DWIDTH 10 0
BBX 10 10 0 -2
BITMAP
0400
0400
0400
0400
0400
0400
0400
0400
0400
0400
ENDCHAR
STARTCHAR K+2623
ENCODING 9763
SWIDTH 960 0
DWIDTH 10 0
BBX 10 10 0 -2
BITMAP
0000
0000
0000
0000
07c0
0400
0400
0400
0400
0400
ENDCHAR
STARTCHAR K+2624
ENCODING 9764
SWIDTH 960 0
DWIDTH 10 0
BBX 10 10 0 -2
BITMAP
0000
0000
0000
0000
fc00
0400
0400
0400
0400
0400
ENDCHAR
STARTCHAR K+2625
ENCODING 9765
SWIDTH 960 0
DWIDTH 10 0
BBX 10 10 0 -2
BITMAP
0400
0400
0400
0400
fc00
0000
0000
0000
0000
0000
ENDCHAR
STARTCHAR K+2626
ENCODING 9766
SWIDTH 960 0
DWIDTH 10 0
BBX 10 10 0 -2
BITMAP
0400
0400
0400
0400
07c0
0000
0000
0000
0000
0000
ENDCHAR
STARTCHAR K+2627
ENCODING 9767
SWIDTH 960 0
DWIDTH 10 0
BBX 10 10 0 -2
BITMAP
0400
0400
0400
0400
07c0
0400
0400
0400
0400
0400
ENDCHAR
STARTCHAR K+2628
ENCODING 9768
SWIDTH 960 0
DWIDTH 10 0
BBX 10 10 0 -2
BITMAP
0000
0000
0000
0000
ffc0
0400
0400
0400
0400
0400
ENDCHAR
STARTCHAR K+2629
ENCODING 9769
SWIDTH 960 0
DWIDTH 10 0
BBX 10 10 0 -2
BITMAP
0400
0400
0400
0400
fc00
0400
0400
0400
0400
0400
ENDCHAR
STARTCHAR K+262A
ENCODING 9770
SWIDTH 960 0
DWIDTH 10 0
BBX 10 10 0 -2
BITMAP
0400
0400
0400
0400
ffc0
0000
0000
0000
0000
0000
ENDCHAR
STARTCHAR K+262B
ENCODING 9771
SWIDTH 960 0
DWIDTH 10 0
BBX 10 10 0 -2
BITMAP
0400
0400
0400
0400
ffc0
0400
0400
0400
0400
0400
ENDCHAR
STARTCHAR K+262C
ENCODING 9772
SWIDTH 960 0
DWIDTH 10 0
BBX 10 10 0 -2
BITMAP
0000
0000
0000
0000
ffc0
ffc0
0000
0000
0000
0000
ENDCHAR
STARTCHAR K+262D
ENCODING 9773
SWIDTH 960 0
DWIDTH 10 0
BBX 10 10 0 -2
BITMAP
0c00
0c00
0c00
0c00
0c00
0c00
0c00
0c00
0c00
0c00
ENDCHAR
STARTCHAR K+262E
ENCODING 9774
SWIDTH 960 0
DWIDTH 10 0
BBX 10 10 0 -2
BITMAP
0000
0000
0000
0000
0fc0
0fc0
0c00
0c00
0c00
0c00
ENDCHAR
STARTCHAR K+262F
ENCODING 9775
SWIDTH 960 0
DWIDTH 10 0
BBX 10 10 0 -2
BITMAP
0000
0000
0000
0000
fc00
fc00
0c00
0c00
0c00
0c00
ENDCHAR
STARTCHAR K+2630
ENCODING 9776
SWIDTH 960 0
DWIDTH 10 0
BBX 10 10 0 -2
BITMAP
0c00
0c00
0c00
0c00
fc00
fc00
0000
0000
0000
0000
ENDCHAR
STARTCHAR K+2631
ENCODING 9777
SWIDTH 960 0
DWIDTH 10 0
BBX 10 10 0 -2
BITMAP
0c00
0c00
0c00
0c00
0fc0
0fc0
0000
0000
0000
0000
ENDCHAR
STARTCHAR K+2632
ENCODING 9778
SWIDTH 960 0
DWIDTH 10 0
BBX 10 10 0 -2
BITMAP
0c00
0c00
0c00
0c00
0fc0
0fc0
0c00
0c00
0c00
0c00
ENDCHAR
STARTCHAR K+2633
ENCODING 9779
SWIDTH 960 0
DWIDTH 10 0
BBX 10 10 0 -2
BITMAP
0000
0000
0000
0000
ffc0
ffc0
0c00
0c00
0c00
0c00
ENDCHAR
STARTCHAR K+2634
ENCODING 9780
SWIDTH 960 0
DWIDTH 10 0
BBX 10 10 0 -2
BITMAP
0c00
0c00
0c00
0c00
fc00
fc00
0c00
0c00
0c00
0c00
ENDCHAR
STARTCHAR K+2635
ENCODING 9781
SWIDTH 960 0
DWIDTH 10 0
BBX 10 10 0 -2
BITMAP
0c00
0c00
0c00
0c00
ffc0
ffc0
0000
0000
0000
0000
ENDCHAR
STARTCHAR K+2636
ENCODING 9782
SWIDTH 960 0
DWIDTH 10 0
BBX 10 10 0 -2
BITMAP
0c00
0c00
0c00
0c00
ffc0
ffc0
0c00
0c00
0c00
0c00
ENDCHAR
STARTCHAR K+2637
ENCODING 9783
SWIDTH 960 0
DWIDTH 10 0
BBX 10 10 0 -2
BITMAP
0c00
0c00
0c00
0c00
0fc0
0c00
0c00
0c00
0c00
0c00
ENDCHAR
STARTCHAR K+2638
ENCODING 9784
SWIDTH 960 0
DWIDTH 10 0
BBX 10 10 0 -2
BITMAP
0000
0000
0000
0000
ffc0
ffc0
0400
0400
0400
0400
ENDCHAR
STARTCHAR K+2639
ENCODING 9785
SWIDTH 960 0
DWIDTH 10 0
BBX 10 10 0 -2
BITMAP
0c00
0c00
0c00
0c00
fc00
0c00
0c00
0c00
0c00
0c00
ENDCHAR
STARTCHAR K+263A
ENCODING 9786
SWIDTH 960 0
DWIDTH 10 0
BBX 10 10 0 -2
BITMAP
0400
0400
0400
0400
ffc0
ffc0
0000
0000
0000
0000
ENDCHAR
STARTCHAR K+263B
ENCODING 9787
SWIDTH 960 0
DWIDTH 10 0
BBX 10 10 0 -2
BITMAP
0400
0400
0400
0400
ffc0
ffc0
0400
0400
0400
0400
ENDCHAR
STARTCHAR K+263C
ENCODING 9788
SWIDTH 960 0
DWIDTH 10 0
BBX 10 10 0 -2
BITMAP
0400
0400
0400
0400
07c0
07c0
0400
0400
0400
0400
ENDCHAR
STARTCHAR K+263D
ENCODING 9789
SWIDTH 960 0
DWIDTH 10 0
BBX 10 10 0 -2
BITMAP
0000
0000
0000
0000
ffc0
0c00
0c00
0c00
0c00
0c00
ENDCHAR
STARTCHAR K+263E
ENCODING 9790
SWIDTH 960 0
DWIDTH 10 0
BBX 10 10 0 -2
BITMAP
0400
0400
0400
0400
fc00
fc00
0400
0400
0400
0400
ENDCHAR
STARTCHAR K+263F
ENCODING 9791
SWIDTH 960 0
DWIDTH 10 0
BBX 10 10 0 -2
BITMAP
0c00
0c00
0c00
0c00
ffc0
0000
0000
0000
0000
0000
ENDCHAR
STARTCHAR K+2640
ENCODING 9792
SWIDTH 960 0
DWIDTH 10 0
BBX 10 10 0 -2
BITMAP
0c00
0c00
0c00
0c00
ffc0
0c00
0c00
0c00
0c00
0c00
ENDCHAR
STARTCHAR K+2641
ENCODING 9793
SWIDTH 960 0
DWIDTH 10 0
BBX 10 10 0 -2
BITMAP
0000
0000
0000
0000
fc00
0c00
0c00
0c00
0c00
0c00
ENDCHAR
STARTCHAR K+2642
ENCODING 9794
SWIDTH 960 0
DWIDTH 10 0
BBX 10 10 0 -2
BITMAP
0000
0000
0000
0000
fc00
fc00
0400
0400
0400
0400
ENDCHAR
STARTCHAR K+2643
ENCODING 9795
SWIDTH 960 0
DWIDTH 10 0
BBX 10 10 0 -2
BITMAP
0c00
0c00
0c00
0c00
fc00
0000
0000
0000
0000
0000
ENDCHAR
STARTCHAR K+2644
ENCODING 9796
SWIDTH 960 0
DWIDTH 10 0
BBX 10 10 0 -2
BITMAP
0400
0400
0400
0400
fc00
fc00
0000
0000
0000
0000
ENDCHAR
STARTCHAR K+2645
ENCODING 9797
SWIDTH 960 0
DWIDTH 10 0
BBX 10 10 0 -2
BITMAP
0c00
0c00
0c00
0c00
0fc0
0000
0000
0000
0000
0000
ENDCHAR
STARTCHAR K+2646
ENCODING 9798
SWIDTH 960 0
DWIDTH 10 0
BBX 10 10 0 -2
BITMAP
0400
0400
0400
0400
07c0
07c0
0000
0000
0000
0000
ENDCHAR
STARTCHAR K+2647
ENCODING 9799
SWIDTH 960 0
DWIDTH 10 0
BBX 10 10 0 -2
BITMAP
0000
0000
0000
0000
0fc0
0c00
0c00
0c00
0c00
0c00
ENDCHAR
STARTCHAR K+2648
ENCODING 9800
SWIDTH 960 0
DWIDTH 10 0
BBX 10 10 0 -2
BITMAP
0000
0000
0000
0000
07c0
07c0
0400
0400
0400
0400
ENDCHAR
STARTCHAR K+2649
ENCODING 9801
SWIDTH 960 0
DWIDTH 10 0
BBX 10 10 0 -2
BITMAP
0c00
0c00
0c00
0c00
0fc0
0400
0400
0400
0400
0400
ENDCHAR
STARTCHAR K+264A
ENCODING 9802
SWIDTH 960 0
DWIDTH 10 0
BBX 10 10 0 -2
BITMAP
0400
0400
0400
0400
0fc0
0c00
0c00
0c00
0c00
0c00
ENDCHAR
STARTCHAR K+264B
ENCODING 9803
SWIDTH 960 0
DWIDTH 10 0
BBX 10 10 0 -2
BITMAP
0c00
0c00
0c00
0c00
0fc0
0fc0
0400
0400
0400
0400
ENDCHAR
STARTCHAR K+264C
ENCODING 9804
SWIDTH 960 0
DWIDTH 10 0
BBX 10 10 0 -2
BITMAP
0400
0400
0400
0400
0fc0
0fc0
0c00
0c00
0c00
0c00
ENDCHAR
STARTCHAR K+264D
ENCODING 9805
SWIDTH 960 0
DWIDTH 10 0
BBX 10 10 0 -2
BITMAP
0c00
0c00
0c00
0c00
fc00
0400
0400
0400
0400
0400
ENDCHAR
STARTCHAR K+264E
ENCODING 9806
SWIDTH 960 0
DWIDTH 10 0
BBX 10 10 0 -2
BITMAP
0400
0400
0400
0400
0400
fc00
0c00
0c00
0c00
0c00
ENDCHAR
STARTCHAR K+264F
ENCODING 9807
SWIDTH 960 0
DWIDTH 10 0
BBX 10 10 0 -2
BITMAP
0c00
0c00
0c00
0c00
fc00
fc00
0400
0400
0400
0400
ENDCHAR
STARTCHAR K+2650
ENCODING 9808
SWIDTH 960 0
DWIDTH 10 0
BBX 10 10 0 -2
BITMAP
0400
0400
0400
0400
fc00
fc00
0c00
0c00
0c00
0c00
ENDCHAR
STARTCHAR K+2651
ENCODING 9809
SWIDTH 960 0
DWIDTH 10 0
BBX 10 10 0 -2
BITMAP
0000
0000
0000
0000
ffc0
fc00
0400
0400
0400
0400
ENDCHAR
STARTCHAR K+2652
ENCODING 9810
SWIDTH 960 0
DWIDTH 10 0
BBX 10 10 0 -2
BITMAP
0000
0000
0000
0000
ffc0
07c0
0400
0400
0400
0400
ENDCHAR
STARTCHAR K+2653
ENCODING 9811
SWIDTH 960 0
DWIDTH 10 0
BBX 10 10 0 -2
BITMAP
0000
0000
0000
0000
ffc0
fc00
0c00
0c00
0c00
0c00
ENDCHAR
STARTCHAR K+2654
ENCODING 9812
SWIDTH 960 0
DWIDTH 10 0
BBX 10 10 0 -2
BITMAP
0000
0000
0000
0000
ffc0
0fc0
0c00
0c00
0c00
0c00
ENDCHAR
STARTCHAR K+2655
ENCODING 9813
SWIDTH 960 0
DWIDTH 10 0
BBX 10 10 0 -2
BITMAP
0400
0400
0400
0400
ffc0
fc00
0000
0000
0000
0000
ENDCHAR
STARTCHAR K+2656
ENCODING 9814
SWIDTH 960 0
DWIDTH 10 0
BBX 10 10 0 -2
BITMAP
0400
0400
0400
0400
ffc0
07c0
0000
0000
0000
0000
ENDCHAR
STARTCHAR K+2657
ENCODING 9815
SWIDTH 960 0
DWIDTH 10 0
BBX 10 10 0 -2
BITMAP
0c00
0c00
0c00
0c00
ffc0
fc00
0000
0000
0000
0000
ENDCHAR
STARTCHAR K+2658
ENCODING 9816
SWIDTH 960 0
DWIDTH 10 0
BBX 10 10 0 -2
BITMAP
0c00
0c00
0c00
0c00
ffc0
0fc0
0000
0000
0000
0000
ENDCHAR
STARTCHAR K+2659
ENCODING 9817
SWIDTH 960 0
DWIDTH 10 0
BBX 10 10 0 -2
BITMAP
0400
0400
0400
0400
ffc0
fc00
0400
0400
0400
0400
ENDCHAR
STARTCHAR K+265A
ENCODING 9818
SWIDTH 960 0
DWIDTH 10 0
BBX 10 10 0 -2
BITMAP
0400
0400
0400
0400
ffc0
07c0
0400
0400
0400
0400
ENDCHAR
STARTCHAR K+265B
ENCODING 9819
SWIDTH 960 0
DWIDTH 10 0
BBX 10 10 0 -2
BITMAP
0c00
0c00
0c00
0c00
ffc0
0400
0400
0400
0400
0400
ENDCHAR
STARTCHAR K+265C
ENCODING 9820
SWIDTH 960 0
DWIDTH 10 0
BBX 10 10 0 -2
BITMAP
0400
0400
0400
0400
ffc0
0c00
0c00
0c00
0c00
0c00
ENDCHAR
STARTCHAR K+265D
ENCODING 9821
SWIDTH 960 0
DWIDTH 10 0
BBX 10 10 0 -2
BITMAP
0c00
0c00
0c00
0c00
ffc0
fc00
0400
0400
0400
0400
ENDCHAR
STARTCHAR K+265E
ENCODING 9822
SWIDTH 960 0
DWIDTH 10 0
BBX 10 10 0 -2
BITMAP
0c00
0c00
0c00
0c00
ffc0
0fc0
0400
0400
0400
0400
ENDCHAR
STARTCHAR K+265F
ENCODING 9823
SWIDTH 960 0
DWIDTH 10 0
BBX 10 10 0 -2
BITMAP
0400
0400
0400
0400
ffc0
fc00
0c00
0c00
0c00
0c00
ENDCHAR
STARTCHAR K+2660
ENCODING 9824
SWIDTH 960 0
DWIDTH 10 0
BBX 10 10 0 -2
BITMAP
0400
0400
0400
0400
ffc0
0fc0
0c00
0c00
0c00
0c00
ENDCHAR
STARTCHAR K+2661
ENCODING 9825
SWIDTH 960 0
DWIDTH 10 0
BBX 10 10 0 -2
BITMAP
0c00
0c00
0c00
0c00
ffc0
ffc0
0400
0400
0400
0400
ENDCHAR
STARTCHAR K+2662
ENCODING 9826
SWIDTH 960 0
DWIDTH 10 0
BBX 10 10 0 -2
BITMAP
0400
0400
0400
0400
ffc0
ffc0
0c00
0c00
0c00
0c00
ENDCHAR
STARTCHAR K+2663
ENCODING 9827
SWIDTH 960 0
DWIDTH 10 0
BBX 10 10 0 -2
BITMAP
0c00
0c00
0c00
0c00
ffc0
fc00
0c00
0c00
0c00
0c00
ENDCHAR
STARTCHAR K+2664
ENCODING 9828
SWIDTH 960 0
DWIDTH 10 0
BBX 10 10 0 -2
BITMAP
0c00
0c00
0c00
0c00
ffc0
0fc0
0c00
0c00
0c00
0c00
ENDCHAR
STARTCHAR K+2721
ENCODING 10017
SWIDTH 960 0
DWIDTH 10 0
BBX 10 10 0 -2
BITMAP
0100
0280
0280
2a80
2b00
4b00
5600
f780
8000
0000
ENDCHAR
STARTCHAR K+2722
ENCODING 10018
SWIDTH 960 0
DWIDTH 10 0
BBX 10 10 0 -2
BITMAP
0100
0280
0280
f280
ab00
ab00
ae00
ad80
0000
0000
ENDCHAR
STARTCHAR K+2723
ENCODING 10019
SWIDTH 960 0
DWIDTH 10 0
BBX 10 10 0 -2
BITMAP
1100
1280
1280
3280
5300
5300
5600
3d80
0000
0000
ENDCHAR
STARTCHAR K+2724
ENCODING 10020
SWIDTH 960 0
DWIDTH 10 0
BBX 10 10 0 -2
BITMAP
0400
0a00
0a00
0a00
0c00
0c00
0800
3600
0000
0000
ENDCHAR
STARTCHAR K+2725
ENCODING 10021
SWIDTH 960 0
DWIDTH 10 0
BBX 10 10 0 -2
BITMAP
4100
4280
4280
4a80
5300
6300
5200
4d80
0000
0000
ENDCHAR
STARTCHAR K+2726
ENCODING 10022
SWIDTH 960 0
DWIDTH 10 0
BBX 10 10 0 -2
BITMAP
0000
0000
0000
6300
9480
8400
9480
6300
0000
0000
ENDCHAR
STARTCHAR K+2727
ENCODING 10023
SWIDTH 960 0
DWIDTH 10 0
BBX 10 10 0 -2
BITMAP
01c0
00c0
01c0
f700
aa80
aa80
aa80
aa80
0000
0000
ENDCHAR
STARTCHAR K+2728
ENCODING 10024
SWIDTH 960 0
DWIDTH 10 0
BBX 10 10 0 -2
BITMAP
01c0
00c0
01c0
6f00
8a80
8a80
8a80
6a80
0000
0000
ENDCHAR
STARTCHAR K+2729
ENCODING 10025
SWIDTH 960 0
DWIDTH 10 0
BBX 10 10 0 -2
BITMAP
01c0
00c0
0040
79c0
5400
5400
5400
5400
0000
0000
ENDCHAR
STARTCHAR K+272A
ENCODING 10026
SWIDTH 960 0
DWIDTH 10 0
BBX 10 10 0 -2
BITMAP
81c0
80c0
81c0
ad00
aa80
ca80
aa80
aa80
0000
0000
ENDCHAR
STARTCHAR K+272B
ENCODING 10027
SWIDTH 960 0
DWIDTH 10 0
BBX 10 10 0 -2
BITMAP
2000
5000
4000
ef00
4a80
4a80
4a80
4a80
0000
0000
ENDCHAR
STARTCHAR K+272C
ENCODING 10028
SWIDTH 960 0
DWIDTH 10 0
BBX 10 10 0 -2
BITMAP
0000
0000
0000
cf00
aa80
aa80
aa80
aa80
0000
0000
ENDCHAR
STARTCHAR K+272D
ENCODING 10029
SWIDTH 960 0
DWIDTH 10 0
BBX 10 10 0 -2
BITMAP
0000
0000
0000
4f80
4d40
5540
9540
e540
8000
0000
ENDCHAR
STARTCHAR K+272E
ENCODING 10030
SWIDTH 960 0
DWIDTH 10 0
BBX 10 10 0 -2
BITMAP
0000
0000
0000
f700
aa80
aa80
aa80
aa80
0000
0000
ENDCHAR
STARTCHAR K+272F
ENCODING 10031
SWIDTH 960 0
DWIDTH 10 0
BBX 10 10 0 -2
BITMAP
0000
0000
0000
6f00
8a80
8a80
8a80
6a80
0000
0000
ENDCHAR
STARTCHAR K+2730
ENCODING 10032
SWIDTH 960 0
DWIDTH 10 0
BBX 10 10 0 -2
BITMAP
8000
8000
8000
af00
aa80
ca80
aa80
aa80
0000
0000
ENDCHAR
STARTCHAR K+2731
ENCODING 10033
SWIDTH 960 0
DWIDTH 10 0
BBX 10 10 0 -2
BITMAP
00c0
0040
0080
f7c0
aa80
aa80
aa80
aa80
0000
0000
ENDCHAR
STARTCHAR K+2732
ENCODING 10034
SWIDTH 960 0
DWIDTH 10 0
BBX 10 10 0 -2
BITMAP
00c0
0040
0080
6fc0
8a80
8a80
8a80
6a80
0000
0000
ENDCHAR
STARTCHAR K+2733
ENCODING 10035
SWIDTH 960 0
DWIDTH 10 0
BBX 10 10 0 -2
BITMAP
0180
0080
0100
7980
5400
5400
5400
5400
0000
0000
ENDCHAR
STARTCHAR K+2734
ENCODING 10036
SWIDTH 960 0
DWIDTH 10 0
BBX 10 10 0 -2
BITMAP
80c0
8040
8080
afc0
aa80
ca80
aa80
aa80
0000
0000
ENDCHAR
STARTCHAR K+2735
ENCODING 10037
SWIDTH 960 0
DWIDTH 10 0
BBX 10 10 0 -2
BITMAP
4000
4000
4600
6100
5300
5500
5500
5380
0000
0000
ENDCHAR
STARTCHAR K+2736
ENCODING 10038
SWIDTH 960 0
DWIDTH 10 0
BBX 10 10 0 -2
BITMAP
0000
0000
0000
49c0
4a80
5100
9380
e480
8300
0000
ENDCHAR
STARTCHAR K+2737
ENCODING 10039
SWIDTH 960 0
DWIDTH 10 0
BBX 10 10 0 -2
BITMAP
0000
0000
0000
f1c0
aa80
a900
ab80
ac80
0300
0000
ENDCHAR
STARTCHAR K+2738
ENCODING 10040
SWIDTH 960 0
DWIDTH 10 0
BBX 10 10 0 -2
BITMAP
4000
4000
4000
5380
5500
6200
5700
5480
0300
0000
ENDCHAR
STARTCHAR K+2739
ENCODING 10041
SWIDTH 960 0
DWIDTH 10 0
BBX 10 10 0 -2
BITMAP
4000
4200
4200
5700
5200
6200
5200
5180
0000
0000
ENDCHAR
STARTCHAR K+273A
ENCODING 10042
SWIDTH 960 0
DWIDTH 10 0
BBX 10 10 0 -2
BITMAP
0080
0080
0080
6c80
8280
8e80
8a80
6e80
0000
0000
ENDCHAR
STARTCHAR K+273B
ENCODING 10043
SWIDTH 960 0
DWIDTH 10 0
BBX 10 10 0 -2
BITMAP
8080
8080
8080
aa80
b180
d380
b580
ab80
0000
0000
ENDCHAR
STARTCHAR K+273C
ENCODING 10044
SWIDTH 960 0
DWIDTH 10 0
BBX 10 10 0 -2
BITMAP
1600
1500
1500
7600
9500
9500
9500
7600
0000
0000
ENDCHAR
STARTCHAR K+273D
ENCODING 10045
SWIDTH 960 0
DWIDTH 10 0
BBX 10 10 0 -2
BITMAP
0000
0400
0400
f580
b600
b500
b880
bb00
0800
0000
ENDCHAR
STARTCHAR K+273E
ENCODING 10046
SWIDTH 960 0
DWIDTH 10 0
BBX 10 10 0 -2
BITMAP
00c0
0440
0480
f5c0
b600
b500
b880
bb00
0800
0000
ENDCHAR
STARTCHAR K+273F
ENCODING 10047
SWIDTH 960 0
DWIDTH 10 0
BBX 10 10 0 -2
BITMAP
0000
0000
0000
7180
4a00
4900
4880
7300
4000
0000
ENDCHAR
STARTCHAR K+2740
ENCODING 10048
SWIDTH 960 0
DWIDTH 10 0
BBX 10 10 0 -2
BITMAP
0000
0000
0000
6380
5400
5300
5080
5700
0000
0000
ENDCHAR
STARTCHAR K+2741
ENCODING 10049
SWIDTH 960 0
DWIDTH 10 0
BBX 10 10 0 -2
BITMAP
0000
0000
0000
4980
4a00
5100
9080
e700
8000
0000
ENDCHAR
STARTCHAR K+2742
ENCODING 10050
SWIDTH 960 0
DWIDTH 10 0
BBX 10 10 0 -2
BITMAP
0000
0000
0000
f180
aa00
a900
a880
ab00
0000
0000
ENDCHAR
STARTCHAR K+2743
ENCODING 10051
SWIDTH 960 0
DWIDTH 10 0
BBX 10 10 0 -2
BITMAP
0880
0880
0880
6500
5500
5500
5200
6200
4000
0000
ENDCHAR
STARTCHAR K+2744
ENCODING 10052
SWIDTH 960 0
DWIDTH 10 0
BBX 10 10 0 -2
BITMAP
0880
0880
0880
6500
5500
5500
5200
5200
0000
0000
ENDCHAR
STARTCHAR K+2745
ENCODING 10053
SWIDTH 960 0
DWIDTH 10 0
BBX 10 10 0 -2
BITMAP
0880
0880
0500
4d00
4d00
5200
9200
e200
8000
0000
ENDCHAR
STARTCHAR K+2746
ENCODING 10054
SWIDTH 960 0
DWIDTH 10 0
BBX 10 10 0 -2
BITMAP
0880
0880
0500
f500
ad00
aa00
aa00
aa00
0000
0000
ENDCHAR
STARTCHAR K+2747
ENCODING 10055
SWIDTH 960 0
DWIDTH 10 0
BBX 10 10 0 -2
BITMAP
4880
4880
4500
5500
5500
6200
5200
5200
0000
0000
ENDCHAR
STARTCHAR K+2748
ENCODING 10056
SWIDTH 960 0
DWIDTH 10 0
BBX 10 10 0 -2
BITMAP
a880
a880
e500
e500
e500
a200
a200
a200
0000
0000
ENDCHAR
STARTCHAR K+2749
ENCODING 10057
SWIDTH 960 0
DWIDTH 10 0
BBX 10 10 0 -2
BITMAP
0100
0100
0300
7280
4a80
4b80
4c40
7440
4000
0000
ENDCHAR
STARTCHAR K+274A
ENCODING 10058
SWIDTH 960 0
DWIDTH 10 0
BBX 10 10 0 -2
BITMAP
0200
0200
0600
f500
ad00
af00
a880
a880
0000
0000
ENDCHAR
STARTCHAR K+274B
ENCODING 10059
SWIDTH 960 0
DWIDTH 10 0
BBX 10 10 0 -2
BITMAP
0100
0100
0180
4a80
4a80
53c0
9440
e440
8000
0000
ENDCHAR
STARTCHAR K+274C
ENCODING 10060
SWIDTH 960 0
DWIDTH 10 0
BBX 10 10 0 -2
BITMAP
0200
0200
0600
c500
a500
af00
a880
a880
0000
0000
ENDCHAR
STARTCHAR K+274D
ENCODING 10061
SWIDTH 960 0
DWIDTH 10 0
BBX 10 10 0 -2
BITMAP
8200
8200
8300
a500
a500
c780
a880
a880
0000
0000
ENDCHAR
STARTCHAR K+274E
ENCODING 10062
SWIDTH 960 0
DWIDTH 10 0
BBX 10 10 0 -2
BITMAP
0a80
0a80
0a80
ea80
9780
9700
9500
e500
8000
0000
ENDCHAR
STARTCHAR K+274F
ENCODING 10063
SWIDTH 960 0
DWIDTH 10 0
BBX 10 10 0 -2
BITMAP
0a80
0a80
0a80
ca80
a780
a700
a500
a500
0000
0000
ENDCHAR
STARTCHAR K+2750
ENCODING 10064
SWIDTH 960 0
DWIDTH 10 0
BBX 10 10 0 -2
BITMAP
0a80
0a80
0a80
4a80
5780
5700
9500
e500
8000
0000
ENDCHAR
STARTCHAR K+2751
ENCODING 10065
SWIDTH 960 0
DWIDTH 10 0
BBX 10 10 0 -2
BITMAP
0a80
0a80
0a80
fa80
af80
af00
ad00
ad00
0000
0000
ENDCHAR
STARTCHAR K+2752
ENCODING 10066
SWIDTH 960 0
DWIDTH 10 0
BBX 10 10 0 -2
BITMAP
8a80
8a80
8a80
aa80
af80
c700
a500
a500
0000
0000
ENDCHAR
STARTCHAR K+2753
ENCODING 10067
SWIDTH 960 0
DWIDTH 10 0
BBX 10 10 0 -2
BITMAP
aa80
aa80
ea80
ea80
ef80
a700
a500
a500
0000
0000
ENDCHAR
STARTCHAR K+2754
ENCODING 10068
SWIDTH 960 0
DWIDTH 10 0
BBX 10 10 0 -2
BITMAP
9000
9000
9000
f780
9100
9200
9400
9780
0000
0000
ENDCHAR
STARTCHAR K+2755
ENCODING 10069
SWIDTH 960 0
DWIDTH 10 0
BBX 10 10 0 -2
BITMAP
9400
9400
9400
bf80
b480
d500
b600
b780
0000
0000
ENDCHAR
STARTCHAR K+2756
ENCODING 10070
SWIDTH 960 0
DWIDTH 10 0
BBX 10 10 0 -2
BITMAP
aa00
aa00
ea00
ef80
ea80
ea80
ab00
ab80
0000
0000
ENDCHAR
STARTCHAR K+2757
ENCODING 10071
SWIDTH 960 0
DWIDTH 10 0
BBX 10 10 0 -2
BITMAP
6a00
aa00
8a00
ef80
aa80
aa80
ab00
6b80
0000
0000
ENDCHAR
STARTCHAR K+2758
ENCODING 10072
SWIDTH 960 0
DWIDTH 10 0
BBX 10 10 0 -2
BITMAP
f400
5400
5400
5f80
5480
5500
5600
5780
0000
0000
ENDCHAR
STARTCHAR K+2759
ENCODING 10073
SWIDTH 960 0
DWIDTH 10 0
BBX 10 10 0 -2
BITMAP
1c00
2200
4100
4100
4100
2200
9480
f780
0000
0000
ENDCHAR
STARTCHAR K+275A
ENCODING 10074
SWIDTH 960 0
DWIDTH 10 0
BBX 10 10 0 -2
BITMAP
8700
8880
8880
a880
a880
c500
a500
ad80
0000
0000
ENDCHAR
STARTCHAR K+275B
ENCODING 10075
SWIDTH 960 0
DWIDTH 10 0
BBX 10 10 0 -2
BITMAP
a700
a880
e880
e880
e880
a500
a500
ad80
0000
0000
ENDCHAR
STARTCHAR K+275C
ENCODING 10076
SWIDTH 960 0
DWIDTH 10 0
BBX 10 10 0 -2
BITMAP
0780
0400
0400
6700
5400
5400
5400
6400
4000
0000
ENDCHAR
STARTCHAR K+275D
ENCODING 10077
SWIDTH 960 0
DWIDTH 10 0
BBX 10 10 0 -2
BITMAP
0780
0400
0400
6700
5400
5400
5400
5400
0000
0000
ENDCHAR
STARTCHAR K+275E
ENCODING 10078
SWIDTH 960 0
DWIDTH 10 0
BBX 10 10 0 -2
BITMAP
0380
0200
0200
4b80
4a00
5200
9200
e200
8000
0000
ENDCHAR
STARTCHAR K+275F
ENCODING 10079
SWIDTH 960 0
DWIDTH 10 0
BBX 10 10 0 -2
BITMAP
0080
0080
0080
f280
ad80
ad80
ad80
aa80
0000
0000
ENDCHAR
STARTCHAR K+2760
ENCODING 10080
SWIDTH 960 0
DWIDTH 10 0
BBX 10 10 0 -2
BITMAP
0100
0100
0100
7300
8500
8500
8500
7300
0000
0000
ENDCHAR
STARTCHAR K+2761
ENCODING 10081
SWIDTH 960 0
DWIDTH 10 0
BBX 10 10 0 -2
BITMAP
0080
0080
0880
a580
ce80
9680
9680
8d80
0000
0000
ENDCHAR
STARTCHAR K+2762
ENCODING 10082
SWIDTH 960 0
DWIDTH 10 0
BBX 10 10 0 -2
BITMAP
0200
de00
aa00
9e80
0300
0d00
3200
c100
0300
0000
ENDCHAR
STARTCHAR K+2763
ENCODING 10083
SWIDTH 960 0
DWIDTH 10 0
BBX 10 10 0 -2
BITMAP
0200
de00
aa00
9ec0
03c0
0d80
32c0
c100
0300
0000
ENDCHAR
STARTCHAR K+2764
ENCODING 10084
SWIDTH 960 0
DWIDTH 10 0
BBX 10 10 0 -2
BITMAP
0000
0000
0000
3a80
4300
3200
0a00
7200
0000
0000
ENDCHAR
STARTCHAR K+2765
ENCODING 10085
SWIDTH 960 0
DWIDTH 10 0
BBX 10 10 0 -2
BITMAP
0000
7000
4800
4b00
4880
7380
4480
4380
0000
0000
ENDCHAR
STARTCHAR K+2766
ENCODING 10086
SWIDTH 960 0
DWIDTH 10 0
BBX 10 10 0 -2
BITMAP
8000
8c00
8a00
ab00
ac80
c980
aa80
ab80
0000
0000
ENDCHAR
STARTCHAR K+2767
ENCODING 10087
SWIDTH 960 0
DWIDTH 10 0
BBX 10 10 0 -2
BITMAP
a000
ac00
ea00
eb80
ec80
eb80
aa80
a980
0000
0000
ENDCHAR
STARTCHAR K+2768
ENCODING 10088
SWIDTH 960 0
DWIDTH 10 0
BBX 10 10 0 -2
BITMAP
4000
ac00
8a00
8b80
ec80
ab80
aa80
6980
0000
0000
ENDCHAR
STARTCHAR K+2769
ENCODING 10089
SWIDTH 960 0
DWIDTH 10 0
BBX 10 10 0 -2
BITMAP
0000
8a00
aa00
ab00
fa80
7280
5280
5300
0000
0000
ENDCHAR
STARTCHAR K+276A
ENCODING 10090
SWIDTH 960 0
DWIDTH 10 0
BBX 10 10 0 -2
BITMAP
0000
4000
4000
5e00
5500
5500
5500
5500
0000
0000
ENDCHAR
STARTCHAR K+276B
ENCODING 10091
SWIDTH 960 0
DWIDTH 10 0
BBX 10 10 0 -2
BITMAP
0000
4000
4000
5100
4a00
4400
4a00
5100
0000
0000
ENDCHAR
STARTCHAR K+276C
ENCODING 10092
SWIDTH 960 0
DWIDTH 10 0
BBX 10 10 0 -2
BITMAP
e000
9000
9000
e300
9500
9500
9500
e300
0100
0000
ENDCHAR
STARTCHAR K+276D
ENCODING 10093
SWIDTH 960 0
DWIDTH 10 0
BBX 10 10 0 -2
BITMAP
7000
9000
9000
8480
b480
9300
9300
7200
0400
0000
ENDCHAR
STARTCHAR K+276E
ENCODING 10094
SWIDTH 960 0
DWIDTH 10 0
BBX 10 10 0 -2
BITMAP
7000
8000
8000
4500
2500
1500
1500
e200
0000
0000
ENDCHAR
STARTCHAR K+276F
ENCODING 10095
SWIDTH 960 0
DWIDTH 10 0
BBX 10 10 0 -2
BITMAP
0000
4800
8800
9000
5800
2a00
2d80
4b80
8a80
0180
ENDCHAR
STARTCHAR K+2821
ENCODING 10273
SWIDTH 960 0
DWIDTH 10 0
BBX 10 10 0 -2
BITMAP
0f80
1880
1a00
2e00
3a00
4800
4880
ef80
0000
0000
ENDCHAR
STARTCHAR K+2822
ENCODING 10274
SWIDTH 960 0
DWIDTH 10 0
BBX 10 10 0 -2
BITMAP
7c00
2200
2100
f900
2100
2100
2200
7c00
0000
0000
ENDCHAR
STARTCHAR K+2823
ENCODING 10275
SWIDTH 960 0
DWIDTH 10 0
BBX 10 10 0 -2
BITMAP
0000
1800
0400
1c00
2400
1a00
0000
3e00
0000
0000
ENDCHAR
STARTCHAR K+2824
ENCODING 10276
SWIDTH 960 0
DWIDTH 10 0
BBX 10 10 0 -2
BITMAP
7700
2200
ff80
2200
3e00
2200
2200
7700
0000
0000
ENDCHAR
STARTCHAR K+2826
ENCODING 10278
SWIDTH 960 0
DWIDTH 10 0
BBX 10 10 0 -2
BITMAP
e700
4200
4200
4200
4200
4200
4a00
e400
0000
0000
ENDCHAR
STARTCHAR K+2828
ENCODING 10280
SWIDTH 960 0
DWIDTH 10 0
BBX 10 10 0 -2
BITMAP
7000
2000
2000
2600
2000
2000
2100
7f00
0000
0000
ENDCHAR
STARTCHAR K+2829
ENCODING 10281
SWIDTH 960 0
DWIDTH 10 0
BBX 10 10 0 -2
BITMAP
7000
2200
2c00
3000
e000
2000
2100
7f00
0000
0000
ENDCHAR
STARTCHAR K+282A
ENCODING 10282
SWIDTH 960 0
DWIDTH 10 0
BBX 10 10 0 -2
BITMAP
1c80
2300
4300
4500
4900
5100
2200
5c00
8000
0000
ENDCHAR
STARTCHAR K+282B
ENCODING 10283
SWIDTH 960 0
DWIDTH 10 0
BBX 10 10 0 -2
BITMAP
3780
4880
8900
8f00
8900
8800
4880
3780
0000
0000
ENDCHAR
STARTCHAR K+282C
ENCODING 10284
SWIDTH 960 0
DWIDTH 10 0
BBX 10 10 0 -2
BITMAP
3000
4800
4800
3000
0000
7800
0000
0000
0000
0000
ENDCHAR
STARTCHAR K+282D
ENCODING 10285
SWIDTH 960 0
DWIDTH 10 0
BBX 10 10 0 -2
BITMAP
0000
3800
1000
1c00
1200
1200
1c00
1000
3800
0000
ENDCHAR
STARTCHAR K+282E
ENCODING 10286
SWIDTH 960 0
DWIDTH 10 0
BBX 10 10 0 -2
BITMAP
0000
7f00
4900
0800
3e00
0800
0800
1c00
0000
0000
ENDCHAR
STARTCHAR K+282F
ENCODING 10287
SWIDTH 960 0
DWIDTH 10 0
BBX 10 10 0 -2
BITMAP
0000
7700
2200
3200
2a00
2600
7200
0200
2200
1c00
ENDCHAR
STARTCHAR K+2831
ENCODING 10289
SWIDTH 960 0
DWIDTH 10 0
BBX 10 10 0 -2
BITMAP
0000
3e00
4100
be80
8280
8280
8280
8080
4100
3e00
ENDCHAR
STARTCHAR K+2832
ENCODING 10290
SWIDTH 960 0
DWIDTH 10 0
BBX 10 10 0 -2
BITMAP
0000
3e00
4100
a080
a080
a080
be80
8080
4100
3e00
ENDCHAR
STARTCHAR K+2833
ENCODING 10291
SWIDTH 960 0
DWIDTH 10 0
BBX 10 10 0 -2
BITMAP
0000
3e00
4100
be80
a080
a080
be80
8080
4100
3e00
ENDCHAR
STARTCHAR K+2834
ENCODING 10292
SWIDTH 960 0
DWIDTH 10 0
BBX 10 10 0 -2
BITMAP
0000
3e00
4100
be80
8280
be80
a080
be80
4100
3e00
ENDCHAR
STARTCHAR K+2835
ENCODING 10293
SWIDTH 960 0
DWIDTH 10 0
BBX 10 10 0 -2
BITMAP
0000
3e00
4100
be80
a280
a280
be80
8080
4100
3e00
ENDCHAR
STARTCHAR K+2836
ENCODING 10294
SWIDTH 960 0
DWIDTH 10 0
BBX 10 10 0 -2
BITMAP
0000
3e00
4100
a280
be80
a280
be80
8080
4100
3e00
ENDCHAR
STARTCHAR K+2837
ENCODING 10295
SWIDTH 960 0
DWIDTH 10 0
BBX 10 10 0 -2
BITMAP
0000
3e00
4100
8880
8880
9480
a280
8080
4100
3e00
ENDCHAR
STARTCHAR K+2838
ENCODING 10296
SWIDTH 960 0
DWIDTH 10 0
BBX 10 10 0 -2
BITMAP
0000
3e00
4100
9c80
a280
a280
9c80
8080
4100
3e00
ENDCHAR
STARTCHAR K+2839
ENCODING 10297
SWIDTH 960 0
DWIDTH 10 0
BBX 10 10 0 -2
BITMAP
0000
3e00
4100
be80
8880
8880
b680
8080
4100
3e00
ENDCHAR
STARTCHAR K+283A
ENCODING 10298
SWIDTH 960 0
DWIDTH 10 0
BBX 10 10 0 -2
BITMAP
0000
3e00
4100
8880
be80
9480
a280
8080
4100
3e00
ENDCHAR
STARTCHAR K+283B
ENCODING 10299
SWIDTH 960 0
DWIDTH 10 0
BBX 10 10 0 -2
BITMAP
0000
3e00
4100
be80
8280
be80
8280
8080
4100
3e00
ENDCHAR
STARTCHAR K+283C
ENCODING 10300
SWIDTH 960 0
DWIDTH 10 0
BBX 10 10 0 -2
BITMAP
0000
3e00
4100
be80
a080
be80
a080
be80
4100
3e00
ENDCHAR
STARTCHAR K+283D
ENCODING 10301
SWIDTH 960 0
DWIDTH 10 0
BBX 10 10 0 -2
BITMAP
0000
3e00
4100
be80
9480
9480
be80
8080
4100
3e00
ENDCHAR
STARTCHAR K+283E
ENCODING 10302
SWIDTH 960 0
DWIDTH 10 0
BBX 10 10 0 -2
BITMAP
0000
3e00
4900
be80
9480
a280
a280
9c80
4100
3e00
ENDCHAR
STARTCHAR K+283F
ENCODING 10303
SWIDTH 960 0
DWIDTH 10 0
BBX 10 10 0 -2
BITMAP
0000
3e00
4100
ba80
8a80
8b80
9280
a280
4100
3e00
ENDCHAR
STARTCHAR K+2840
ENCODING 10304
SWIDTH 960 0
DWIDTH 10 0
BBX 10 10 0 -2
BITMAP
0000
3e00
4100
a280
a280
a380
be80
8280
4100
3e00
ENDCHAR
STARTCHAR K+2841
ENCODING 10305
SWIDTH 960 0
DWIDTH 10 0
BBX 10 10 0 -2
BITMAP
0000
3e00
4100
ba80
a280
a380
a280
ba80
4100
3e00
ENDCHAR
STARTCHAR K+2842
ENCODING 10306
SWIDTH 960 0
DWIDTH 10 0
BBX 10 10 0 -2
BITMAP
0000
3e00
4100
ba80
8a80
bb80
a280
ba80
4100
3e00
ENDCHAR
STARTCHAR K+2843
ENCODING 10307
SWIDTH 960 0
DWIDTH 10 0
BBX 10 10 0 -2
BITMAP
0000
3e00
4100
ba80
aa80
ab80
aa80
ba80
4100
3e00
ENDCHAR
STARTCHAR K+2844
ENCODING 10308
SWIDTH 960 0
DWIDTH 10 0
BBX 10 10 0 -2
BITMAP
0000
3e00
4100
aa80
ba80
ab80
aa80
ba80
4100
3e00
ENDCHAR
STARTCHAR K+2845
ENCODING 10309
SWIDTH 960 0
DWIDTH 10 0
BBX 10 10 0 -2
BITMAP
0000
3e00
4100
9280
9280
ab80
aa80
aa80
4100
3e00
ENDCHAR
STARTCHAR K+2846
ENCODING 10310
SWIDTH 960 0
DWIDTH 10 0
BBX 10 10 0 -2
BITMAP
0000
3e00
4100
9280
aa80
ab80
aa80
9280
4100
3e00
ENDCHAR
STARTCHAR K+2847
ENCODING 10311
SWIDTH 960 0
DWIDTH 10 0
BBX 10 10 0 -2
BITMAP
0000
3e00
4100
ba80
9280
9380
aa80
aa80
4100
3e00
ENDCHAR
STARTCHAR K+2848
ENCODING 10312
SWIDTH 960 0
DWIDTH 10 0
BBX 10 10 0 -2
BITMAP
0000
3e00
4100
9280
ba80
9380
aa80
aa80
4100
3e00
ENDCHAR
STARTCHAR K+2849
ENCODING 10313
SWIDTH 960 0
DWIDTH 10 0
BBX 10 10 0 -2
BITMAP
0000
3e00
4100
ba80
8a80
bb80
8a80
b280
4100
3e00
ENDCHAR
STARTCHAR K+284A
ENCODING 10314
SWIDTH 960 0
DWIDTH 10 0
BBX 10 10 0 -2
BITMAP
0000
3e00
4100
ba80
a280
bb80
a280
ba80
4100
3e00
ENDCHAR
STARTCHAR K+284B
ENCODING 10315
SWIDTH 960 0
DWIDTH 10 0
BBX 10 10 0 -2
BITMAP
0000
3e00
4100
ba80
8280
ab80
fe80
8280
4100
3e00
ENDCHAR
STARTCHAR K+284C
ENCODING 10316
SWIDTH 960 0
DWIDTH 10 0
BBX 10 10 0 -2
BITMAP
0000
3e00
4100
9280
ba80
9380
aa80
9280
4100
3e00
ENDCHAR
STARTCHAR K+284D
ENCODING 10317
SWIDTH 960 0
DWIDTH 10 0
BBX 10 10 0 -2
BITMAP
0000
3e00
4100
9880
8480
9c80
a480
9c80
4100
3e00
ENDCHAR
STARTCHAR K+284E
ENCODING 10318
SWIDTH 960 0
DWIDTH 10 0
BBX 10 10 0 -2
BITMAP
0000
3e00
4100
9080
9080
9c80
9280
9c80
4100
3e00
ENDCHAR
STARTCHAR K+284F
ENCODING 10319
SWIDTH 960 0
DWIDTH 10 0
BBX 10 10 0 -2
BITMAP
0000
3e00
4100
8080
9c80
a080
a080
9c80
4100
3e00
ENDCHAR
STARTCHAR K+2850
ENCODING 10320
SWIDTH 960 0
DWIDTH 10 0
BBX 10 10 0 -2
BITMAP
0000
3e00
4100
8480
8480
9c80
a480
9c80
4100
3e00
ENDCHAR
STARTCHAR K+2851
ENCODING 10321
SWIDTH 960 0
DWIDTH 10 0
BBX 10 10 0 -2
BITMAP
0000
3e00
4100
9880
a480
b880
a080
9c80
4100
3e00
ENDCHAR
STARTCHAR K+2852
ENCODING 10322
SWIDTH 960 0
DWIDTH 10 0
BBX 10 10 0 -2
BITMAP
0000
3e00
4100
8c80
9080
bc80
9080
9080
4100
3e00
ENDCHAR
STARTCHAR K+2853
ENCODING 10323
SWIDTH 960 0
DWIDTH 10 0
BBX 10 10 0 -2
BITMAP
0000
3e00
4100
8c80
9480
9880
a480
9880
4100
3e00
ENDCHAR
STARTCHAR K+2854
ENCODING 10324
SWIDTH 960 0
DWIDTH 10 0
BBX 10 10 0 -2
BITMAP
0000
3e00
4100
9080
9080
9880
9480
9480
4100
3e00
ENDCHAR
STARTCHAR K+2855
ENCODING 10325
SWIDTH 960 0
DWIDTH 10 0
BBX 10 10 0 -2
BITMAP
0000
3e00
4100
8880
8080
8880
8880
8880
4100
3e00
ENDCHAR
STARTCHAR K+2856
ENCODING 10326
SWIDTH 960 0
DWIDTH 10 0
BBX 10 10 0 -2
BITMAP
0000
3e00
4100
8480
8080
8480
9480
8880
4100
3e00
ENDCHAR
STARTCHAR K+2857
ENCODING 10327
SWIDTH 960 0
DWIDTH 10 0
BBX 10 10 0 -2
BITMAP
0000
3e00
4100
9080
9080
9480
9880
9480
4100
3e00
ENDCHAR
STARTCHAR K+2858
ENCODING 10328
SWIDTH 960 0
DWIDTH 10 0
BBX 10 10 0 -2
BITMAP
0000
3e00
4100
9080
9080
9080
9080
9080
4100
3e00
ENDCHAR
STARTCHAR K+2859
ENCODING 10329
SWIDTH 960 0
DWIDTH 10 0
BBX 10 10 0 -2
BITMAP
0000
3e00
4100
8080
bc80
aa80
aa80
aa80
4100
3e00
ENDCHAR
STARTCHAR K+285A
ENCODING 10330
SWIDTH 960 0
DWIDTH 10 0
BBX 10 10 0 -2
BITMAP
0000
3e00
4100
8080
b880
a480
a480
a480
4100
3e00
ENDCHAR
STARTCHAR K+285B
ENCODING 10331
SWIDTH 960 0
DWIDTH 10 0
BBX 10 10 0 -2
BITMAP
0000
3e00
4100
8080
9880
a480
a480
9880
4100
3e00
ENDCHAR
STARTCHAR K+285C
ENCODING 10332
SWIDTH 960 0
DWIDTH 10 0
BBX 10 10 0 -2
BITMAP
0000
3e00
4100
8080
9c80
9280
9c80
9080
4100
3e00
ENDCHAR
STARTCHAR K+285D
ENCODING 10333
SWIDTH 960 0
DWIDTH 10 0
BBX 10 10 0 -2
BITMAP
0000
3e00
4100
8080
9c80
a480
9c80
8480
4100
3e00
ENDCHAR
STARTCHAR K+285E
ENCODING 10334
SWIDTH 960 0
DWIDTH 10 0
BBX 10 10 0 -2
BITMAP
0000
3e00
4100
8080
9680
9880
9080
9080
4100
3e00
ENDCHAR
STARTCHAR K+285F
ENCODING 10335
SWIDTH 960 0
DWIDTH 10 0
BBX 10 10 0 -2
BITMAP
0000
3e00
4100
9c80
a080
9880
8480
b880
4100
3e00
ENDCHAR
STARTCHAR K+2860
ENCODING 10336
SWIDTH 960 0
DWIDTH 10 0
BBX 10 10 0 -2
BITMAP
0000
3e00
4100
9080
bc80
9080
9080
8c80
4100
3e00
ENDCHAR
STARTCHAR K+2861
ENCODING 10337
SWIDTH 960 0
DWIDTH 10 0
BBX 10 10 0 -2
BITMAP
0000
3e00
4100
8080
a480
a480
a480
9880
4100
3e00
ENDCHAR
STARTCHAR K+2862
ENCODING 10338
SWIDTH 960 0
DWIDTH 10 0
BBX 10 10 0 -2
BITMAP
0000
3e00
4100
8080
a280
9480
9480
8880
4100
3e00
ENDCHAR
STARTCHAR K+2863
ENCODING 10339
SWIDTH 960 0
DWIDTH 10 0
BBX 10 10 0 -2
BITMAP
0000
3e00
4100
8080
aa80
aa80
aa80
9480
4100
3e00
ENDCHAR
STARTCHAR K+2864
ENCODING 10340
SWIDTH 960 0
DWIDTH 10 0
BBX 10 10 0 -2
BITMAP
0000
3e00
4100
8080
9480
8880
8880
9480
4100
3e00
ENDCHAR
STARTCHAR K+2865
ENCODING 10341
SWIDTH 960 0
DWIDTH 10 0
BBX 10 10 0 -2
BITMAP
0000
3e00
4100
8080
9480
9480
8880
9080
4100
3e00
ENDCHAR
STARTCHAR K+2866
ENCODING 10342
SWIDTH 960 0
DWIDTH 10 0
BBX 10 10 0 -2
BITMAP
0000
3e00
4100
8080
bc80
8880
9080
bc80
4100
3e00
ENDCHAR
STARTCHAR K+2867
ENCODING 10343
SWIDTH 960 0
DWIDTH 10 0
BBX 10 10 0 -2
BITMAP
0000
3e00
4100
8480
9c80
8480
8480
8480
4100
3e00
ENDCHAR
STARTCHAR K+2868
ENCODING 10344
SWIDTH 960 0
DWIDTH 10 0
BBX 10 10 0 -2
BITMAP
0000
3e00
4100
9c80
8280
8c80
9080
9e80
4100
3e00
ENDCHAR
STARTCHAR K+2869
ENCODING 10345
SWIDTH 960 0
DWIDTH 10 0
BBX 10 10 0 -2
BITMAP
0000
3e00
4100
9c80
8280
8c80
8280
9c80
4100
3e00
ENDCHAR
STARTCHAR K+286A
ENCODING 10346
SWIDTH 960 0
DWIDTH 10 0
BBX 10 10 0 -2
BITMAP
0000
3e00
4100
8480
8c80
9480
9e80
8480
4100
3e00
ENDCHAR
STARTCHAR K+286B
ENCODING 10347
SWIDTH 960 0
DWIDTH 10 0
BBX 10 10 0 -2
BITMAP
0000
3e00
4100
9c80
9080
9880
8480
9880
4100
3e00
ENDCHAR
STARTCHAR K+286C
ENCODING 10348
SWIDTH 960 0
DWIDTH 10 0
BBX 10 10 0 -2
BITMAP
0000
3e00
4100
8c80
9080
9c80
9280
8c80
4100
3e00
ENDCHAR
STARTCHAR K+286D
ENCODING 10349
SWIDTH 960 0
DWIDTH 10 0
BBX 10 10 0 -2
BITMAP
0000
3e00
4100
9c80
8480
8880
8880
8880
4100
3e00
ENDCHAR
STARTCHAR K+286E
ENCODING 10350
SWIDTH 960 0
DWIDTH 10 0
BBX 10 10 0 -2
BITMAP
0000
3e00
4100
8c80
9280
8c80
9280
8c80
4100
3e00
ENDCHAR
STARTCHAR K+286F
ENCODING 10351
SWIDTH 960 0
DWIDTH 10 0
BBX 10 10 0 -2
BITMAP
0000
3e00
4100
8c80
9280
8e80
8280
9c80
4100
3e00
ENDCHAR
STARTCHAR K+2870
ENCODING 10352
SWIDTH 960 0
DWIDTH 10 0
BBX 10 10 0 -2
BITMAP
0000
3e00
4100
a480
aa80
aa80
aa80
a480
4100
3e00
ENDCHAR
STARTCHAR K+2871
ENCODING 10353
SWIDTH 960 0
DWIDTH 10 0
BBX 10 10 0 -2
BITMAP
0000
3e00
4100
9280
b680
9280
9280
9280
4100
3e00
ENDCHAR
STARTCHAR K+2872
ENCODING 10354
SWIDTH 960 0
DWIDTH 10 0
BBX 10 10 0 -2
BITMAP
0000
3e00
4100
ac80
a280
ac80
a880
ae80
4100
3e00
ENDCHAR
STARTCHAR K+2873
ENCODING 10355
SWIDTH 960 0
DWIDTH 10 0
BBX 10 10 0 -2
BITMAP
0000
3e00
4100
ac80
a280
ac80
a280
ac80
4100
3e00
ENDCHAR
STARTCHAR K+2874
ENCODING 10356
SWIDTH 960 0
DWIDTH 10 0
BBX 10 10 0 -2
BITMAP
0000
3e00
4100
a280
a680
aa80
bf80
a280
4100
3e00
ENDCHAR
STARTCHAR K+2875
ENCODING 10357
SWIDTH 960 0
DWIDTH 10 0
BBX 10 10 0 -2
BITMAP
0000
3e00
4100
ae80
a880
ac80
a280
ac80
4100
3e00
ENDCHAR
STARTCHAR K+2876
ENCODING 10358
SWIDTH 960 0
DWIDTH 10 0
BBX 10 10 0 -2
BITMAP
4100
4200
4400
4800
1000
2700
4500
8200
0700
0000
ENDCHAR
STARTCHAR K+2877
ENCODING 10359
SWIDTH 960 0
DWIDTH 10 0
BBX 10 10 0 -2
BITMAP
4100
4200
4400
4800
1000
2700
4300
8100
0700
0000
ENDCHAR
STARTCHAR K+2878
ENCODING 10360
SWIDTH 960 0
DWIDTH 10 0
BBX 10 10 0 -2
BITMAP
c000
2100
4200
e400
0800
1700
2300
4100
8700
0000
ENDCHAR
STARTCHAR K+2879
ENCODING 10361
SWIDTH 960 0
DWIDTH 10 0
BBX 10 10 0 -2
BITMAP
4100
4200
4400
4800
1000
2100
4300
8700
0100
0000
ENDCHAR
STARTCHAR K+287A
ENCODING 10362
SWIDTH 960 0
DWIDTH 10 0
BBX 10 10 0 -2
BITMAP
e100
6200
2400
e800
1000
2100
4300
8700
0100
0000
ENDCHAR
STARTCHAR K+287B
ENCODING 10363
SWIDTH 960 0
DWIDTH 10 0
BBX 10 10 0 -2
BITMAP
4100
4200
4400
4800
1000
2700
4700
8500
0700
0000
ENDCHAR
STARTCHAR K+287C
ENCODING 10364
SWIDTH 960 0
DWIDTH 10 0
BBX 10 10 0 -2
BITMAP
e080
6100
2200
e400
0800
1380
2380
4280
8380
0000
ENDCHAR
STARTCHAR K+287D
ENCODING 10365
SWIDTH 960 0
DWIDTH 10 0
BBX 10 10 0 -2
BITMAP
e080
e100
a200
e400
0800
1700
2700
4500
8700
0000
ENDCHAR
STARTCHAR K+287E
ENCODING 10366
SWIDTH 960 0
DWIDTH 10 0
BBX 10 10 0 -2
BITMAP
e080
2100
4200
4400
0800
1700
2700
4500
8700
0000
ENDCHAR
STARTCHAR K+2921
ENCODING 10529
SWIDTH 960 0
DWIDTH 10 0
BBX 10 10 0 -2
BITMAP
0000
0000
0000
7600
0900
3f00
4800
3700
0000
0000
ENDCHAR
STARTCHAR K+2922
ENCODING 10530
SWIDTH 960 0
DWIDTH 10 0
BBX 10 10 0 -2
BITMAP
0200
3f00
0200
1e00
2200
2200
2200
1e00
0000
0000
ENDCHAR
STARTCHAR K+2923
ENCODING 10531
SWIDTH 960 0
DWIDTH 10 0
BBX 10 10 0 -2
BITMAP
1c00
2300
0e00
3200
1e00
2200
2200
1c00
0000
0000
ENDCHAR
STARTCHAR K+2924
ENCODING 10532
SWIDTH 960 0
DWIDTH 10 0
BBX 10 10 0 -2
BITMAP
1000
7e00
1000
1c00
1200
1200
1200
1200
0000
0000
ENDCHAR
STARTCHAR K+2925
ENCODING 10533
SWIDTH 960 0
DWIDTH 10 0
BBX 10 10 0 -2
BITMAP
0000
0000
0000
0800
0800
0800
0800
0800
0000
0000
ENDCHAR
STARTCHAR K+2926
ENCODING 10534
SWIDTH 960 0
DWIDTH 10 0
BBX 10 10 0 -2
BITMAP
0000
1200
0000
1200
1200
1200
1200
1200
0400
0000
ENDCHAR
STARTCHAR K+2927
ENCODING 10535
SWIDTH 960 0
DWIDTH 10 0
BBX 10 10 0 -2
BITMAP
1000
1000
1000
1200
1400
1800
1400
1200
0000
0000
ENDCHAR
STARTCHAR K+2928
ENCODING 10536
SWIDTH 960 0
DWIDTH 10 0
BBX 10 10 0 -2
BITMAP
1000
1000
1000
1200
1200
1100
1000
1000
0000
0000
ENDCHAR
STARTCHAR K+2929
ENCODING 10537
SWIDTH 960 0
DWIDTH 10 0
BBX 10 10 0 -2
BITMAP
0800
0a00
0c00
0800
1800
2800
0800
0800
0000
0000
ENDCHAR
STARTCHAR K+292A
ENCODING 10538
SWIDTH 960 0
DWIDTH 10 0
BBX 10 10 0 -2
BITMAP
0000
0000
1c00
2300
2600
3a00
6200
1c00
0000
0000
ENDCHAR
STARTCHAR K+292B
ENCODING 10539
SWIDTH 960 0
DWIDTH 10 0
BBX 10 10 0 -2
BITMAP
0000
0000
0000
3600
4900
4f00
4800
3700
0000
0000
ENDCHAR
STARTCHAR K+292C
ENCODING 10540
SWIDTH 960 0
DWIDTH 10 0
BBX 10 10 0 -2
BITMAP
1c00
1200
1200
1400
1200
1100
1900
1600
0000
0000
ENDCHAR
STARTCHAR K+292D
ENCODING 10541
SWIDTH 960 0
DWIDTH 10 0
BBX 10 10 0 -2
BITMAP
0000
1000
1000
1c00
1200
1200
1200
1c00
1000
0000
ENDCHAR
STARTCHAR K+292E
ENCODING 10542
SWIDTH 960 0
DWIDTH 10 0
BBX 10 10 0 -2
BITMAP
0000
1000
7c00
1000
7c00
1000
1000
0c00
0000
0000
ENDCHAR
STARTCHAR K+292F
ENCODING 10543
SWIDTH 960 0
DWIDTH 10 0
BBX 10 10 0 -2
BITMAP
0000
0000
2c00
3200
2200
2200
0200
0200
1c00
0000
ENDCHAR
STARTCHAR K+2930
ENCODING 10544
SWIDTH 960 0
DWIDTH 10 0
BBX 10 10 0 -2
BITMAP
0000
0000
0000
2e00
2900
4900
0900
0900
0000
0000
ENDCHAR
STARTCHAR K+2931
ENCODING 10545
SWIDTH 960 0
DWIDTH 10 0
BBX 10 10 0 -2
BITMAP
2200
4100
9c80
8480
8480
8480
8480
4100
2200
0000
ENDCHAR
STARTCHAR K+2932
ENCODING 10546
SWIDTH 960 0
DWIDTH 10 0
BBX 10 10 0 -2
BITMAP
2200
4100
9080
9080
9080
9080
9c80
4100
2200
0000
ENDCHAR
STARTCHAR K+2933
ENCODING 10547
SWIDTH 960 0
DWIDTH 10 0
BBX 10 10 0 -2
BITMAP
2200
4100
9c80
9080
9080
9080
9c80
4100
2200
0000
ENDCHAR
STARTCHAR K+2934
ENCODING 10548
SWIDTH 960 0
DWIDTH 10 0
BBX 10 10 0 -2
BITMAP
2200
4100
9c80
8480
9c80
9080
9c80
4100
2200
0000
ENDCHAR
STARTCHAR K+2935
ENCODING 10549
SWIDTH 960 0
DWIDTH 10 0
BBX 10 10 0 -2
BITMAP
2200
4100
9c80
9480
9480
9480
9c80
4100
2200
0000
ENDCHAR
STARTCHAR K+2936
ENCODING 10550
SWIDTH 960 0
DWIDTH 10 0
BBX 10 10 0 -2
BITMAP
2200
4100
9480
9c80
9480
9480
9c80
4100
2200
0000
ENDCHAR
STARTCHAR K+2937
ENCODING 10551
SWIDTH 960 0
DWIDTH 10 0
BBX 10 10 0 -2
BITMAP
2200
4100
8880
8880
9480
9480
9480
4100
2200
0000
ENDCHAR
STARTCHAR K+2938
ENCODING 10552
SWIDTH 960 0
DWIDTH 10 0
BBX 10 10 0 -2
BITMAP
2200
4100
8c80
9280
9280
9280
8c80
4100
2200
0000
ENDCHAR
STARTCHAR K+2939
ENCODING 10553
SWIDTH 960 0
DWIDTH 10 0
BBX 10 10 0 -2
BITMAP
2200
4100
9c80
8880
8880
9480
9480
4100
2200
0000
ENDCHAR
STARTCHAR K+293A
ENCODING 10554
SWIDTH 960 0
DWIDTH 10 0
BBX 10 10 0 -2
BITMAP
2200
5d00
8080
9c80
8880
9480
9480
4100
2200
0000
ENDCHAR
STARTCHAR K+293B
ENCODING 10555
SWIDTH 960 0
DWIDTH 10 0
BBX 10 10 0 -2
BITMAP
2200
4100
9c80
8480
9c80
8480
8480
4100
2200
0000
ENDCHAR
STARTCHAR K+293C
ENCODING 10556
SWIDTH 960 0
DWIDTH 10 0
BBX 10 10 0 -2
BITMAP
2200
4100
9c80
9080
9c80
9080
9c80
4100
2200
0000
ENDCHAR
STARTCHAR K+293D
ENCODING 10557
SWIDTH 960 0
DWIDTH 10 0
BBX 10 10 0 -2
BITMAP
2200
4100
be80
9480
9480
9480
be80
4100
2200
0000
ENDCHAR
STARTCHAR K+293E
ENCODING 10558
SWIDTH 960 0
DWIDTH 10 0
BBX 10 10 0 -2
BITMAP
2200
5d00
8080
be80
9480
a280
9c80
4100
2200
0000
ENDCHAR
STARTCHAR K+293F
ENCODING 10559
SWIDTH 960 0
DWIDTH 10 0
BBX 10 10 0 -2
BITMAP
2200
4100
ba80
8a80
8b80
9280
a280
4100
2200
0000
ENDCHAR
STARTCHAR K+2940
ENCODING 10560
SWIDTH 960 0
DWIDTH 10 0
BBX 10 10 0 -2
BITMAP
2200
4100
a280
a280
a380
a280
ba80
4100
2200
0000
ENDCHAR
STARTCHAR K+2941
ENCODING 10561
SWIDTH 960 0
DWIDTH 10 0
BBX 10 10 0 -2
BITMAP
2200
4100
ba80
a280
a380
a280
ba80
4100
2200
0000
ENDCHAR
STARTCHAR K+2942
ENCODING 10562
SWIDTH 960 0
DWIDTH 10 0
BBX 10 10 0 -2
BITMAP
2200
4100
ba80
8a80
bb80
a280
ba80
4100
2200
0000
ENDCHAR
STARTCHAR K+2943
ENCODING 10563
SWIDTH 960 0
DWIDTH 10 0
BBX 10 10 0 -2
BITMAP
2200
4100
ba80
aa80
ab80
aa80
ba80
4100
2200
0000
ENDCHAR
STARTCHAR K+2944
ENCODING 10564
SWIDTH 960 0
DWIDTH 10 0
BBX 10 10 0 -2
BITMAP
2200
4100
aa80
aa80
bb80
aa80
ba80
4100
2200
0000
ENDCHAR
STARTCHAR K+2945
ENCODING 10565
SWIDTH 960 0
DWIDTH 10 0
BBX 10 10 0 -2
BITMAP
2200
4100
9280
9280
9380
aa80
aa80
4100
2200
0000
ENDCHAR
STARTCHAR K+2946
ENCODING 10566
SWIDTH 960 0
DWIDTH 10 0
BBX 10 10 0 -2
BITMAP
2200
4100
9280
aa80
ab80
aa80
9280
4100
2200
0000
ENDCHAR
STARTCHAR K+2947
ENCODING 10567
SWIDTH 960 0
DWIDTH 10 0
BBX 10 10 0 -2
BITMAP
2200
4100
ba80
9280
9380
aa80
8280
4100
2200
0000
ENDCHAR
STARTCHAR K+2948
ENCODING 10568
SWIDTH 960 0
DWIDTH 10 0
BBX 10 10 0 -2
BITMAP
2200
4100
9280
ba80
9380
aa80
8280
4100
2200
0000
ENDCHAR
STARTCHAR K+2949
ENCODING 10569
SWIDTH 960 0
DWIDTH 10 0
BBX 10 10 0 -2
BITMAP
2200
4100
ba80
8a80
bb80
8a80
b280
4100
2200
0000
ENDCHAR
STARTCHAR K+294A
ENCODING 10570
SWIDTH 960 0
DWIDTH 10 0
BBX 10 10 0 -2
BITMAP
2200
4100
ba80
a280
bb80
a280
ba80
4100
2200
0000
ENDCHAR
STARTCHAR K+294B
ENCODING 10571
SWIDTH 960 0
DWIDTH 10 0
BBX 10 10 0 -2
BITMAP
2200
4100
fe80
aa80
ab80
fe80
8280
4100
2200
0000
ENDCHAR
STARTCHAR K+294C
ENCODING 10572
SWIDTH 960 0
DWIDTH 10 0
BBX 10 10 0 -2
BITMAP
2200
4100
9280
ba80
9380
aa80
9280
4100
2200
0000
ENDCHAR
STARTCHAR K+294D
ENCODING 10573
SWIDTH 960 0
DWIDTH 10 0
BBX 10 10 0 -2
BITMAP
2200
4100
9880
8480
8c80
9480
8e80
4100
2200
0000
ENDCHAR
STARTCHAR K+294E
ENCODING 10574
SWIDTH 960 0
DWIDTH 10 0
BBX 10 10 0 -2
BITMAP
2200
5100
9080
9880
9480
9480
9880
4100
2200
0000
ENDCHAR
STARTCHAR K+294F
ENCODING 10575
SWIDTH 960 0
DWIDTH 10 0
BBX 10 10 0 -2
BITMAP
2200
4100
8c80
9080
9080
9080
8c80
4100
2200
0000
ENDCHAR
STARTCHAR K+2950
ENCODING 10576
SWIDTH 960 0
DWIDTH 10 0
BBX 10 10 0 -2
BITMAP
2200
4500
8480
9c80
a480
a480
9c80
4100
2200
0000
ENDCHAR
STARTCHAR K+2951
ENCODING 10577
SWIDTH 960 0
DWIDTH 10 0
BBX 10 10 0 -2
BITMAP
2200
4100
9880
a480
bc80
a080
9880
4100
2200
0000
ENDCHAR
STARTCHAR K+2952
ENCODING 10578
SWIDTH 960 0
DWIDTH 10 0
BBX 10 10 0 -2
BITMAP
2200
4d00
8880
9c80
8880
8880
8880
4100
2200
0000
ENDCHAR
STARTCHAR K+2953
ENCODING 10579
SWIDTH 960 0
DWIDTH 10 0
BBX 10 10 0 -2
BITMAP
2200
4100
8c80
9480
8880
9e80
9280
4d00
2200
0000
ENDCHAR
STARTCHAR K+2954
ENCODING 10580
SWIDTH 960 0
DWIDTH 10 0
BBX 10 10 0 -2
BITMAP
2200
5100
9080
9880
9480
9480
9480
4100
2200
0000
ENDCHAR
STARTCHAR K+2955
ENCODING 10581
SWIDTH 960 0
DWIDTH 10 0
BBX 10 10 0 -2
BITMAP
2200
4900
8080
8880
8880
8880
8880
4100
2200
0000
ENDCHAR
STARTCHAR K+2956
ENCODING 10582
SWIDTH 960 0
DWIDTH 10 0
BBX 10 10 0 -2
BITMAP
2200
4900
8080
8880
8880
a880
9080
4100
2200
0000
ENDCHAR
STARTCHAR K+2957
ENCODING 10583
SWIDTH 960 0
DWIDTH 10 0
BBX 10 10 0 -2
BITMAP
2200
5100
9080
9480
9880
9480
9280
4100
2200
0000
ENDCHAR
STARTCHAR K+2958
ENCODING 10584
SWIDTH 960 0
DWIDTH 10 0
BBX 10 10 0 -2
BITMAP
2200
4900
8880
8880
8880
8880
9880
4100
2200
0000
ENDCHAR
STARTCHAR K+2959
ENCODING 10585
SWIDTH 960 0
DWIDTH 10 0
BBX 10 10 0 -2
BITMAP
2200
4100
b480
aa80
aa80
aa80
aa80
4100
2200
0000
ENDCHAR
STARTCHAR K+295A
ENCODING 10586
SWIDTH 960 0
DWIDTH 10 0
BBX 10 10 0 -2
BITMAP
2200
4100
9880
9480
9480
9480
9480
4100
2200
0000
ENDCHAR
STARTCHAR K+295B
ENCODING 10587
SWIDTH 960 0
DWIDTH 10 0
BBX 10 10 0 -2
BITMAP
2200
4100
9c80
a280
a280
a280
9c80
4100
2200
0000
ENDCHAR
STARTCHAR K+295C
ENCODING 10588
SWIDTH 960 0
DWIDTH 10 0
BBX 10 10 0 -2
BITMAP
2200
4100
9c80
9280
9280
9c80
9080
5100
2200
0000
ENDCHAR
STARTCHAR K+295D
ENCODING 10589
SWIDTH 960 0
DWIDTH 10 0
BBX 10 10 0 -2
BITMAP
2200
4100
9c80
a480
a480
9c80
8480
4500
2200
0000
ENDCHAR
STARTCHAR K+295E
ENCODING 10590
SWIDTH 960 0
DWIDTH 10 0
BBX 10 10 0 -2
BITMAP
2200
4100
9480
9a80
9080
9080
9080
4100
2200
0000
ENDCHAR
STARTCHAR K+295F
ENCODING 10591
SWIDTH 960 0
DWIDTH 10 0
BBX 10 10 0 -2
BITMAP
2200
4100
9c80
a080
9880
8480
b880
4100
2200
0000
ENDCHAR
STARTCHAR K+2960
ENCODING 10592
SWIDTH 960 0
DWIDTH 10 0
BBX 10 10 0 -2
BITMAP
2200
4900
8880
9c80
8880
8880
8c80
4100
2200
0000
ENDCHAR
STARTCHAR K+2961
ENCODING 10593
SWIDTH 960 0
DWIDTH 10 0
BBX 10 10 0 -2
BITMAP
2200
4100
9480
9480
9480
9480
9c80
4100
2200
0000
ENDCHAR
STARTCHAR K+2962
ENCODING 10594
SWIDTH 960 0
DWIDTH 10 0
BBX 10 10 0 -2
BITMAP
2200
4100
8080
b680
9480
9c80
8880
4100
2200
0000
ENDCHAR
STARTCHAR K+2963
ENCODING 10595
SWIDTH 960 0
DWIDTH 10 0
BBX 10 10 0 -2
BITMAP
2200
4100
8080
aa80
aa80
be80
9480
4100
2200
0000
ENDCHAR
STARTCHAR K+2964
ENCODING 10596
SWIDTH 960 0
DWIDTH 10 0
BBX 10 10 0 -2
BITMAP
2200
4100
b680
9480
8880
9480
b680
4100
2200
0000
ENDCHAR
STARTCHAR K+2965
ENCODING 10597
SWIDTH 960 0
DWIDTH 10 0
BBX 10 10 0 -2
BITMAP
2200
4100
b680
9480
9c80
8880
8880
5100
2200
0000
ENDCHAR
STARTCHAR K+2966
ENCODING 10598
SWIDTH 960 0
DWIDTH 10 0
BBX 10 10 0 -2
BITMAP
2200
4100
9c80
8480
8880
9080
9c80
4100
2200
0000
ENDCHAR
STARTCHAR K+2967
ENCODING 10599
SWIDTH 960 0
DWIDTH 10 0
BBX 10 10 0 -2
BITMAP
2200
4900
9880
8880
8880
8880
9c80
4100
2200
0000
ENDCHAR
STARTCHAR K+2968
ENCODING 10600
SWIDTH 960 0
DWIDTH 10 0
BBX 10 10 0 -2
BITMAP
2200
4900
9480
8480
8880
9080
9c80
4100
2200
0000
ENDCHAR
STARTCHAR K+2969
ENCODING 10601
SWIDTH 960 0
DWIDTH 10 0
BBX 10 10 0 -2
BITMAP
2200
5900
8480
8880
8480
8480
9880
4100
2200
0000
ENDCHAR
STARTCHAR K+296A
ENCODING 10602
SWIDTH 960 0
DWIDTH 10 0
BBX 10 10 0 -2
BITMAP
2200
4500
8c80
9480
9480
9e80
8480
4100
2200
0000
ENDCHAR
STARTCHAR K+296B
ENCODING 10603
SWIDTH 960 0
DWIDTH 10 0
BBX 10 10 0 -2
BITMAP
2200
5d00
9080
9880
8480
8480
9880
4100
2200
0000
ENDCHAR
STARTCHAR K+296C
ENCODING 10604
SWIDTH 960 0
DWIDTH 10 0
BBX 10 10 0 -2
BITMAP
2200
4d00
9080
9880
9480
9480
8880
4100
2200
0000
ENDCHAR
STARTCHAR K+296D
ENCODING 10605
SWIDTH 960 0
DWIDTH 10 0
BBX 10 10 0 -2
BITMAP
2200
4100
9c80
8480
8480
8880
8880
4100
2200
0000
ENDCHAR
STARTCHAR K+296E
ENCODING 10606
SWIDTH 960 0
DWIDTH 10 0
BBX 10 10 0 -2
BITMAP
2200
4900
9480
8880
9480
9480
8880
4100
2200
0000
ENDCHAR
STARTCHAR K+296F
ENCODING 10607
SWIDTH 960 0
DWIDTH 10 0
BBX 10 10 0 -2
BITMAP
2200
4900
9480
9c80
8480
9480
8880
4100
2200
0000
ENDCHAR
STARTCHAR K+2970
ENCODING 10608
SWIDTH 960 0
DWIDTH 10 0
BBX 10 10 0 -2
BITMAP
2200
4500
aa80
aa80
aa80
aa80
a480
4100
2200
0000
ENDCHAR
STARTCHAR K+2971
ENCODING 10609
SWIDTH 960 0
DWIDTH 10 0
BBX 10 10 0 -2
BITMAP
2200
4100
b680
9280
9280
9280
9280
4100
2200
0000
ENDCHAR
STARTCHAR K+2972
ENCODING 10610
SWIDTH 960 0
DWIDTH 10 0
BBX 10 10 0 -2
BITMAP
2200
4500
aa80
a280
a480
a880
ae80
4100
2200
0000
ENDCHAR
STARTCHAR K+2973
ENCODING 10611
SWIDTH 960 0
DWIDTH 10 0
BBX 10 10 0 -2
BITMAP
2200
4d00
a280
ac80
a280
a280
ac80
4100
2200
0000
ENDCHAR
STARTCHAR K+2974
ENCODING 10612
SWIDTH 960 0
DWIDTH 10 0
BBX 10 10 0 -2
BITMAP
2200
4100
a280
a680
aa80
ae80
a280
4100
2200
0000
ENDCHAR
STARTCHAR K+2975
ENCODING 10613
SWIDTH 960 0
DWIDTH 10 0
BBX 10 10 0 -2
BITMAP
2200
4100
ae80
a880
ae80
a280
ac80
4100
2200
0000
ENDCHAR
STARTCHAR K+2976
ENCODING 10614
SWIDTH 960 0
DWIDTH 10 0
BBX 10 10 0 -2
BITMAP
4000
4000
4000
6000
0000
0000
0000
0000
0000
0000
ENDCHAR
STARTCHAR K+2977
ENCODING 10615
SWIDTH 960 0
DWIDTH 10 0
BBX 10 10 0 -2
BITMAP
c000
2000
4000
e000
0000
0000
0000
0000
0000
0000
ENDCHAR
STARTCHAR K+2978
ENCODING 10616
SWIDTH 960 0
DWIDTH 10 0
BBX 10 10 0 -2
BITMAP
e000
6000
2000
e000
0000
0000
0000
0000
0000
0000
ENDCHAR
STARTCHAR K+2979
ENCODING 10617
SWIDTH 960 0
DWIDTH 10 0
BBX 10 10 0 -2
BITMAP
4000
c000
e000
4000
0000
0000
0000
0000
0000
0000
ENDCHAR
STARTCHAR K+297A
ENCODING 10618
SWIDTH 960 0
DWIDTH 10 0
BBX 10 10 0 -2
BITMAP
c000
a000
a000
a000
0000
0000
0000
0000
0000
0000
ENDCHAR
STARTCHAR K+297B
ENCODING 10619
SWIDTH 960 0
DWIDTH 10 0
BBX 10 10 0 -2
BITMAP
0000
0000
0000
0000
0000
4000
4000
4000
6000
0000
ENDCHAR
STARTCHAR K+297C
ENCODING 10620
SWIDTH 960 0
DWIDTH 10 0
BBX 10 10 0 -2
BITMAP
0000
0000
0000
0000
0000
c000
2000
4000
e000
0000
ENDCHAR
STARTCHAR K+297D
ENCODING 10621
SWIDTH 960 0
DWIDTH 10 0
BBX 10 10 0 -2
BITMAP
0000
0000
0000
0000
0000
e000
6000
2000
e000
0000
ENDCHAR
STARTCHAR K+297E
ENCODING 10622
SWIDTH 960 0
DWIDTH 10 0
BBX 10 10 0 -2
BITMAP
0000
0000
0000
0000
0000
4000
c000
e000
4000
0000
ENDCHAR
STARTCHAR K+2A21
ENCODING 10785
SWIDTH 960 0
DWIDTH 10 0
BBX 10 10 0 -2
BITMAP
0000
0000
1000
3e00
1000
3e00
5500
5900
3200
0000
ENDCHAR
STARTCHAR K+2A22
ENCODING 10786
SWIDTH 960 0
DWIDTH 10 0
BBX 10 10 0 -2
BITMAP
0800
7f00
1000
1f00
3280
5480
5480
4880
3300
0000
ENDCHAR
STARTCHAR K+2A23
ENCODING 10787
SWIDTH 960 0
DWIDTH 10 0
BBX 10 10 0 -2
BITMAP
0000
0000
0000
1100
2100
2080
2080
2880
1000
0000
ENDCHAR
STARTCHAR K+2A24
ENCODING 10788
SWIDTH 960 0
DWIDTH 10 0
BBX 10 10 0 -2
BITMAP
0000
2100
4100
4080
4080
4080
4880
5000
2000
0000
ENDCHAR
STARTCHAR K+2A25
ENCODING 10789
SWIDTH 960 0
DWIDTH 10 0
BBX 10 10 0 -2
BITMAP
0000
0000
1e00
0000
1e00
2100
0100
0200
0c00
0000
ENDCHAR
STARTCHAR K+2A26
ENCODING 10790
SWIDTH 960 0
DWIDTH 10 0
BBX 10 10 0 -2
BITMAP
1800
0600
0000
3f00
4080
0080
0080
0100
0e00
0000
ENDCHAR
STARTCHAR K+2A27
ENCODING 10791
SWIDTH 960 0
DWIDTH 10 0
BBX 10 10 0 -2
BITMAP
0000
0000
0e00
0000
1f00
0100
0600
0a00
1180
0000
ENDCHAR
STARTCHAR K+2A28
ENCODING 10792
SWIDTH 960 0
DWIDTH 10 0
BBX 10 10 0 -2
BITMAP
1e00
0000
3f00
0200
0400
0c00
1200
2200
4180
0000
ENDCHAR
STARTCHAR K+2A29
ENCODING 10793
SWIDTH 960 0
DWIDTH 10 0
BBX 10 10 0 -2
BITMAP
0000
0000
1000
7d00
1080
1e00
3100
5100
3600
0000
ENDCHAR
STARTCHAR K+2A2A
ENCODING 10794
SWIDTH 960 0
DWIDTH 10 0
BBX 10 10 0 -2
BITMAP
1000
1080
7e80
1000
1f00
3080
5080
5080
3300
0000
ENDCHAR
STARTCHAR K+2A2B
ENCODING 10795
SWIDTH 960 0
DWIDTH 10 0
BBX 10 10 0 -2
BITMAP
1000
1000
7900
1500
2480
2480
2480
5400
4800
0000
ENDCHAR
STARTCHAR K+2A2C
ENCODING 10796
SWIDTH 960 0
DWIDTH 10 0
BBX 10 10 0 -2
BITMAP
1140
1140
7800
1500
2480
2480
2480
5400
4800
0000
ENDCHAR
STARTCHAR K+2A2D
ENCODING 10797
SWIDTH 960 0
DWIDTH 10 0
BBX 10 10 0 -2
BITMAP
0800
3f00
0400
7f80
0200
1f00
2100
2000
1e00
0000
ENDCHAR
STARTCHAR K+2A2E
ENCODING 10798
SWIDTH 960 0
DWIDTH 10 0
BBX 10 10 0 -2
BITMAP
0940
3d40
0400
7f80
0200
1f00
2100
2000
1e00
0000
ENDCHAR
STARTCHAR K+2A2F
ENCODING 10799
SWIDTH 960 0
DWIDTH 10 0
BBX 10 10 0 -2
BITMAP
0200
0400
1800
2000
2000
1000
0800
0400
0200
0000
ENDCHAR
STARTCHAR K+2A30
ENCODING 10800
SWIDTH 960 0
DWIDTH 10 0
BBX 10 10 0 -2
BITMAP
0200
0540
1940
2000
2000
1000
0800
0400
0200
0000
ENDCHAR
STARTCHAR K+2A31
ENCODING 10801
SWIDTH 960 0
DWIDTH 10 0
BBX 10 10 0 -2
BITMAP
0100
4100
4f80
4100
4100
4100
4100
4200
0c00
0000
ENDCHAR
STARTCHAR K+2A32
ENCODING 10802
SWIDTH 960 0
DWIDTH 10 0
BBX 10 10 0 -2
BITMAP
0140
4140
4e80
4100
4100
4100
4100
4200
0c00
0000
ENDCHAR
STARTCHAR K+2A33
ENCODING 10803
SWIDTH 960 0
DWIDTH 10 0
BBX 10 10 0 -2
BITMAP
0000
3f00
0000
0000
0000
0000
4000
4000
3f80
0000
ENDCHAR
STARTCHAR K+2A34
ENCODING 10804
SWIDTH 960 0
DWIDTH 10 0
BBX 10 10 0 -2
BITMAP
0140
3d40
0000
0000
0000
0000
4000
4000
3f80
0000
ENDCHAR
STARTCHAR K+2A35
ENCODING 10805
SWIDTH 960 0
DWIDTH 10 0
BBX 10 10 0 -2
BITMAP
0400
0400
7f80
0200
0200
1f00
2100
2000
1e00
0000
ENDCHAR
STARTCHAR K+2A36
ENCODING 10806
SWIDTH 960 0
DWIDTH 10 0
BBX 10 10 0 -2
BITMAP
0540
0540
7e00
0200
0200
1f00
2100
2000
1e00
0000
ENDCHAR
STARTCHAR K+2A37
ENCODING 10807
SWIDTH 960 0
DWIDTH 10 0
BBX 10 10 0 -2
BITMAP
2000
2000
2000
2000
2000
2080
2080
1100
0e00
0000
ENDCHAR
STARTCHAR K+2A38
ENCODING 10808
SWIDTH 960 0
DWIDTH 10 0
BBX 10 10 0 -2
BITMAP
2280
2280
2000
2000
2000
2080
2080
1100
0e00
0000
ENDCHAR
STARTCHAR K+2A39
ENCODING 10809
SWIDTH 960 0
DWIDTH 10 0
BBX 10 10 0 -2
BITMAP
0200
7f80
0200
0e00
1200
1200
0e00
0200
0c00
0000
ENDCHAR
STARTCHAR K+2A3A
ENCODING 10810
SWIDTH 960 0
DWIDTH 10 0
BBX 10 10 0 -2
BITMAP
0140
7d40
0200
0e00
1200
1200
0e00
0200
0c00
0000
ENDCHAR
STARTCHAR K+2A3B
ENCODING 10811
SWIDTH 960 0
DWIDTH 10 0
BBX 10 10 0 -2
BITMAP
1100
1100
7fc0
1100
1100
1600
1000
1000
0f00
0000
ENDCHAR
STARTCHAR K+2A3C
ENCODING 10812
SWIDTH 960 0
DWIDTH 10 0
BBX 10 10 0 -2
BITMAP
1140
1140
7e80
1100
1100
1600
1000
1000
0f00
0000
ENDCHAR
STARTCHAR K+2A3D
ENCODING 10813
SWIDTH 960 0
DWIDTH 10 0
BBX 10 10 0 -2
BITMAP
0000
3f00
0200
0400
7f80
0800
1000
1000
0e00
0000
ENDCHAR
STARTCHAR K+2A3E
ENCODING 10814
SWIDTH 960 0
DWIDTH 10 0
BBX 10 10 0 -2
BITMAP
0140
3d40
0200
0400
7f80
0800
1000
1000
0e00
0000
ENDCHAR
STARTCHAR K+2A3F
ENCODING 10815
SWIDTH 960 0
DWIDTH 10 0
BBX 10 10 0 -2
BITMAP
1000
1000
7c00
1000
2780
2000
2000
4800
4780
0000
ENDCHAR
STARTCHAR K+2A40
ENCODING 10816
SWIDTH 960 0
DWIDTH 10 0
BBX 10 10 0 -2
BITMAP
1000
1140
7d40
1000
2780
2000
2000
4800
4780
0000
ENDCHAR
STARTCHAR K+2A41
ENCODING 10817
SWIDTH 960 0
DWIDTH 10 0
BBX 10 10 0 -2
BITMAP
0800
0800
7f80
1000
1f00
2080
0080
0100
0e00
0000
ENDCHAR
STARTCHAR K+2A42
ENCODING 10818
SWIDTH 960 0
DWIDTH 10 0
BBX 10 10 0 -2
BITMAP
0940
0940
7e00
1000
1f00
2080
0080
0100
0e00
0000
ENDCHAR
STARTCHAR K+2A43
ENCODING 10819
SWIDTH 960 0
DWIDTH 10 0
BBX 10 10 0 -2
BITMAP
0000
0000
0000
0e00
3100
0080
0080
0100
0e00
0000
ENDCHAR
STARTCHAR K+2A44
ENCODING 10820
SWIDTH 960 0
DWIDTH 10 0
BBX 10 10 0 -2
BITMAP
0000
0f00
7080
0040
0040
0040
0180
0e00
0000
0000
ENDCHAR
STARTCHAR K+2A45
ENCODING 10821
SWIDTH 960 0
DWIDTH 10 0
BBX 10 10 0 -2
BITMAP
0140
0f40
7080
0040
0040
0040
0180
0e00
0000
0000
ENDCHAR
STARTCHAR K+2A46
ENCODING 10822
SWIDTH 960 0
DWIDTH 10 0
BBX 10 10 0 -2
BITMAP
0000
7fc0
0200
0400
0800
0800
0800
0400
0300
0000
ENDCHAR
STARTCHAR K+2A47
ENCODING 10823
SWIDTH 960 0
DWIDTH 10 0
BBX 10 10 0 -2
BITMAP
0000
7fc0
0200
0540
0940
0800
0800
0400
0300
0000
ENDCHAR
STARTCHAR K+2A48
ENCODING 10824
SWIDTH 960 0
DWIDTH 10 0
BBX 10 10 0 -2
BITMAP
0800
0800
0800
0b80
0c00
1000
2000
2000
1f80
0000
ENDCHAR
STARTCHAR K+2A49
ENCODING 10825
SWIDTH 960 0
DWIDTH 10 0
BBX 10 10 0 -2
BITMAP
0940
0940
0800
0b80
0c00
1000
2000
2000
1f80
0000
ENDCHAR
STARTCHAR K+2A4A
ENCODING 10826
SWIDTH 960 0
DWIDTH 10 0
BBX 10 10 0 -2
BITMAP
0800
0980
7c40
1000
2100
2100
4780
0940
0600
0000
ENDCHAR
STARTCHAR K+2A4B
ENCODING 10827
SWIDTH 960 0
DWIDTH 10 0
BBX 10 10 0 -2
BITMAP
0000
4000
4f80
4000
4000
4000
4800
4800
4780
0000
ENDCHAR
STARTCHAR K+2A4C
ENCODING 10828
SWIDTH 960 0
DWIDTH 10 0
BBX 10 10 0 -2
BITMAP
0200
2200
2f00
3280
2440
5440
4b40
5480
2340
0000
ENDCHAR
STARTCHAR K+2A4D
ENCODING 10829
SWIDTH 960 0
DWIDTH 10 0
BBX 10 10 0 -2
BITMAP
1000
1000
7700
1880
1080
1080
3380
54c0
1300
0000
ENDCHAR
STARTCHAR K+2A4E
ENCODING 10830
SWIDTH 960 0
DWIDTH 10 0
BBX 10 10 0 -2
BITMAP
0000
1f00
2480
4440
4440
4840
4840
3080
0300
0000
ENDCHAR
STARTCHAR K+2A4F
ENCODING 10831
SWIDTH 960 0
DWIDTH 10 0
BBX 10 10 0 -2
BITMAP
0100
4100
4fc0
4100
4100
4100
4780
4940
4600
0000
ENDCHAR
STARTCHAR K+2A50
ENCODING 10832
SWIDTH 960 0
DWIDTH 10 0
BBX 10 10 0 -2
BITMAP
0140
4140
4e80
4100
4100
4100
4780
4940
4600
0000
ENDCHAR
STARTCHAR K+2A51
ENCODING 10833
SWIDTH 960 0
DWIDTH 10 0
BBX 10 10 0 -2
BITMAP
0280
4340
5f40
4280
4200
4200
4f00
5280
4c00
0000
ENDCHAR
STARTCHAR K+2A52
ENCODING 10834
SWIDTH 960 0
DWIDTH 10 0
BBX 10 10 0 -2
BITMAP
0000
0000
1900
7100
1180
2140
2100
2100
2200
1c00
ENDCHAR
STARTCHAR K+2A53
ENCODING 10835
SWIDTH 960 0
DWIDTH 10 0
BBX 10 10 0 -2
BITMAP
0000
0140
1940
7000
1100
2180
2140
2100
2200
1c00
ENDCHAR
STARTCHAR K+2A54
ENCODING 10836
SWIDTH 960 0
DWIDTH 10 0
BBX 10 10 0 -2
BITMAP
0000
0080
1940
7140
1080
2100
2180
2140
2200
1c00
ENDCHAR
STARTCHAR K+2A55
ENCODING 10837
SWIDTH 960 0
DWIDTH 10 0
BBX 10 10 0 -2
BITMAP
0000
0c00
0200
0400
0800
2480
2240
4240
5240
0c00
ENDCHAR
STARTCHAR K+2A56
ENCODING 10838
SWIDTH 960 0
DWIDTH 10 0
BBX 10 10 0 -2
BITMAP
0000
0d40
0340
0400
0800
2480
2240
4240
5240
0c00
ENDCHAR
STARTCHAR K+2A57
ENCODING 10839
SWIDTH 960 0
DWIDTH 10 0
BBX 10 10 0 -2
BITMAP
0000
0c80
0340
0540
0880
2400
2240
4240
5240
0c00
ENDCHAR
STARTCHAR K+2A58
ENCODING 10840
SWIDTH 960 0
DWIDTH 10 0
BBX 10 10 0 -2
BITMAP
0000
0000
0000
1800
2400
2200
4100
0080
0040
0000
ENDCHAR
STARTCHAR K+2A59
ENCODING 10841
SWIDTH 960 0
DWIDTH 10 0
BBX 10 10 0 -2
BITMAP
0000
0000
0140
1940
2400
2200
4100
0080
0040
0000
ENDCHAR
STARTCHAR K+2A5A
ENCODING 10842
SWIDTH 960 0
DWIDTH 10 0
BBX 10 10 0 -2
BITMAP
0000
0080
0140
1940
2480
2200
4100
0080
0040
0000
ENDCHAR
STARTCHAR K+2A5B
ENCODING 10843
SWIDTH 960 0
DWIDTH 10 0
BBX 10 10 0 -2
BITMAP
0000
0000
4fc0
4100
4fc0
4100
4100
4780
4940
4600
ENDCHAR
STARTCHAR K+2A5C
ENCODING 10844
SWIDTH 960 0
DWIDTH 10 0
BBX 10 10 0 -2
BITMAP
0000
0140
5d40
4200
5f80
4200
4200
4f00
5280
4c00
ENDCHAR
STARTCHAR K+2A5D
ENCODING 10845
SWIDTH 960 0
DWIDTH 10 0
BBX 10 10 0 -2
BITMAP
0000
0080
5f40
4340
5e80
4200
4200
4f00
5280
4c00
ENDCHAR
STARTCHAR K+2A5E
ENCODING 10846
SWIDTH 960 0
DWIDTH 10 0
BBX 10 10 0 -2
BITMAP
0000
0200
3f80
0200
1f00
0200
0200
1f00
2280
1c00
ENDCHAR
STARTCHAR K+2A5F
ENCODING 10847
SWIDTH 960 0
DWIDTH 10 0
BBX 10 10 0 -2
BITMAP
0000
0000
3c00
0500
0500
3f80
4940
5100
6100
0600
ENDCHAR
STARTCHAR K+2A60
ENCODING 10848
SWIDTH 960 0
DWIDTH 10 0
BBX 10 10 0 -2
BITMAP
0000
1000
1000
7c80
1040
3000
5000
5080
3080
0f00
ENDCHAR
STARTCHAR K+2A61
ENCODING 10849
SWIDTH 960 0
DWIDTH 10 0
BBX 10 10 0 -2
BITMAP
0000
0200
2200
2f00
3280
2440
5440
4840
5080
2300
ENDCHAR
STARTCHAR K+2A62
ENCODING 10850
SWIDTH 960 0
DWIDTH 10 0
BBX 10 10 0 -2
BITMAP
0000
0800
0800
3e00
1000
7f00
1000
1080
1080
0f00
ENDCHAR
STARTCHAR K+2A63
ENCODING 10851
SWIDTH 960 0
DWIDTH 10 0
BBX 10 10 0 -2
BITMAP
0000
0000
0000
0000
1400
1e00
7100
1200
0800
0800
ENDCHAR
STARTCHAR K+2A64
ENCODING 10852
SWIDTH 960 0
DWIDTH 10 0
BBX 10 10 0 -2
BITMAP
0000
2200
2400
1f00
7080
1080
1300
0800
0800
0800
ENDCHAR
STARTCHAR K+2A65
ENCODING 10853
SWIDTH 960 0
DWIDTH 10 0
BBX 10 10 0 -2
BITMAP
0000
0000
0000
0400
2e00
3500
2500
2e00
0400
0800
ENDCHAR
STARTCHAR K+2A66
ENCODING 10854
SWIDTH 960 0
DWIDTH 10 0
BBX 10 10 0 -2
BITMAP
0000
0400
4400
5f00
6480
4480
5480
4f00
0400
0800
ENDCHAR
STARTCHAR K+2A67
ENCODING 10855
SWIDTH 960 0
DWIDTH 10 0
BBX 10 10 0 -2
BITMAP
0000
0000
0400
0400
0700
0400
1c00
2600
1900
0000
ENDCHAR
STARTCHAR K+2A68
ENCODING 10856
SWIDTH 960 0
DWIDTH 10 0
BBX 10 10 0 -2
BITMAP
0400
0400
0780
0400
0400
0400
3e00
4500
3880
0000
ENDCHAR
STARTCHAR K+2A69
ENCODING 10857
SWIDTH 960 0
DWIDTH 10 0
BBX 10 10 0 -2
BITMAP
1c00
0300
1000
1000
3f00
2080
0080
0100
0e00
0000
ENDCHAR
STARTCHAR K+2A6A
ENCODING 10858
SWIDTH 960 0
DWIDTH 10 0
BBX 10 10 0 -2
BITMAP
2100
2100
2100
2100
2900
1100
0100
0200
0c00
0000
ENDCHAR
STARTCHAR K+2A6B
ENCODING 10859
SWIDTH 960 0
DWIDTH 10 0
BBX 10 10 0 -2
BITMAP
3e00
0400
0800
1e00
2100
4080
0c80
1300
0e00
0000
ENDCHAR
STARTCHAR K+2A6C
ENCODING 10860
SWIDTH 960 0
DWIDTH 10 0
BBX 10 10 0 -2
BITMAP
1000
1000
7600
1900
1100
1100
3100
5140
1080
0000
ENDCHAR
STARTCHAR K+2A6D
ENCODING 10861
SWIDTH 960 0
DWIDTH 10 0
BBX 10 10 0 -2
BITMAP
3e00
0400
0800
1e00
2100
4080
0080
0100
0e00
0000
ENDCHAR
STARTCHAR K+2A6E
ENCODING 10862
SWIDTH 960 0
DWIDTH 10 0
BBX 10 10 0 -2
BITMAP
0000
0000
1000
1000
3600
1900
1100
3100
1200
0000
ENDCHAR
STARTCHAR K+2A6F
ENCODING 10863
SWIDTH 960 0
DWIDTH 10 0
BBX 10 10 0 -2
BITMAP
1000
1000
7700
1880
1040
1040
3040
5080
1300
0000
ENDCHAR
STARTCHAR K+2A70
ENCODING 10864
SWIDTH 960 0
DWIDTH 10 0
BBX 10 10 0 -2
BITMAP
0000
3e00
0400
1e00
2900
4880
5380
5480
2300
0000
ENDCHAR
STARTCHAR K+2A71
ENCODING 10865
SWIDTH 960 0
DWIDTH 10 0
BBX 10 10 0 -2
BITMAP
1e00
0400
0e00
1100
2d00
0e00
1000
3b80
44c0
0000
ENDCHAR
STARTCHAR K+2A72
ENCODING 10866
SWIDTH 960 0
DWIDTH 10 0
BBX 10 10 0 -2
BITMAP
0800
7f00
1000
1980
2600
4a00
1200
1000
0f00
0000
ENDCHAR
STARTCHAR K+2A73
ENCODING 10867
SWIDTH 960 0
DWIDTH 10 0
BBX 10 10 0 -2
BITMAP
0400
0800
0800
1000
1800
2400
2480
4480
4300
0000
ENDCHAR
STARTCHAR K+2B21
ENCODING 11041
SWIDTH 960 0
DWIDTH 10 0
BBX 10 10 0 -2
BITMAP
0000
0000
0000
1f80
0080
0500
0400
0400
0800
0000
ENDCHAR
STARTCHAR K+2B22
ENCODING 11042
SWIDTH 960 0
DWIDTH 10 0
BBX 10 10 0 -2
BITMAP
0000
7f80
0080
0900
0a00
0800
0800
1000
2000
0000
ENDCHAR
STARTCHAR K+2B23
ENCODING 11043
SWIDTH 960 0
DWIDTH 10 0
BBX 10 10 0 -2
BITMAP
0000
0000
0100
0200
0400
1c00
2400
0400
0400
0000
ENDCHAR
STARTCHAR K+2B24
ENCODING 11044
SWIDTH 960 0
DWIDTH 10 0
BBX 10 10 0 -2
BITMAP
0080
0100
0200
0400
1c00
6400
0400
0400
0400
0000
ENDCHAR
STARTCHAR K+2B25
ENCODING 11045
SWIDTH 960 0
DWIDTH 10 0
BBX 10 10 0 -2
BITMAP
0000
0000
0400
0400
3f00
2100
0100
0200
0c00
0000
ENDCHAR
STARTCHAR K+2B26
ENCODING 11046
SWIDTH 960 0
DWIDTH 10 0
BBX 10 10 0 -2
BITMAP
0400
0400
3f80
2080
2080
0080
0100
0200
0c00
0000
ENDCHAR
STARTCHAR K+2B27
ENCODING 11047
SWIDTH 960 0
DWIDTH 10 0
BBX 10 10 0 -2
BITMAP
0000
0000
0000
0000
1f00
0400
0400
0400
3f80
0000
ENDCHAR
STARTCHAR K+2B28
ENCODING 11048
SWIDTH 960 0
DWIDTH 10 0
BBX 10 10 0 -2
BITMAP
0000
0000
3f80
0400
0400
0400
0400
7fc0
0000
0000
ENDCHAR
STARTCHAR K+2B29
ENCODING 11049
SWIDTH 960 0
DWIDTH 10 0
BBX 10 10 0 -2
BITMAP
0000
0000
0200
0200
3f00
0600
0a00
1200
2600
0000
ENDCHAR
STARTCHAR K+2B2A
ENCODING 11050
SWIDTH 960 0
DWIDTH 10 0
BBX 10 10 0 -2
BITMAP
0200
0200
7f80
0600
0a00
1200
2200
4200
0600
0000
ENDCHAR
STARTCHAR K+2B2B
ENCODING 11051
SWIDTH 960 0
DWIDTH 10 0
BBX 10 10 0 -2
BITMAP
0800
0800
7f80
0880
0880
1080
1080
2080
4300
0000
ENDCHAR
STARTCHAR K+2B2C
ENCODING 11052
SWIDTH 960 0
DWIDTH 10 0
BBX 10 10 0 -2
BITMAP
0940
0940
7f80
0880
0880
1080
1080
2080
4300
0000
ENDCHAR
STARTCHAR K+2B2D
ENCODING 11053
SWIDTH 960 0
DWIDTH 10 0
BBX 10 10 0 -2
BITMAP
0800
0800
3f80
0400
0400
7fc0
0200
0200
0200
0000
ENDCHAR
STARTCHAR K+2B2E
ENCODING 11054
SWIDTH 960 0
DWIDTH 10 0
BBX 10 10 0 -2
BITMAP
0940
0940
3f80
0400
0400
7fc0
0200
0200
0200
0000
ENDCHAR
STARTCHAR K+2B2F
ENCODING 11055
SWIDTH 960 0
DWIDTH 10 0
BBX 10 10 0 -2
BITMAP
0800
0f80
0880
1080
2080
0100
0100
0600
1800
0000
ENDCHAR
STARTCHAR K+2B30
ENCODING 11056
SWIDTH 960 0
DWIDTH 10 0
BBX 10 10 0 -2
BITMAP
0940
0f40
0880
1080
2080
0100
0100
0600
1800
0000
ENDCHAR
STARTCHAR K+2B31
ENCODING 11057
SWIDTH 960 0
DWIDTH 10 0
BBX 10 10 0 -2
BITMAP
1000
1000
1f80
2200
4200
0200
0200
0400
1800
0000
ENDCHAR
STARTCHAR K+2B32
ENCODING 11058
SWIDTH 960 0
DWIDTH 10 0
BBX 10 10 0 -2
BITMAP
1140
1140
1f80
2200
4200
0200
0200
0400
1800
0000
ENDCHAR
STARTCHAR K+2B33
ENCODING 11059
SWIDTH 960 0
DWIDTH 10 0
BBX 10 10 0 -2
BITMAP
0000
0000
3f80
0080
0080
0080
0080
3f80
0080
0000
ENDCHAR
STARTCHAR K+2B34
ENCODING 11060
SWIDTH 960 0
DWIDTH 10 0
BBX 10 10 0 -2
BITMAP
0140
0140
3f80
0080
0080
0080
0080
3f80
0080
0000
ENDCHAR
STARTCHAR K+2B35
ENCODING 11061
SWIDTH 960 0
DWIDTH 10 0
BBX 10 10 0 -2
BITMAP
1100
1100
7fc0
1100
1100
1100
0100
0200
0c00
0000
ENDCHAR
STARTCHAR K+2B36
ENCODING 11062
SWIDTH 960 0
DWIDTH 10 0
BBX 10 10 0 -2
BITMAP
1140
1140
7e80
1100
1100
1100
0100
0200
0c00
0000
ENDCHAR
STARTCHAR K+2B37
ENCODING 11063
SWIDTH 960 0
DWIDTH 10 0
BBX 10 10 0 -2
BITMAP
0000
3000
0880
0080
3080
0900
0100
0600
3800
0000
ENDCHAR
STARTCHAR K+2B38
ENCODING 11064
SWIDTH 960 0
DWIDTH 10 0
BBX 10 10 0 -2
BITMAP
0140
3140
0880
0080
3080
0900
0100
0600
3800
0000
ENDCHAR
STARTCHAR K+2B39
ENCODING 11065
SWIDTH 960 0
DWIDTH 10 0
BBX 10 10 0 -2
BITMAP
0000
3f00
0100
0200
0200
0400
0a00
1100
6080
0000
ENDCHAR
STARTCHAR K+2B3A
ENCODING 11066
SWIDTH 960 0
DWIDTH 10 0
BBX 10 10 0 -2
BITMAP
0140
3f40
0100
0200
0200
0400
0a00
1100
6080
0000
ENDCHAR
STARTCHAR K+2B3B
ENCODING 11067
SWIDTH 960 0
DWIDTH 10 0
BBX 10 10 0 -2
BITMAP
2000
2000
2780
7880
2100
2200
2000
2000
1f00
0000
ENDCHAR
STARTCHAR K+2B3C
ENCODING 11068
SWIDTH 960 0
DWIDTH 10 0
BBX 10 10 0 -2
BITMAP
2140
2140
2780
7880
2100
2200
2000
2000
1f00
0000
ENDCHAR
STARTCHAR K+2B3D
ENCODING 11069
SWIDTH 960 0
DWIDTH 10 0
BBX 10 10 0 -2
BITMAP
0000
2080
1080
0880
0100
0100
0200
0400
1800
0000
ENDCHAR
STARTCHAR K+2B3E
ENCODING 11070
SWIDTH 960 0
DWIDTH 10 0
BBX 10 10 0 -2
BITMAP
0140
2140
1080
0880
0100
0100
0200
0400
1800
0000
ENDCHAR
STARTCHAR K+2B3F
ENCODING 11071
SWIDTH 960 0
DWIDTH 10 0
BBX 10 10 0 -2
BITMAP
0800
0f80
0880
1880
2480
0300
0100
0600
1800
0000
ENDCHAR
STARTCHAR K+2B40
ENCODING 11072
SWIDTH 960 0
DWIDTH 10 0
BBX 10 10 0 -2
BITMAP
0940
0f40
0880
1880
2480
0300
0100
0600
1800
0000
ENDCHAR
STARTCHAR K+2B41
ENCODING 11073
SWIDTH 960 0
DWIDTH 10 0
BBX 10 10 0 -2
BITMAP
0000
0300
3c00
0400
7f80
0400
0400
0800
3000
0000
ENDCHAR
STARTCHAR K+2B42
ENCODING 11074
SWIDTH 960 0
DWIDTH 10 0
BBX 10 10 0 -2
BITMAP
0140
0340
3c00
0400
7f80
0400
0400
0800
3000
0000
ENDCHAR
STARTCHAR K+2B43
ENCODING 11075
SWIDTH 960 0
DWIDTH 10 0
BBX 10 10 0 -2
BITMAP
0000
0000
0000
0000
2900
2900
0100
0200
0c00
0000
ENDCHAR
STARTCHAR K+2B44
ENCODING 11076
SWIDTH 960 0
DWIDTH 10 0
BBX 10 10 0 -2
BITMAP
0000
0800
2480
1480
1080
0100
0100
0600
1800
0000
ENDCHAR
STARTCHAR K+2B45
ENCODING 11077
SWIDTH 960 0
DWIDTH 10 0
BBX 10 10 0 -2
BITMAP
0140
0940
2400
1480
1080
0100
0100
0600
1800
0000
ENDCHAR
STARTCHAR K+2B46
ENCODING 11078
SWIDTH 960 0
DWIDTH 10 0
BBX 10 10 0 -2
BITMAP
0000
3f00
0000
7f80
0400
0400
0400
0800
3000
0000
ENDCHAR
STARTCHAR K+2B47
ENCODING 11079
SWIDTH 960 0
DWIDTH 10 0
BBX 10 10 0 -2
BITMAP
0140
3d40
0000
7f80
0400
0400
0400
0800
3000
0000
ENDCHAR
STARTCHAR K+2B48
ENCODING 11080
SWIDTH 960 0
DWIDTH 10 0
BBX 10 10 0 -2
BITMAP
1000
1000
1000
1800
1600
1100
1000
1000
1000
0000
ENDCHAR
STARTCHAR K+2B49
ENCODING 11081
SWIDTH 960 0
DWIDTH 10 0
BBX 10 10 0 -2
BITMAP
1280
1280
1000
1800
1600
1100
1000
1000
1000
0000
ENDCHAR
STARTCHAR K+2B4A
ENCODING 11082
SWIDTH 960 0
DWIDTH 10 0
BBX 10 10 0 -2
BITMAP
0400
0400
7f80
0400
0400
0400
0400
0800
3000
0000
ENDCHAR
STARTCHAR K+2B4B
ENCODING 11083
SWIDTH 960 0
DWIDTH 10 0
BBX 10 10 0 -2
BITMAP
0000
0000
3f00
0000
0000
0000
0000
7f80
0000
0000
ENDCHAR
STARTCHAR K+2B4C
ENCODING 11084
SWIDTH 960 0
DWIDTH 10 0
BBX 10 10 0 -2
BITMAP
0000
3f80
0080
0100
0d00
0200
0500
0880
3000
0000
ENDCHAR
STARTCHAR K+2B4D
ENCODING 11085
SWIDTH 960 0
DWIDTH 10 0
BBX 10 10 0 -2
BITMAP
0400
0400
3f80
0100
0200
0e00
3580
0400
0400
0000
ENDCHAR
STARTCHAR K+2B4E
ENCODING 11086
SWIDTH 960 0
DWIDTH 10 0
BBX 10 10 0 -2
BITMAP
0000
0080
0080
0100
0100
0200
0400
0800
3000
0000
ENDCHAR
STARTCHAR K+2B4F
ENCODING 11087
SWIDTH 960 0
DWIDTH 10 0
BBX 10 10 0 -2
BITMAP
0000
1200
1200
1100
1100
2100
2080
2080
4080
0000
ENDCHAR
STARTCHAR K+2B50
ENCODING 11088
SWIDTH 960 0
DWIDTH 10 0
BBX 10 10 0 -2
BITMAP
0140
1140
1000
1200
1100
2100
2080
2080
4080
0000
ENDCHAR
STARTCHAR K+2B51
ENCODING 11089
SWIDTH 960 0
DWIDTH 10 0
BBX 10 10 0 -2
BITMAP
0080
0140
1140
1080
1200
2100
2080
2080
4080
0000
ENDCHAR
STARTCHAR K+2B52
ENCODING 11090
SWIDTH 960 0
DWIDTH 10 0
BBX 10 10 0 -2
BITMAP
2000
2000
2180
2600
3800
2000
2000
2000
1f80
0000
ENDCHAR
STARTCHAR K+2B53
ENCODING 11091
SWIDTH 960 0
DWIDTH 10 0
BBX 10 10 0 -2
BITMAP
2140
2140
2000
2600
3800
2000
2000
2000
1f80
0000
ENDCHAR
STARTCHAR K+2B54
ENCODING 11092
SWIDTH 960 0
DWIDTH 10 0
BBX 10 10 0 -2
BITMAP
2080
2140
2140
2480
3800
2000
2000
2000
1f80
0000
ENDCHAR
STARTCHAR K+2B55
ENCODING 11093
SWIDTH 960 0
DWIDTH 10 0
BBX 10 10 0 -2
BITMAP
0000
3f80
0080
0080
0080
0100
0100
0600
1800
0000
ENDCHAR
STARTCHAR K+2B56
ENCODING 11094
SWIDTH 960 0
DWIDTH 10 0
BBX 10 10 0 -2
BITMAP
0140
0140
3f80
0080
0080
0100
0100
0600
1800
0000
ENDCHAR
STARTCHAR K+2B57
ENCODING 11095
SWIDTH 960 0
DWIDTH 10 0
BBX 10 10 0 -2
BITMAP
0080
0140
3f40
0080
0080
0100
0100
0600
1800
0000
ENDCHAR
STARTCHAR K+2B58
ENCODING 11096
SWIDTH 960 0
DWIDTH 10 0
BBX 10 10 0 -2
BITMAP
0000
0000
1000
2800
4400
0200
0100
0080
0000
0000
ENDCHAR
STARTCHAR K+2B59
ENCODING 11097
SWIDTH 960 0
DWIDTH 10 0
BBX 10 10 0 -2
BITMAP
0000
0280
1280
2800
4400
0200
0100
0080
0000
0000
ENDCHAR
STARTCHAR K+2B5A
ENCODING 11098
SWIDTH 960 0
DWIDTH 10 0
BBX 10 10 0 -2
BITMAP
0080
0140
1140
2880
4400
0200
0100
0080
0000
0000
ENDCHAR
STARTCHAR K+2B5B
ENCODING 11099
SWIDTH 960 0
DWIDTH 10 0
BBX 10 10 0 -2
BITMAP
0400
0400
7fc0
0400
0400
2480
2440
4440
0c00
0000
ENDCHAR
STARTCHAR K+2B5C
ENCODING 11100
SWIDTH 960 0
DWIDTH 10 0
BBX 10 10 0 -2
BITMAP
0540
0540
7f80
0400
0400
2480
2440
4440
0c00
0000
ENDCHAR
STARTCHAR K+2B5D
ENCODING 11101
SWIDTH 960 0
DWIDTH 10 0
BBX 10 10 0 -2
BITMAP
0480
0540
7f40
0480
0400
2480
2440
4440
0c00
0000
ENDCHAR
STARTCHAR K+2B5E
ENCODING 11102
SWIDTH 960 0
DWIDTH 10 0
BBX 10 10 0 -2
BITMAP
0000
0000
7f80
0100
0200
1400
0800
0400
0400
0000
ENDCHAR
STARTCHAR K+2B5F
ENCODING 11103
SWIDTH 960 0
DWIDTH 10 0
BBX 10 10 0 -2
BITMAP
0000
1c00
0300
0000
1c00
0300
0000
3c00
0300
0000
ENDCHAR
STARTCHAR K+2B60
ENCODING 11104
SWIDTH 960 0
DWIDTH 10 0
BBX 10 10 0 -2
BITMAP
0000
0800
0800
0800
1000
1200
2100
2700
7880
0000
ENDCHAR
STARTCHAR K+2B61
ENCODING 11105
SWIDTH 960 0
DWIDTH 10 0
BBX 10 10 0 -2
BITMAP
0000
0080
0080
1900
0500
0200
0500
0880
3000
0000
ENDCHAR
STARTCHAR K+2B62
ENCODING 11106
SWIDTH 960 0
DWIDTH 10 0
BBX 10 10 0 -2
BITMAP
0000
3f00
0800
0800
7f80
0800
0800
0800
0780
0000
ENDCHAR
STARTCHAR K+2B63
ENCODING 11107
SWIDTH 960 0
DWIDTH 10 0
BBX 10 10 0 -2
BITMAP
0000
0000
0800
0800
3f00
0900
0a00
0800
0800
0000
ENDCHAR
STARTCHAR K+2B64
ENCODING 11108
SWIDTH 960 0
DWIDTH 10 0
BBX 10 10 0 -2
BITMAP
1000
1000
0fc0
7880
0900
0800
0400
0400
0400
0000
ENDCHAR
STARTCHAR K+2B65
ENCODING 11109
SWIDTH 960 0
DWIDTH 10 0
BBX 10 10 0 -2
BITMAP
0000
0000
0000
0000
1e00
0200
0200
3f80
0000
0000
ENDCHAR
STARTCHAR K+2B66
ENCODING 11110
SWIDTH 960 0
DWIDTH 10 0
BBX 10 10 0 -2
BITMAP
0000
0000
3f00
0100
0100
0200
0200
7f80
0000
0000
ENDCHAR
STARTCHAR K+2B67
ENCODING 11111
SWIDTH 960 0
DWIDTH 10 0
BBX 10 10 0 -2
BITMAP
0000
0000
0000
0000
3e00
0200
3e00
0200
3e00
0000
ENDCHAR
STARTCHAR K+2B68
ENCODING 11112
SWIDTH 960 0
DWIDTH 10 0
BBX 10 10 0 -2
BITMAP
0000
3f80
0080
0080
3f80
0080
0080
3f80
0080
0000
ENDCHAR
STARTCHAR K+2B69
ENCODING 11113
SWIDTH 960 0
DWIDTH 10 0
BBX 10 10 0 -2
BITMAP
0000
1f00
0000
3f80
0080
0080
0100
0200
0c00
0000
ENDCHAR
STARTCHAR K+2B6A
ENCODING 11114
SWIDTH 960 0
DWIDTH 10 0
BBX 10 10 0 -2
BITMAP
2100
2100
2100
2100
2100
0100
0200
0400
1800
0000
ENDCHAR
STARTCHAR K+2B6B
ENCODING 11115
SWIDTH 960 0
DWIDTH 10 0
BBX 10 10 0 -2
BITMAP
0000
2400
2400
2400
2400
2480
2480
4500
4600
0000
ENDCHAR
STARTCHAR K+2B6C
ENCODING 11116
SWIDTH 960 0
DWIDTH 10 0
BBX 10 10 0 -2
BITMAP
0000
2000
2000
2000
2000
2080
2100
2600
3800
0000
ENDCHAR
STARTCHAR K+2B6D
ENCODING 11117
SWIDTH 960 0
DWIDTH 10 0
BBX 10 10 0 -2
BITMAP
0000
0000
3f80
2080
2080
2080
2080
3f80
2080
0000
ENDCHAR
STARTCHAR K+2B6E
ENCODING 11118
SWIDTH 960 0
DWIDTH 10 0
BBX 10 10 0 -2
BITMAP
0000
0000
0000
3f00
2100
0100
0100
0200
0c00
0000
ENDCHAR
STARTCHAR K+2B6F
ENCODING 11119
SWIDTH 960 0
DWIDTH 10 0
BBX 10 10 0 -2
BITMAP
0000
3f80
2080
2080
0080
0080
0100
0200
0c00
0000
ENDCHAR
STARTCHAR K+2B70
ENCODING 11120
SWIDTH 960 0
DWIDTH 10 0
BBX 10 10 0 -2
BITMAP
0200
0200
7f80
2200
2200
7f80
0200
0200
0200
0000
ENDCHAR
STARTCHAR K+2B71
ENCODING 11121
SWIDTH 960 0
DWIDTH 10 0
BBX 10 10 0 -2
BITMAP
0000
3f00
0100
0a00
0800
0800
0800
7f80
0000
0000
ENDCHAR
STARTCHAR K+2B72
ENCODING 11122
SWIDTH 960 0
DWIDTH 10 0
BBX 10 10 0 -2
BITMAP
0000
3f80
0080
0080
3f80
0100
0100
0600
1800
0000
ENDCHAR
STARTCHAR K+2B73
ENCODING 11123
SWIDTH 960 0
DWIDTH 10 0
BBX 10 10 0 -2
BITMAP
0000
3000
0880
0080
0080
0100
0100
0600
3800
0000
ENDCHAR
STARTCHAR K+2B74
ENCODING 11124
SWIDTH 960 0
DWIDTH 10 0
BBX 10 10 0 -2
BITMAP
0540
0540
3f80
2080
2080
0080
0100
0200
0c00
0000
ENDCHAR
STARTCHAR K+2B75
ENCODING 11125
SWIDTH 960 0
DWIDTH 10 0
BBX 10 10 0 -2
BITMAP
0000
0000
0800
0800
3f00
0900
0900
1100
2300
0000
ENDCHAR
STARTCHAR K+2B76
ENCODING 11126
SWIDTH 960 0
DWIDTH 10 0
BBX 10 10 0 -2
BITMAP
0000
0000
0800
0800
1f80
2200
0200
0400
1800
0000
ENDCHAR
STARTCHAR K+2C21
ENCODING 11297
SWIDTH 960 0
DWIDTH 10 0
BBX 10 10 0 -2
BITMAP
0000
0400
0400
0a00
0a00
1f00
1100
3b80
0000
0000
ENDCHAR
STARTCHAR K+2C22
ENCODING 11298
SWIDTH 960 0
DWIDTH 10 0
BBX 10 10 0 -2
BITMAP
0000
3f00
1100
1000
1e00
1100
1100
3e00
0000
0000
ENDCHAR
STARTCHAR K+2C23
ENCODING 11299
SWIDTH 960 0
DWIDTH 10 0
BBX 10 10 0 -2
BITMAP
0000
3e00
1100
1100
1e00
1100
1100
3e00
0000
0000
ENDCHAR
STARTCHAR K+2C24
ENCODING 11300
SWIDTH 960 0
DWIDTH 10 0
BBX 10 10 0 -2
BITMAP
0000
3f00
1100
1000
1000
1000
1000
3800
0000
0000
ENDCHAR
STARTCHAR K+2C25
ENCODING 11301
SWIDTH 960 0
DWIDTH 10 0
BBX 10 10 0 -2
BITMAP
0000
1f80
0900
0900
0900
1100
1100
3f80
2080
0000
ENDCHAR
STARTCHAR K+2C26
ENCODING 11302
SWIDTH 960 0
DWIDTH 10 0
BBX 10 10 0 -2
BITMAP
0000
3f00
1100
1400
1c00
1400
1100
3f00
0000
0000
ENDCHAR
STARTCHAR K+2C27
ENCODING 11303
SWIDTH 960 0
DWIDTH 10 0
BBX 10 10 0 -2
BITMAP
1200
0000
3f00
1100
1c00
1000
1100
3f00
0000
0000
ENDCHAR
STARTCHAR K+2C28
ENCODING 11304
SWIDTH 960 0
DWIDTH 10 0
BBX 10 10 0 -2
BITMAP
0000
6ec0
5540
1500
0e00
1500
2480
6ec0
0000
0000
ENDCHAR
STARTCHAR K+2C29
ENCODING 11305
SWIDTH 960 0
DWIDTH 10 0
BBX 10 10 0 -2
BITMAP
0000
1e00
2100
0200
0c00
0200
2100
1e00
0000
0000
ENDCHAR
STARTCHAR K+2C2A
ENCODING 11306
SWIDTH 960 0
DWIDTH 10 0
BBX 10 10 0 -2
BITMAP
0000
3b80
1100
1300
1500
1900
1100
3b80
0000
0000
ENDCHAR
STARTCHAR K+2C2B
ENCODING 11307
SWIDTH 960 0
DWIDTH 10 0
BBX 10 10 0 -2
BITMAP
1100
0e00
3180
1300
1500
1900
1100
3b80
0000
0000
ENDCHAR
STARTCHAR K+2C2C
ENCODING 11308
SWIDTH 960 0
DWIDTH 10 0
BBX 10 10 0 -2
BITMAP
0000
3980
1280
1200
1c00
1200
1100
3b80
0000
0000
ENDCHAR
STARTCHAR K+2C2D
ENCODING 11309
SWIDTH 960 0
DWIDTH 10 0
BBX 10 10 0 -2
BITMAP
0000
1f80
0900
0900
0900
0900
2900
3380
0000
0000
ENDCHAR
STARTCHAR K+2C2E
ENCODING 11310
SWIDTH 960 0
DWIDTH 10 0
BBX 10 10 0 -2
BITMAP
0000
71c0
3180
2a80
2a80
2480
2480
71c0
0000
0000
ENDCHAR
STARTCHAR K+2C2F
ENCODING 11311
SWIDTH 960 0
DWIDTH 10 0
BBX 10 10 0 -2
BITMAP
0000
3b80
1100
1100
1f00
1100
1100
3b80
0000
0000
ENDCHAR
STARTCHAR K+2C30
ENCODING 11312
SWIDTH 960 0
DWIDTH 10 0
BBX 10 10 0 -2
BITMAP
0000
0e00
1100
2080
2080
2080
1100
0e00
0000
0000
ENDCHAR
STARTCHAR K+2C31
ENCODING 11313
SWIDTH 960 0
DWIDTH 10 0
BBX 10 10 0 -2
BITMAP
0000
3f80
1100
1100
1100
1100
1100
3b80
0000
0000
ENDCHAR
STARTCHAR K+2C32
ENCODING 11314
SWIDTH 960 0
DWIDTH 10 0
BBX 10 10 0 -2
BITMAP
0000
3e00
1100
1100
1e00
1000
1000
3800
0000
0000
ENDCHAR
STARTCHAR K+2C33
ENCODING 11315
SWIDTH 960 0
DWIDTH 10 0
BBX 10 10 0 -2
BITMAP
0000
0f00
1100
2000
2000
2000
1100
0e00
0000
0000
ENDCHAR
STARTCHAR K+2C34
ENCODING 11316
SWIDTH 960 0
DWIDTH 10 0
BBX 10 10 0 -2
BITMAP
0000
3f80
2480
0400
0400
0400
0400
0e00
0000
0000
ENDCHAR
STARTCHAR K+2C35
ENCODING 11317
SWIDTH 960 0
DWIDTH 10 0
BBX 10 10 0 -2
BITMAP
0000
3b80
1100
1100
0a00
0a00
2400
1800
0000
0000
ENDCHAR
STARTCHAR K+2C36
ENCODING 11318
SWIDTH 960 0
DWIDTH 10 0
BBX 10 10 0 -2
BITMAP
0000
0400
1f00
2480
2480
2480
1f00
0400
0000
0000
ENDCHAR
STARTCHAR K+2C37
ENCODING 11319
SWIDTH 960 0
DWIDTH 10 0
BBX 10 10 0 -2
BITMAP
0000
3b80
1100
0a00
0400
0a00
1100
3b80
0000
0000
ENDCHAR
STARTCHAR K+2C38
ENCODING 11320
SWIDTH 960 0
DWIDTH 10 0
BBX 10 10 0 -2
BITMAP
0000
3b80
1100
1100
1100
1100
1100
3f80
0080
0000
ENDCHAR
STARTCHAR K+2C39
ENCODING 11321
SWIDTH 960 0
DWIDTH 10 0
BBX 10 10 0 -2
BITMAP
0000
3b80
1100
1100
1300
0d00
0100
0380
0000
0000
ENDCHAR
STARTCHAR K+2C3A
ENCODING 11322
SWIDTH 960 0
DWIDTH 10 0
BBX 10 10 0 -2
BITMAP
0000
6dc0
2480
2480
2480
2480
2480
7fc0
0000
0000
ENDCHAR
STARTCHAR K+2C3B
ENCODING 11323
SWIDTH 960 0
DWIDTH 10 0
BBX 10 10 0 -2
BITMAP
0000
6dc0
2480
2480
2480
2480
2480
7fc0
0040
0000
ENDCHAR
STARTCHAR K+2C3C
ENCODING 11324
SWIDTH 960 0
DWIDTH 10 0
BBX 10 10 0 -2
BITMAP
0000
3800
2800
0800
0f00
0880
0880
1f00
0000
0000
ENDCHAR
STARTCHAR K+2C3D
ENCODING 11325
SWIDTH 960 0
DWIDTH 10 0
BBX 10 10 0 -2
BITMAP
0000
71c0
2080
2080
3c80
2280
2280
7dc0
0000
0000
ENDCHAR
STARTCHAR K+2C3E
ENCODING 11326
SWIDTH 960 0
DWIDTH 10 0
BBX 10 10 0 -2
BITMAP
0000
3800
1000
1000
1e00
1100
1100
3e00
0000
0000
ENDCHAR
STARTCHAR K+2C3F
ENCODING 11327
SWIDTH 960 0
DWIDTH 10 0
BBX 10 10 0 -2
BITMAP
0000
1c00
2200
0100
0f00
0100
2200
1c00
0000
0000
ENDCHAR
STARTCHAR K+2C40
ENCODING 11328
SWIDTH 960 0
DWIDTH 10 0
BBX 10 10 0 -2
BITMAP
0000
7380
2440
2440
3c40
2440
2440
7380
0000
0000
ENDCHAR
STARTCHAR K+2C41
ENCODING 11329
SWIDTH 960 0
DWIDTH 10 0
BBX 10 10 0 -2
BITMAP
0000
1f00
2200
2200
1e00
0a00
1200
2700
0000
0000
ENDCHAR
STARTCHAR K+2C51
ENCODING 11345
SWIDTH 960 0
DWIDTH 10 0
BBX 10 10 0 -2
BITMAP
0000
0000
0000
1c00
0200
1e00
2200
1d00
0000
0000
ENDCHAR
STARTCHAR K+2C52
ENCODING 11346
SWIDTH 960 0
DWIDTH 10 0
BBX 10 10 0 -2
BITMAP
0100
0e00
1000
1e00
1100
1100
1100
0e00
0000
0000
ENDCHAR
STARTCHAR K+2C53
ENCODING 11347
SWIDTH 960 0
DWIDTH 10 0
BBX 10 10 0 -2
BITMAP
0000
0000
0000
1e00
0900
0e00
0900
1e00
0000
0000
ENDCHAR
STARTCHAR K+2C54
ENCODING 11348
SWIDTH 960 0
DWIDTH 10 0
BBX 10 10 0 -2
BITMAP
0000
0000
0000
1f00
0900
0800
0800
1c00
0000
0000
ENDCHAR
STARTCHAR K+2C55
ENCODING 11349
SWIDTH 960 0
DWIDTH 10 0
BBX 10 10 0 -2
BITMAP
0000
0000
0000
1f00
0a00
0a00
1200
3f00
2100
0000
ENDCHAR
STARTCHAR K+2C56
ENCODING 11350
SWIDTH 960 0
DWIDTH 10 0
BBX 10 10 0 -2
BITMAP
0000
0000
0000
0e00
1100
1f00
1000
0e00
0000
0000
ENDCHAR
STARTCHAR K+2C57
ENCODING 11351
SWIDTH 960 0
DWIDTH 10 0
BBX 10 10 0 -2
BITMAP
0000
0a00
0000
0e00
1100
1f00
1000
0e00
0000
0000
ENDCHAR
STARTCHAR K+2C58
ENCODING 11352
SWIDTH 960 0
DWIDTH 10 0
BBX 10 10 0 -2
BITMAP
0000
0000
0000
3580
1500
0e00
1500
3580
0000
0000
ENDCHAR
STARTCHAR K+2C59
ENCODING 11353
SWIDTH 960 0
DWIDTH 10 0
BBX 10 10 0 -2
BITMAP
0000
0000
0000
0e00
1100
0600
1100
0e00
0000
0000
ENDCHAR
STARTCHAR K+2C5A
ENCODING 11354
SWIDTH 960 0
DWIDTH 10 0
BBX 10 10 0 -2
BITMAP
0000
0000
0000
3980
1300
1500
1900
3380
0000
0000
ENDCHAR
STARTCHAR K+2C5B
ENCODING 11355
SWIDTH 960 0
DWIDTH 10 0
BBX 10 10 0 -2
BITMAP
0000
0a00
0400
3180
1300
1500
1900
3380
0000
0000
ENDCHAR
STARTCHAR K+2C5C
ENCODING 11356
SWIDTH 960 0
DWIDTH 10 0
BBX 10 10 0 -2
BITMAP
0000
0000
0000
3b00
1500
1c00
1200
3b00
0000
0000
ENDCHAR
STARTCHAR K+2C5D
ENCODING 11357
SWIDTH 960 0
DWIDTH 10 0
BBX 10 10 0 -2
BITMAP
0000
0000
0000
1f00
0a00
0a00
2a00
3200
0000
0000
ENDCHAR
STARTCHAR K+2C5E
ENCODING 11358
SWIDTH 960 0
DWIDTH 10 0
BBX 10 10 0 -2
BITMAP
0000
0000
0000
3180
1b00
1500
1500
3180
0000
0000
ENDCHAR
STARTCHAR K+2C5F
ENCODING 11359
SWIDTH 960 0
DWIDTH 10 0
BBX 10 10 0 -2
BITMAP
0000
0000
0000
3b80
1100
1f00
1100
3b80
0000
0000
ENDCHAR
STARTCHAR K+2C60
ENCODING 11360
SWIDTH 960 0
DWIDTH 10 0
BBX 10 10 0 -2
BITMAP
0000
0000
0000
0e00
1100
1100
1100
0e00
0000
0000
ENDCHAR
STARTCHAR K+2C61
ENCODING 11361
SWIDTH 960 0
DWIDTH 10 0
BBX 10 10 0 -2
BITMAP
0000
0000
0000
3f80
1100
1100
1100
3b80
0000
0000
ENDCHAR
STARTCHAR K+2C62
ENCODING 11362
SWIDTH 960 0
DWIDTH 10 0
BBX 10 10 0 -2
BITMAP
0000
0000
0000
3600
1900
1100
1900
1600
1000
3800
ENDCHAR
STARTCHAR K+2C63
ENCODING 11363
SWIDTH 960 0
DWIDTH 10 0
BBX 10 10 0 -2
BITMAP
0000
0000
0000
0e00
1100
1000
1100
0e00
0000
0000
ENDCHAR
STARTCHAR K+2C64
ENCODING 11364
SWIDTH 960 0
DWIDTH 10 0
BBX 10 10 0 -2
BITMAP
0000
0000
0000
1f00
1500
0400
0400
0e00
0000
0000
ENDCHAR
STARTCHAR K+2C65
ENCODING 11365
SWIDTH 960 0
DWIDTH 10 0
BBX 10 10 0 -2
BITMAP
0000
0000
0000
3b80
1100
0a00
0a00
0400
2400
1800
ENDCHAR
STARTCHAR K+2C66
ENCODING 11366
SWIDTH 960 0
DWIDTH 10 0
BBX 10 10 0 -2
BITMAP
0000
0e00
0400
1500
2e80
2480
2e80
1500
0400
0e00
ENDCHAR
STARTCHAR K+2C67
ENCODING 11367
SWIDTH 960 0
DWIDTH 10 0
BBX 10 10 0 -2
BITMAP
0000
0000
0000
3b80
0a00
0400
0a00
3b80
0000
0000
ENDCHAR
STARTCHAR K+2C68
ENCODING 11368
SWIDTH 960 0
DWIDTH 10 0
BBX 10 10 0 -2
BITMAP
0000
0000
0000
3b80
1100
1100
1100
3f80
0080
0000
ENDCHAR
STARTCHAR K+2C69
ENCODING 11369
SWIDTH 960 0
DWIDTH 10 0
BBX 10 10 0 -2
BITMAP
0000
0000
0000
3b80
1100
1300
0d00
0380
0000
0000
ENDCHAR
STARTCHAR K+2C6A
ENCODING 11370
SWIDTH 960 0
DWIDTH 10 0
BBX 10 10 0 -2
BITMAP
0000
0000
0000
6dc0
2480
2480
2480
7fc0
0000
0000
ENDCHAR
STARTCHAR K+2C6B
ENCODING 11371
SWIDTH 960 0
DWIDTH 10 0
BBX 10 10 0 -2
BITMAP
0000
0000
0000
6dc0
2480
2480
2480
7fc0
0040
0000
ENDCHAR
STARTCHAR K+2C6C
ENCODING 11372
SWIDTH 960 0
DWIDTH 10 0
BBX 10 10 0 -2
BITMAP
0000
0000
0000
3800
0800
0e00
0900
0e00
0000
0000
ENDCHAR
STARTCHAR K+2C6D
ENCODING 11373
SWIDTH 960 0
DWIDTH 10 0
BBX 10 10 0 -2
BITMAP
0000
0000
0000
2100
2100
3900
2500
3900
0000
0000
ENDCHAR
STARTCHAR K+2C6E
ENCODING 11374
SWIDTH 960 0
DWIDTH 10 0
BBX 10 10 0 -2
BITMAP
0000
0000
0000
1000
1000
1c00
1200
1c00
0000
0000
ENDCHAR
STARTCHAR K+2C6F
ENCODING 11375
SWIDTH 960 0
DWIDTH 10 0
BBX 10 10 0 -2
BITMAP
0000
0000
0000
0e00
1100
0700
1100
0e00
0000
0000
ENDCHAR
STARTCHAR K+2C70
ENCODING 11376
SWIDTH 960 0
DWIDTH 10 0
BBX 10 10 0 -2
BITMAP
0000
0000
0000
2600
2900
3900
2900
2600
0000
0000
ENDCHAR
STARTCHAR K+2C71
ENCODING 11377
SWIDTH 960 0
DWIDTH 10 0
BBX 10 10 0 -2
BITMAP
0000
0000
0000
1f00
2200
1e00
0a00
3700
0000
0000
ENDCHAR
STARTCHAR K+3021
ENCODING 12321
SWIDTH 960 0
DWIDTH 10 0
BBX 10 10 0 -2
BITMAP
7c80
0480
0480
0480
08c0
0880
1080
6080
0080
0000
ENDCHAR
STARTCHAR K+3022
ENCODING 12322
SWIDTH 960 0
DWIDTH 10 0
BBX 10 10 0 -2
BITMAP
7c80
0480
04c0
1880
6080
0000
3f80
0080
0080
0000
ENDCHAR
STARTCHAR K+3023
ENCODING 12323
SWIDTH 960 0
DWIDTH 10 0
BBX 10 10 0 -2
BITMAP
7c80
0480
04c0
0880
1080
6080
2000
2000
1f80
0000
ENDCHAR
STARTCHAR K+3024
ENCODING 12324
SWIDTH 960 0
DWIDTH 10 0
BBX 10 10 0 -2
BITMAP
7c80
0480
04c0
1880
6080
0000
3f80
2000
1f80
0000
ENDCHAR
STARTCHAR K+3025
ENCODING 12325
SWIDTH 960 0
DWIDTH 10 0
BBX 10 10 0 -2
BITMAP
7c80
0480
04c0
1880
6080
3f80
0080
3f00
1f80
0000
ENDCHAR
STARTCHAR K+3026
ENCODING 12326
SWIDTH 960 0
DWIDTH 10 0
BBX 10 10 0 -2
BITMAP
7c80
0480
04c0
1880
6080
3b80
0880
7080
3880
0000
ENDCHAR
STARTCHAR K+3027
ENCODING 12327
SWIDTH 960 0
DWIDTH 10 0
BBX 10 10 0 -2
BITMAP
7c80
0480
04c0
1880
6080
3b80
0a80
7280
3980
0000
ENDCHAR
STARTCHAR K+3028
ENCODING 12328
SWIDTH 960 0
DWIDTH 10 0
BBX 10 10 0 -2
BITMAP
7c80
0480
04c0
1880
6080
0000
3f80
2080
1f80
0000
ENDCHAR
STARTCHAR K+3029
ENCODING 12329
SWIDTH 960 0
DWIDTH 10 0
BBX 10 10 0 -2
BITMAP
7c80
0480
04c0
1880
6080
2080
3f80
2080
1f80
0000
ENDCHAR
STARTCHAR K+302A
ENCODING 12330
SWIDTH 960 0
DWIDTH 10 0
BBX 10 10 0 -2
BITMAP
7c80
0480
04c0
1880
6080
2400
3d00
2680
1c40
0000
ENDCHAR
STARTCHAR K+302B
ENCODING 12331
SWIDTH 960 0
DWIDTH 10 0
BBX 10 10 0 -2
BITMAP
7c80
0480
04c0
1880
6080
0000
0400
0a00
3180
0000
ENDCHAR
STARTCHAR K+302C
ENCODING 12332
SWIDTH 960 0
DWIDTH 10 0
BBX 10 10 0 -2
BITMAP
7c80
0480
04c0
1880
6080
0000
1100
2a80
4440
0000
ENDCHAR
STARTCHAR K+302D
ENCODING 12333
SWIDTH 960 0
DWIDTH 10 0
BBX 10 10 0 -2
BITMAP
7c80
0480
04c0
1880
6080
0000
1f00
2080
1f00
0000
ENDCHAR
STARTCHAR K+302E
ENCODING 12334
SWIDTH 960 0
DWIDTH 10 0
BBX 10 10 0 -2
BITMAP
7c80
0480
04c0
1880
6080
0000
3f80
0a00
3180
0000
ENDCHAR
STARTCHAR K+302F
ENCODING 12335
SWIDTH 960 0
DWIDTH 10 0
BBX 10 10 0 -2
BITMAP
7c80
0480
04c0
1880
6080
0400
3f80
0a00
3180
0000
ENDCHAR
STARTCHAR K+3030
ENCODING 12336
SWIDTH 960 0
DWIDTH 10 0
BBX 10 10 0 -2
BITMAP
7c80
0480
04c0
1880
6080
3f80
3f00
2000
1f80
0000
ENDCHAR
STARTCHAR K+3031
ENCODING 12337
SWIDTH 960 0
DWIDTH 10 0
BBX 10 10 0 -2
BITMAP
7c80
0480
04c0
1880
6080
0000
3f80
1100
3f80
0000
ENDCHAR
STARTCHAR K+3032
ENCODING 12338
SWIDTH 960 0
DWIDTH 10 0
BBX 10 10 0 -2
BITMAP
7c80
0480
04c0
1880
6080
0400
7fc0
2080
1f00
0000
ENDCHAR
STARTCHAR K+3033
ENCODING 12339
SWIDTH 960 0
DWIDTH 10 0
BBX 10 10 0 -2
BITMAP
7940
0940
0940
0940
09c0
1140
2140
4140
0140
0000
ENDCHAR
STARTCHAR K+3034
ENCODING 12340
SWIDTH 960 0
DWIDTH 10 0
BBX 10 10 0 -2
BITMAP
7940
0940
09c0
1140
6140
0000
1fc0
0040
0040
0000
ENDCHAR
STARTCHAR K+3035
ENCODING 12341
SWIDTH 960 0
DWIDTH 10 0
BBX 10 10 0 -2
BITMAP
7940
0940
09c0
0940
1140
6140
1000
1000
0fc0
0000
ENDCHAR
STARTCHAR K+3036
ENCODING 12342
SWIDTH 960 0
DWIDTH 10 0
BBX 10 10 0 -2
BITMAP
7940
0940
09c0
1140
6140
1fc0
0040
1f80
0fc0
0000
ENDCHAR
STARTCHAR K+3037
ENCODING 12343
SWIDTH 960 0
DWIDTH 10 0
BBX 10 10 0 -2
BITMAP
7940
0940
09c0
1140
6140
0000
1fc0
1040
0fc0
0000
ENDCHAR
STARTCHAR K+3038
ENCODING 12344
SWIDTH 960 0
DWIDTH 10 0
BBX 10 10 0 -2
BITMAP
7940
0940
09c0
1140
6140
1040
1fc0
1040
0fc0
0000
ENDCHAR
STARTCHAR K+3039
ENCODING 12345
SWIDTH 960 0
DWIDTH 10 0
BBX 10 10 0 -2
BITMAP
7940
0940
09c0
1140
6140
0000
0200
0500
18c0
0000
ENDCHAR
STARTCHAR K+303A
ENCODING 12346
SWIDTH 960 0
DWIDTH 10 0
BBX 10 10 0 -2
BITMAP
7940
0940
09c0
1140
6140
0000
1100
2a80
4440
0000
ENDCHAR
STARTCHAR K+303B
ENCODING 12347
SWIDTH 960 0
DWIDTH 10 0
BBX 10 10 0 -2
BITMAP
7940
0940
09c0
1140
6140
0000
0f80
1040
0f80
0000
ENDCHAR
STARTCHAR K+303C
ENCODING 12348
SWIDTH 960 0
DWIDTH 10 0
BBX 10 10 0 -2
BITMAP
7c80
0480
04c0
0480
0880
08c0
1080
6080
0080
0000
ENDCHAR
STARTCHAR K+303D
ENCODING 12349
SWIDTH 960 0
DWIDTH 10 0
BBX 10 10 0 -2
BITMAP
7c80
04c0
0480
18c0
6080
0000
3f80
0080
0080
0000
ENDCHAR
STARTCHAR K+303E
ENCODING 12350
SWIDTH 960 0
DWIDTH 10 0
BBX 10 10 0 -2
BITMAP
7c80
04c0
0480
08c0
1080
6080
2000
2000
1f80
0000
ENDCHAR
STARTCHAR K+303F
ENCODING 12351
SWIDTH 960 0
DWIDTH 10 0
BBX 10 10 0 -2
BITMAP
7c80
04c0
0480
18c0
6080
3f80
0080
3f00
1f80
0000
ENDCHAR
STARTCHAR K+3040
ENCODING 12352
SWIDTH 960 0
DWIDTH 10 0
BBX 10 10 0 -2
BITMAP
7c80
04c0
0480
18c0
6080
0000
0400
0a00
3180
0000
ENDCHAR
STARTCHAR K+3041
ENCODING 12353
SWIDTH 960 0
DWIDTH 10 0
BBX 10 10 0 -2
BITMAP
7c80
04c0
0480
18c0
6080
0000
1f00
2080
1f00
0000
ENDCHAR
STARTCHAR K+3042
ENCODING 12354
SWIDTH 960 0
DWIDTH 10 0
BBX 10 10 0 -2
BITMAP
7940
0940
09c0
0940
0940
11c0
2140
4140
0140
0000
ENDCHAR
STARTCHAR K+3043
ENCODING 12355
SWIDTH 960 0
DWIDTH 10 0
BBX 10 10 0 -2
BITMAP
7940
09c0
0940
09c0
1140
6140
1000
1000
0fc0
0000
ENDCHAR
STARTCHAR K+3044
ENCODING 12356
SWIDTH 960 0
DWIDTH 10 0
BBX 10 10 0 -2
BITMAP
7940
09c0
0940
11c0
6140
1fc0
0040
1f80
0fc0
0000
ENDCHAR
STARTCHAR K+3045
ENCODING 12357
SWIDTH 960 0
DWIDTH 10 0
BBX 10 10 0 -2
BITMAP
7c80
0480
0480
0480
0b80
0880
1080
6080
0080
0000
ENDCHAR
STARTCHAR K+3046
ENCODING 12358
SWIDTH 960 0
DWIDTH 10 0
BBX 10 10 0 -2
BITMAP
7c80
0480
0780
1880
6080
0000
3f80
0080
0080
0000
ENDCHAR
STARTCHAR K+3047
ENCODING 12359
SWIDTH 960 0
DWIDTH 10 0
BBX 10 10 0 -2
BITMAP
7c80
0480
0780
0880
1080
6080
2000
2000
1f80
0000
ENDCHAR
STARTCHAR K+3048
ENCODING 12360
SWIDTH 960 0
DWIDTH 10 0
BBX 10 10 0 -2
BITMAP
7c80
0480
0780
1880
6080
0000
3f80
2000
1f80
0000
ENDCHAR
STARTCHAR K+3049
ENCODING 12361
SWIDTH 960 0
DWIDTH 10 0
BBX 10 10 0 -2
BITMAP
7c80
0480
0780
1880
6080
3f80
0080
3f00
1f80
0000
ENDCHAR
STARTCHAR K+304A
ENCODING 12362
SWIDTH 960 0
DWIDTH 10 0
BBX 10 10 0 -2
BITMAP
7c80
0480
0780
1880
6080
3b80
0a80
7280
3980
0000
ENDCHAR
STARTCHAR K+304B
ENCODING 12363
SWIDTH 960 0
DWIDTH 10 0
BBX 10 10 0 -2
BITMAP
7c80
0480
0780
1880
6080
0000
3f80
2080
1f80
0000
ENDCHAR
STARTCHAR K+304C
ENCODING 12364
SWIDTH 960 0
DWIDTH 10 0
BBX 10 10 0 -2
BITMAP
7c80
0480
0780
1880
6080
2080
3f80
2080
1f80
0000
ENDCHAR
STARTCHAR K+304D
ENCODING 12365
SWIDTH 960 0
DWIDTH 10 0
BBX 10 10 0 -2
BITMAP
7c80
0480
0780
1880
6080
0000
0400
0a00
3180
0000
ENDCHAR
STARTCHAR K+304E
ENCODING 12366
SWIDTH 960 0
DWIDTH 10 0
BBX 10 10 0 -2
BITMAP
7c80
0480
0780
1880
6080
0000
1100
2a80
4440
0000
ENDCHAR
STARTCHAR K+304F
ENCODING 12367
SWIDTH 960 0
DWIDTH 10 0
BBX 10 10 0 -2
BITMAP
7c80
0480
0780
1880
6080
0000
1f00
2080
1f00
0000
ENDCHAR
STARTCHAR K+3050
ENCODING 12368
SWIDTH 960 0
DWIDTH 10 0
BBX 10 10 0 -2
BITMAP
7c80
0480
0780
1880
6080
0000
3f80
0a00
3180
0000
ENDCHAR
STARTCHAR K+3051
ENCODING 12369
SWIDTH 960 0
DWIDTH 10 0
BBX 10 10 0 -2
BITMAP
7c80
0480
0780
1880
6080
3f80
3f00
2000
1f80
0000
ENDCHAR
STARTCHAR K+3052
ENCODING 12370
SWIDTH 960 0
DWIDTH 10 0
BBX 10 10 0 -2
BITMAP
7c80
0480
0780
1880
6080
0000
3f80
1100
3f80
0000
ENDCHAR
STARTCHAR K+3053
ENCODING 12371
SWIDTH 960 0
DWIDTH 10 0
BBX 10 10 0 -2
BITMAP
7c80
0480
0780
1880
6080
0400
7fc0
1080
0f00
0000
ENDCHAR
STARTCHAR K+3054
ENCODING 12372
SWIDTH 960 0
DWIDTH 10 0
BBX 10 10 0 -2
BITMAP
7940
0940
0940
0f40
0940
1140
2140
4140
0140
0000
ENDCHAR
STARTCHAR K+3055
ENCODING 12373
SWIDTH 960 0
DWIDTH 10 0
BBX 10 10 0 -2
BITMAP
7940
0940
0b40
0940
1140
6140
1000
1000
0fc0
0000
ENDCHAR
STARTCHAR K+3056
ENCODING 12374
SWIDTH 960 0
DWIDTH 10 0
BBX 10 10 0 -2
BITMAP
7940
0940
0b40
1140
6140
1fc0
0040
1f80
0fc0
0000
ENDCHAR
STARTCHAR K+3057
ENCODING 12375
SWIDTH 960 0
DWIDTH 10 0
BBX 10 10 0 -2
BITMAP
7940
0940
0b40
1140
6140
0000
1fc0
1040
0fc0
0000
ENDCHAR
STARTCHAR K+3058
ENCODING 12376
SWIDTH 960 0
DWIDTH 10 0
BBX 10 10 0 -2
BITMAP
7940
0940
0b40
1140
6140
1040
1fc0
1040
0fc0
0000
ENDCHAR
STARTCHAR K+3059
ENCODING 12377
SWIDTH 960 0
DWIDTH 10 0
BBX 10 10 0 -2
BITMAP
7940
0940
0b40
1140
6140
0000
0200
0500
18c0
0000
ENDCHAR
STARTCHAR K+305A
ENCODING 12378
SWIDTH 960 0
DWIDTH 10 0
BBX 10 10 0 -2
BITMAP
7940
0940
0b40
1140
6140
0000
1100
2a80
4440
0000
ENDCHAR
STARTCHAR K+305B
ENCODING 12379
SWIDTH 960 0
DWIDTH 10 0
BBX 10 10 0 -2
BITMAP
7940
0940
0b40
1140
6140
0000
0f80
1040
0f80
0000
ENDCHAR
STARTCHAR K+305C
ENCODING 12380
SWIDTH 960 0
DWIDTH 10 0
BBX 10 10 0 -2
BITMAP
7c80
0480
0780
0480
0880
0b80
1080
6080
0080
0000
ENDCHAR
STARTCHAR K+305D
ENCODING 12381
SWIDTH 960 0
DWIDTH 10 0
BBX 10 10 0 -2
BITMAP
7c80
0780
0480
1b80
6080
0000
3f80
0080
0080
0000
ENDCHAR
STARTCHAR K+305E
ENCODING 12382
SWIDTH 960 0
DWIDTH 10 0
BBX 10 10 0 -2
BITMAP
7c80
0780
0480
1b80
6080
0000
3b80
0880
0880
0000
ENDCHAR
STARTCHAR K+305F
ENCODING 12383
SWIDTH 960 0
DWIDTH 10 0
BBX 10 10 0 -2
BITMAP
7c80
0780
0480
0b80
1080
6080
2000
2000
1f80
0000
ENDCHAR
STARTCHAR K+3060
ENCODING 12384
SWIDTH 960 0
DWIDTH 10 0
BBX 10 10 0 -2
BITMAP
7c80
0780
0480
1b80
6080
0000
3f80
2000
1f80
0000
ENDCHAR
STARTCHAR K+3061
ENCODING 12385
SWIDTH 960 0
DWIDTH 10 0
BBX 10 10 0 -2
BITMAP
7c80
0780
0480
1b80
6080
3f80
0080
3f00
1f80
0000
ENDCHAR
STARTCHAR K+3062
ENCODING 12386
SWIDTH 960 0
DWIDTH 10 0
BBX 10 10 0 -2
BITMAP
7c80
0780
0480
1b80
6080
0000
3f80
2080
1f80
0000
ENDCHAR
STARTCHAR K+3063
ENCODING 12387
SWIDTH 960 0
DWIDTH 10 0
BBX 10 10 0 -2
BITMAP
7c80
0780
0480
1b80
6080
2080
3f80
2080
1f80
0000
ENDCHAR
STARTCHAR K+3064
ENCODING 12388
SWIDTH 960 0
DWIDTH 10 0
BBX 10 10 0 -2
BITMAP
7c80
0780
0480
1b80
6080
0000
0400
0a00
3180
0000
ENDCHAR
STARTCHAR K+3065
ENCODING 12389
SWIDTH 960 0
DWIDTH 10 0
BBX 10 10 0 -2
BITMAP
7c80
0780
0480
1b80
6080
0000
1100
2a80
4440
0000
ENDCHAR
STARTCHAR K+3066
ENCODING 12390
SWIDTH 960 0
DWIDTH 10 0
BBX 10 10 0 -2
BITMAP
7c80
0780
0480
1b80
6080
0000
1f00
2080
1f00
0000
ENDCHAR
STARTCHAR K+3067
ENCODING 12391
SWIDTH 960 0
DWIDTH 10 0
BBX 10 10 0 -2
BITMAP
7c80
0780
0480
1b80
6080
3f80
3f00
2000
1f80
0000
ENDCHAR
STARTCHAR K+3068
ENCODING 12392
SWIDTH 960 0
DWIDTH 10 0
BBX 10 10 0 -2
BITMAP
7940
0940
0f40
0940
0940
1740
2140
4140
0140
0000
ENDCHAR
STARTCHAR K+3069
ENCODING 12393
SWIDTH 960 0
DWIDTH 10 0
BBX 10 10 0 -2
BITMAP
7940
0b40
0940
0b40
1140
6140
1000
1000
0fc0
0000
ENDCHAR
STARTCHAR K+306A
ENCODING 12394
SWIDTH 960 0
DWIDTH 10 0
BBX 10 10 0 -2
BITMAP
7940
0b40
0940
1340
6140
1fc0
0040
1f80
0fc0
0000
ENDCHAR
STARTCHAR K+306B
ENCODING 12395
SWIDTH 960 0
DWIDTH 10 0
BBX 10 10 0 -2
BITMAP
7940
0b40
0940
1340
6140
1040
1fc0
1040
0fc0
0000
ENDCHAR
STARTCHAR K+306C
ENCODING 12396
SWIDTH 960 0
DWIDTH 10 0
BBX 10 10 0 -2
BITMAP
7940
0b40
0940
1340
6140
0000
0200
0500
18c0
0000
ENDCHAR
STARTCHAR K+306D
ENCODING 12397
SWIDTH 960 0
DWIDTH 10 0
BBX 10 10 0 -2
BITMAP
3f80
0080
0080
0080
0880
0880
0880
0800
7fc0
0000
ENDCHAR
STARTCHAR K+306E
ENCODING 12398
SWIDTH 960 0
DWIDTH 10 0
BBX 10 10 0 -2
BITMAP
3f80
0080
0880
0880
7fc0
0000
3f80
0080
0080
0000
ENDCHAR
STARTCHAR K+306F
ENCODING 12399
SWIDTH 960 0
DWIDTH 10 0
BBX 10 10 0 -2
BITMAP
3f80
0080
0080
0880
0800
7fc0
2000
2000
1f80
0000
ENDCHAR
STARTCHAR K+3070
ENCODING 12400
SWIDTH 960 0
DWIDTH 10 0
BBX 10 10 0 -2
BITMAP
3f80
0080
0880
0880
7fc0
0000
3f80
2000
1f80
0000
ENDCHAR
STARTCHAR K+3071
ENCODING 12401
SWIDTH 960 0
DWIDTH 10 0
BBX 10 10 0 -2
BITMAP
3f80
0080
0880
7fc0
0000
3f80
0080
3f00
1f80
0000
ENDCHAR
STARTCHAR K+3072
ENCODING 12402
SWIDTH 960 0
DWIDTH 10 0
BBX 10 10 0 -2
BITMAP
3f80
0080
0880
7fc0
0000
3b80
0a80
7280
3980
0000
ENDCHAR
STARTCHAR K+3073
ENCODING 12403
SWIDTH 960 0
DWIDTH 10 0
BBX 10 10 0 -2
BITMAP
3f80
0080
0880
7fc0
0000
3900
0900
7280
3c40
0000
ENDCHAR
STARTCHAR K+3074
ENCODING 12404
SWIDTH 960 0
DWIDTH 10 0
BBX 10 10 0 -2
BITMAP
3f80
0080
0880
7fc0
0000
3900
0fc0
7480
3b00
0000
ENDCHAR
STARTCHAR K+3075
ENCODING 12405
SWIDTH 960 0
DWIDTH 10 0
BBX 10 10 0 -2
BITMAP
3f80
0080
0880
0880
7fc0
0000
3f80
2080
1f80
0000
ENDCHAR
STARTCHAR K+3076
ENCODING 12406
SWIDTH 960 0
DWIDTH 10 0
BBX 10 10 0 -2
BITMAP
3f80
0080
0880
0880
7fc0
2080
3f80
2080
1f80
0000
ENDCHAR
STARTCHAR K+3077
ENCODING 12407
SWIDTH 960 0
DWIDTH 10 0
BBX 10 10 0 -2
BITMAP
3f80
0080
0880
0880
7fc0
0000
0400
0a00
3180
0000
ENDCHAR
STARTCHAR K+3078
ENCODING 12408
SWIDTH 960 0
DWIDTH 10 0
BBX 10 10 0 -2
BITMAP
3f80
0080
0880
0880
7fc0
0000
1f00
2080
1f00
0000
ENDCHAR
STARTCHAR K+3079
ENCODING 12409
SWIDTH 960 0
DWIDTH 10 0
BBX 10 10 0 -2
BITMAP
3f80
0080
0880
0880
7fc0
0000
3f80
0a00
3180
0000
ENDCHAR
STARTCHAR K+307A
ENCODING 12410
SWIDTH 960 0
DWIDTH 10 0
BBX 10 10 0 -2
BITMAP
7c80
0480
0480
0480
24c0
2080
2080
7f80
0080
0000
ENDCHAR
STARTCHAR K+307B
ENCODING 12411
SWIDTH 960 0
DWIDTH 10 0
BBX 10 10 0 -2
BITMAP
7c80
0480
24c0
2480
7f80
0000
3f80
0080
0080
0000
ENDCHAR
STARTCHAR K+307C
ENCODING 12412
SWIDTH 960 0
DWIDTH 10 0
BBX 10 10 0 -2
BITMAP
7c80
0480
04c0
2480
2080
7f80
2080
2000
1f80
0000
ENDCHAR
STARTCHAR K+307D
ENCODING 12413
SWIDTH 960 0
DWIDTH 10 0
BBX 10 10 0 -2
BITMAP
7c80
0480
24c0
7f80
0000
3f80
0080
3f00
1f80
0000
ENDCHAR
STARTCHAR K+307E
ENCODING 12414
SWIDTH 960 0
DWIDTH 10 0
BBX 10 10 0 -2
BITMAP
7c80
0480
24c0
7f80
0000
3b80
0a80
7280
3980
0000
ENDCHAR
STARTCHAR K+3121
ENCODING 12577
SWIDTH 960 0
DWIDTH 10 0
BBX 10 10 0 -2
BITMAP
7c80
0480
24c0
2480
7f80
0000
3f80
2080
1f80
0000
ENDCHAR
STARTCHAR K+3122
ENCODING 12578
SWIDTH 960 0
DWIDTH 10 0
BBX 10 10 0 -2
BITMAP
7c80
0480
24c0
2480
7f80
2080
3f80
2080
1f80
0000
ENDCHAR
STARTCHAR K+3123
ENCODING 12579
SWIDTH 960 0
DWIDTH 10 0
BBX 10 10 0 -2
BITMAP
7c80
0480
24c0
2480
7f80
0000
0400
0a00
3180
0000
ENDCHAR
STARTCHAR K+3124
ENCODING 12580
SWIDTH 960 0
DWIDTH 10 0
BBX 10 10 0 -2
BITMAP
7c80
0480
24c0
2480
7f80
0000
1f00
2080
1f00
0000
ENDCHAR
STARTCHAR K+3125
ENCODING 12581
SWIDTH 960 0
DWIDTH 10 0
BBX 10 10 0 -2
BITMAP
7d40
0540
0540
0540
25c0
2140
2140
7f40
0140
0000
ENDCHAR
STARTCHAR K+3126
ENCODING 12582
SWIDTH 960 0
DWIDTH 10 0
BBX 10 10 0 -2
BITMAP
7940
0940
09c0
2940
2140
7f40
1140
1000
0fc0
0000
ENDCHAR
STARTCHAR K+3127
ENCODING 12583
SWIDTH 960 0
DWIDTH 10 0
BBX 10 10 0 -2
BITMAP
7940
09c0
2940
7f40
0000
1fc0
0040
1f80
0fc0
0000
ENDCHAR
STARTCHAR K+3128
ENCODING 12584
SWIDTH 960 0
DWIDTH 10 0
BBX 10 10 0 -2
BITMAP
7940
09c0
2940
2940
7f40
1040
1fc0
1040
0fc0
0000
ENDCHAR
STARTCHAR K+3129
ENCODING 12585
SWIDTH 960 0
DWIDTH 10 0
BBX 10 10 0 -2
BITMAP
7940
09c0
2940
2940
7f40
0000
1100
2a80
4440
0000
ENDCHAR
STARTCHAR K+312A
ENCODING 12586
SWIDTH 960 0
DWIDTH 10 0
BBX 10 10 0 -2
BITMAP
7940
09c0
2940
2940
7f40
0000
0f80
1040
0f80
0000
ENDCHAR
STARTCHAR K+312B
ENCODING 12587
SWIDTH 960 0
DWIDTH 10 0
BBX 10 10 0 -2
BITMAP
7c80
0480
0480
0480
2480
2080
2080
7f80
0080
0000
ENDCHAR
STARTCHAR K+312C
ENCODING 12588
SWIDTH 960 0
DWIDTH 10 0
BBX 10 10 0 -2
BITMAP
7c80
0480
2480
2480
7f80
0000
3f80
0080
0080
0000
ENDCHAR
STARTCHAR K+312D
ENCODING 12589
SWIDTH 960 0
DWIDTH 10 0
BBX 10 10 0 -2
BITMAP
7c80
0480
0480
2480
2080
7f80
2080
2000
1f80
0000
ENDCHAR
STARTCHAR K+312E
ENCODING 12590
SWIDTH 960 0
DWIDTH 10 0
BBX 10 10 0 -2
BITMAP
7c80
0480
2480
7f80
0000
3f80
0080
3f00
1f80
0000
ENDCHAR
STARTCHAR K+312F
ENCODING 12591
SWIDTH 960 0
DWIDTH 10 0
BBX 10 10 0 -2
BITMAP
7c80
0480
2480
2480
7f80
0000
3f80
2080
1f80
0000
ENDCHAR
STARTCHAR K+3130
ENCODING 12592
SWIDTH 960 0
DWIDTH 10 0
BBX 10 10 0 -2
BITMAP
7c80
0480
2480
2480
7f80
2080
3f80
2080
1f80
0000
ENDCHAR
STARTCHAR K+3131
ENCODING 12593
SWIDTH 960 0
DWIDTH 10 0
BBX 10 10 0 -2
BITMAP
7c80
0480
2480
2480
7f80
0000
0400
0a00
3180
0000
ENDCHAR
STARTCHAR K+3132
ENCODING 12594
SWIDTH 960 0
DWIDTH 10 0
BBX 10 10 0 -2
BITMAP
7c80
0480
2480
2480
7f80
0000
1f00
2080
1f00
0000
ENDCHAR
STARTCHAR K+3133
ENCODING 12595
SWIDTH 960 0
DWIDTH 10 0
BBX 10 10 0 -2
BITMAP
3f80
0080
0080
0080
1280
1280
1280
1200
7fc0
0000
ENDCHAR
STARTCHAR K+3134
ENCODING 12596
SWIDTH 960 0
DWIDTH 10 0
BBX 10 10 0 -2
BITMAP
3f80
0080
0080
1280
1200
7fc0
2000
2000
1f80
0000
ENDCHAR
STARTCHAR K+3135
ENCODING 12597
SWIDTH 960 0
DWIDTH 10 0
BBX 10 10 0 -2
BITMAP
3f80
0080
1280
7fc0
0000
3f80
0080
3f00
1f80
0000
ENDCHAR
STARTCHAR K+3136
ENCODING 12598
SWIDTH 960 0
DWIDTH 10 0
BBX 10 10 0 -2
BITMAP
3f80
0080
1280
1280
7fc0
2080
3f80
2080
1f80
0000
ENDCHAR
STARTCHAR K+3137
ENCODING 12599
SWIDTH 960 0
DWIDTH 10 0
BBX 10 10 0 -2
BITMAP
3f80
0080
1280
1280
7fc0
0000
0400
0a00
3180
0000
ENDCHAR
STARTCHAR K+3138
ENCODING 12600
SWIDTH 960 0
DWIDTH 10 0
BBX 10 10 0 -2
BITMAP
7f80
0080
0080
0080
0000
7fc0
0400
0400
0400
0000
ENDCHAR
STARTCHAR K+3139
ENCODING 12601
SWIDTH 960 0
DWIDTH 10 0
BBX 10 10 0 -2
BITMAP
3f80
0080
0080
0080
7fc0
0400
3f80
0080
0080
0000
ENDCHAR
STARTCHAR K+313A
ENCODING 12602
SWIDTH 960 0
DWIDTH 10 0
BBX 10 10 0 -2
BITMAP
3f80
0080
0080
0080
0000
7fc0
2400
2000
1f80
0000
ENDCHAR
STARTCHAR K+313B
ENCODING 12603
SWIDTH 960 0
DWIDTH 10 0
BBX 10 10 0 -2
BITMAP
3f80
0080
0080
0080
7fc0
0400
3f80
2000
1f80
0000
ENDCHAR
STARTCHAR K+313C
ENCODING 12604
SWIDTH 960 0
DWIDTH 10 0
BBX 10 10 0 -2
BITMAP
3f80
0080
0080
7fc0
0400
3f80
0080
3f00
1f80
0000
ENDCHAR
STARTCHAR K+313D
ENCODING 12605
SWIDTH 960 0
DWIDTH 10 0
BBX 10 10 0 -2
BITMAP
3f80
0080
0080
7fc0
0400
3b80
0880
7080
3880
0000
ENDCHAR
STARTCHAR K+313E
ENCODING 12606
SWIDTH 960 0
DWIDTH 10 0
BBX 10 10 0 -2
BITMAP
3f80
0080
0080
7fc0
0400
3b80
0a80
7280
3980
0000
ENDCHAR
STARTCHAR K+313F
ENCODING 12607
SWIDTH 960 0
DWIDTH 10 0
BBX 10 10 0 -2
BITMAP
3f80
0080
0080
7fc0
0400
3900
0fc0
7480
3b00
0000
ENDCHAR
STARTCHAR K+3140
ENCODING 12608
SWIDTH 960 0
DWIDTH 10 0
BBX 10 10 0 -2
BITMAP
3f80
0080
0080
0080
7fc0
0400
3f80
2080
1f80
0000
ENDCHAR
STARTCHAR K+3141
ENCODING 12609
SWIDTH 960 0
DWIDTH 10 0
BBX 10 10 0 -2
BITMAP
3f80
0080
0080
0080
7fc0
2480
3f80
2080
1f80
0000
ENDCHAR
STARTCHAR K+3142
ENCODING 12610
SWIDTH 960 0
DWIDTH 10 0
BBX 10 10 0 -2
BITMAP
3f80
0080
0080
0080
7fc0
0400
0400
0a00
3180
0000
ENDCHAR
STARTCHAR K+3143
ENCODING 12611
SWIDTH 960 0
DWIDTH 10 0
BBX 10 10 0 -2
BITMAP
3f80
0080
0080
0080
7fc0
0400
1f00
2080
1f00
0000
ENDCHAR
STARTCHAR K+3144
ENCODING 12612
SWIDTH 960 0
DWIDTH 10 0
BBX 10 10 0 -2
BITMAP
3f80
0080
0080
0080
7fc0
0400
3f80
0a00
3180
0000
ENDCHAR
STARTCHAR K+3145
ENCODING 12613
SWIDTH 960 0
DWIDTH 10 0
BBX 10 10 0 -2
BITMAP
7c80
0480
0480
0480
0080
7f80
1080
1380
1080
0000
ENDCHAR
STARTCHAR K+3146
ENCODING 12614
SWIDTH 960 0
DWIDTH 10 0
BBX 10 10 0 -2
BITMAP
7c80
0580
0480
7f80
1080
0000
3f80
0080
0080
0000
ENDCHAR
STARTCHAR K+3147
ENCODING 12615
SWIDTH 960 0
DWIDTH 10 0
BBX 10 10 0 -2
BITMAP
7c80
0580
0480
0480
7f80
1080
2080
2000
1f80
0000
ENDCHAR
STARTCHAR K+3148
ENCODING 12616
SWIDTH 960 0
DWIDTH 10 0
BBX 10 10 0 -2
BITMAP
7c80
0580
0480
7f80
1080
3f80
0080
3f00
1f80
0000
ENDCHAR
STARTCHAR K+3149
ENCODING 12617
SWIDTH 960 0
DWIDTH 10 0
BBX 10 10 0 -2
BITMAP
7c80
0580
0480
7f80
1080
0000
1100
2a80
4440
0000
ENDCHAR
STARTCHAR K+314A
ENCODING 12618
SWIDTH 960 0
DWIDTH 10 0
BBX 10 10 0 -2
BITMAP
7c80
0580
0480
7f80
1080
0000
1f00
2080
1f00
0000
ENDCHAR
STARTCHAR K+314B
ENCODING 12619
SWIDTH 960 0
DWIDTH 10 0
BBX 10 10 0 -2
BITMAP
7d40
0540
0540
0540
0140
7f40
1140
1740
1140
0000
ENDCHAR
STARTCHAR K+314C
ENCODING 12620
SWIDTH 960 0
DWIDTH 10 0
BBX 10 10 0 -2
BITMAP
7d40
0540
0540
7d40
1340
0000
0200
0500
18c0
0000
ENDCHAR
STARTCHAR K+314D
ENCODING 12621
SWIDTH 960 0
DWIDTH 10 0
BBX 10 10 0 -2
BITMAP
7c80
0480
0480
0480
0080
7f80
1080
1080
1080
0000
ENDCHAR
STARTCHAR K+314E
ENCODING 12622
SWIDTH 960 0
DWIDTH 10 0
BBX 10 10 0 -2
BITMAP
7c80
0480
0480
7f80
1080
0000
3f80
0080
0080
0000
ENDCHAR
STARTCHAR K+314F
ENCODING 12623
SWIDTH 960 0
DWIDTH 10 0
BBX 10 10 0 -2
BITMAP
7c80
0480
0480
0480
7f80
1080
2080
2000
1f80
0000
ENDCHAR
STARTCHAR K+3150
ENCODING 12624
SWIDTH 960 0
DWIDTH 10 0
BBX 10 10 0 -2
BITMAP
7c80
0480
0480
7f80
1080
3f80
0080
3f00
1f80
0000
ENDCHAR
STARTCHAR K+3151
ENCODING 12625
SWIDTH 960 0
DWIDTH 10 0
BBX 10 10 0 -2
BITMAP
7c80
0480
0480
7f80
1080
0000
3f80
2080
1f80
0000
ENDCHAR
STARTCHAR K+3152
ENCODING 12626
SWIDTH 960 0
DWIDTH 10 0
BBX 10 10 0 -2
BITMAP
7c80
0480
0480
7f80
1080
2080
3f80
2080
1f80
0000
ENDCHAR
STARTCHAR K+3153
ENCODING 12627
SWIDTH 960 0
DWIDTH 10 0
BBX 10 10 0 -2
BITMAP
7c80
0480
0480
7f80
1080
0000
0400
0a00
3180
0000
ENDCHAR
STARTCHAR K+3154
ENCODING 12628
SWIDTH 960 0
DWIDTH 10 0
BBX 10 10 0 -2
BITMAP
7f80
0080
0080
0080
0000
7fc0
1100
1100
1100
0000
ENDCHAR
STARTCHAR K+3155
ENCODING 12629
SWIDTH 960 0
DWIDTH 10 0
BBX 10 10 0 -2
BITMAP
3f80
0080
0080
0080
0000
7fc0
2900
2000
1f80
0000
ENDCHAR
STARTCHAR K+3156
ENCODING 12630
SWIDTH 960 0
DWIDTH 10 0
BBX 10 10 0 -2
BITMAP
3f80
0080
0080
7fc0
1100
3f80
0080
3f00
1f80
0000
ENDCHAR
STARTCHAR K+3157
ENCODING 12631
SWIDTH 960 0
DWIDTH 10 0
BBX 10 10 0 -2
BITMAP
3f80
0080
0080
0080
0080
0080
0080
0000
7fc0
0000
ENDCHAR
STARTCHAR K+3158
ENCODING 12632
SWIDTH 960 0
DWIDTH 10 0
BBX 10 10 0 -2
BITMAP
3f80
0080
0080
0080
7fc0
0000
3f80
0080
0080
0000
ENDCHAR
STARTCHAR K+3159
ENCODING 12633
SWIDTH 960 0
DWIDTH 10 0
BBX 10 10 0 -2
BITMAP
3f80
0080
0080
0080
0000
7fc0
2000
2000
1f80
0000
ENDCHAR
STARTCHAR K+315A
ENCODING 12634
SWIDTH 960 0
DWIDTH 10 0
BBX 10 10 0 -2
BITMAP
3f80
0080
0080
0080
7fc0
0000
3f80
2000
1f80
0000
ENDCHAR
STARTCHAR K+315B
ENCODING 12635
SWIDTH 960 0
DWIDTH 10 0
BBX 10 10 0 -2
BITMAP
3f80
0080
0080
7fc0
0000
3f80
0080
3f00
1f80
0000
ENDCHAR
STARTCHAR K+315C
ENCODING 12636
SWIDTH 960 0
DWIDTH 10 0
BBX 10 10 0 -2
BITMAP
3f80
0080
0080
7fc0
0000
3b80
0880
7080
3880
0000
ENDCHAR
STARTCHAR K+315D
ENCODING 12637
SWIDTH 960 0
DWIDTH 10 0
BBX 10 10 0 -2
BITMAP
3f80
0080
0080
0080
7fc0
0000
3f80
2080
1f80
0000
ENDCHAR
STARTCHAR K+315E
ENCODING 12638
SWIDTH 960 0
DWIDTH 10 0
BBX 10 10 0 -2
BITMAP
3f80
0080
0080
0080
7fc0
2080
3f80
2080
1f80
0000
ENDCHAR
STARTCHAR K+315F
ENCODING 12639
SWIDTH 960 0
DWIDTH 10 0
BBX 10 10 0 -2
BITMAP
3f80
0080
0080
0080
7fc0
0000
0400
0a00
3180
0000
ENDCHAR
STARTCHAR K+3160
ENCODING 12640
SWIDTH 960 0
DWIDTH 10 0
BBX 10 10 0 -2
BITMAP
3f80
0080
0080
0080
7fc0
0000
1f00
2080
1f00
0000
ENDCHAR
STARTCHAR K+3161
ENCODING 12641
SWIDTH 960 0
DWIDTH 10 0
BBX 10 10 0 -2
BITMAP
7c80
0480
0480
0480
0480
0080
0080
7f80
0080
0000
ENDCHAR
STARTCHAR K+3162
ENCODING 12642
SWIDTH 960 0
DWIDTH 10 0
BBX 10 10 0 -2
BITMAP
7c80
0480
0480
0480
0880
0880
1080
6080
0080
0000
ENDCHAR
STARTCHAR K+3163
ENCODING 12643
SWIDTH 960 0
DWIDTH 10 0
BBX 10 10 0 -2
BITMAP
7c80
0480
0480
1880
6080
0000
3f80
0080
0080
0000
ENDCHAR
STARTCHAR K+3164
ENCODING 12644
SWIDTH 960 0
DWIDTH 10 0
BBX 10 10 0 -2
BITMAP
7c80
0480
0480
0880
1080
6080
2000
2000
1f80
0000
ENDCHAR
STARTCHAR K+3165
ENCODING 12645
SWIDTH 960 0
DWIDTH 10 0
BBX 10 10 0 -2
BITMAP
7c80
0480
0480
1880
6080
0000
3f80
2000
1f80
0000
ENDCHAR
STARTCHAR K+3166
ENCODING 12646
SWIDTH 960 0
DWIDTH 10 0
BBX 10 10 0 -2
BITMAP
7c80
0480
0480
1880
6080
3f80
0080
3f00
1f80
0000
ENDCHAR
STARTCHAR K+3167
ENCODING 12647
SWIDTH 960 0
DWIDTH 10 0
BBX 10 10 0 -2
BITMAP
7c80
0480
0480
1880
6080
3b80
0a80
7280
3980
0000
ENDCHAR
STARTCHAR K+3168
ENCODING 12648
SWIDTH 960 0
DWIDTH 10 0
BBX 10 10 0 -2
BITMAP
7c80
0480
0480
1880
6080
0000
3f80
2080
1f80
0000
ENDCHAR
STARTCHAR K+3169
ENCODING 12649
SWIDTH 960 0
DWIDTH 10 0
BBX 10 10 0 -2
BITMAP
7c80
0480
0480
1880
6080
2080
3f80
2080
1f80
0000
ENDCHAR
STARTCHAR K+316A
ENCODING 12650
SWIDTH 960 0
DWIDTH 10 0
BBX 10 10 0 -2
BITMAP
7c80
0480
0480
1880
6080
0000
0400
0a00
3180
0000
ENDCHAR
STARTCHAR K+316B
ENCODING 12651
SWIDTH 960 0
DWIDTH 10 0
BBX 10 10 0 -2
BITMAP
7c80
0480
0480
1880
6080
0000
1f00
2080
1f00
0000
ENDCHAR
STARTCHAR K+316C
ENCODING 12652
SWIDTH 960 0
DWIDTH 10 0
BBX 10 10 0 -2
BITMAP
7c80
0480
0480
1880
6080
0000
3f80
0a00
3180
0000
ENDCHAR
STARTCHAR K+316D
ENCODING 12653
SWIDTH 960 0
DWIDTH 10 0
BBX 10 10 0 -2
BITMAP
7c80
0480
0480
1880
6080
0000
3f80
1100
3f80
0000
ENDCHAR
STARTCHAR K+316E
ENCODING 12654
SWIDTH 960 0
DWIDTH 10 0
BBX 10 10 0 -2
BITMAP
7e80
1280
1280
1280
12c0
1280
2480
4880
0080
0000
ENDCHAR
STARTCHAR K+316F
ENCODING 12655
SWIDTH 960 0
DWIDTH 10 0
BBX 10 10 0 -2
BITMAP
7e80
1280
12c0
2480
4880
0000
3f80
0080
0080
0000
ENDCHAR
STARTCHAR K+3170
ENCODING 12656
SWIDTH 960 0
DWIDTH 10 0
BBX 10 10 0 -2
BITMAP
7e80
1280
12c0
2480
4880
0000
3b80
0880
0880
0000
ENDCHAR
STARTCHAR K+3171
ENCODING 12657
SWIDTH 960 0
DWIDTH 10 0
BBX 10 10 0 -2
BITMAP
7e80
1280
12c0
1280
2480
4880
2000
2000
1f80
0000
ENDCHAR
STARTCHAR K+3172
ENCODING 12658
SWIDTH 960 0
DWIDTH 10 0
BBX 10 10 0 -2
BITMAP
7e80
1280
12c0
2480
4880
3f80
0080
3f00
1f80
0000
ENDCHAR
STARTCHAR K+3173
ENCODING 12659
SWIDTH 960 0
DWIDTH 10 0
BBX 10 10 0 -2
BITMAP
7e80
1280
12c0
2480
4880
3b80
0a80
7280
3980
0000
ENDCHAR
STARTCHAR K+3174
ENCODING 12660
SWIDTH 960 0
DWIDTH 10 0
BBX 10 10 0 -2
BITMAP
7e80
1280
12c0
2480
4880
0000
3f80
2080
1f80
0000
ENDCHAR
STARTCHAR K+3175
ENCODING 12661
SWIDTH 960 0
DWIDTH 10 0
BBX 10 10 0 -2
BITMAP
7e80
1280
12c0
2480
4880
2080
3f80
2080
1f80
0000
ENDCHAR
STARTCHAR K+3176
ENCODING 12662
SWIDTH 960 0
DWIDTH 10 0
BBX 10 10 0 -2
BITMAP
7e80
1280
12c0
2480
4880
0000
0400
0a00
3180
0000
ENDCHAR
STARTCHAR K+3177
ENCODING 12663
SWIDTH 960 0
DWIDTH 10 0
BBX 10 10 0 -2
BITMAP
7e80
1280
12c0
2480
4880
0000
1100
2a80
4440
0000
ENDCHAR
STARTCHAR K+3178
ENCODING 12664
SWIDTH 960 0
DWIDTH 10 0
BBX 10 10 0 -2
BITMAP
7e80
1280
12c0
2480
4880
0000
1f00
2080
1f00
0000
ENDCHAR
STARTCHAR K+3179
ENCODING 12665
SWIDTH 960 0
DWIDTH 10 0
BBX 10 10 0 -2
BITMAP
7e80
1280
12c0
2480
4880
3f80
3f00
2000
1f80
0000
ENDCHAR
STARTCHAR K+317A
ENCODING 12666
SWIDTH 960 0
DWIDTH 10 0
BBX 10 10 0 -2
BITMAP
7d40
1540
1540
15c0
1540
1540
2540
4940
1140
0000
ENDCHAR
STARTCHAR K+317B
ENCODING 12667
SWIDTH 960 0
DWIDTH 10 0
BBX 10 10 0 -2
BITMAP
7d40
1540
15c0
2940
5140
0000
1fc0
0040
0040
0000
ENDCHAR
STARTCHAR K+317C
ENCODING 12668
SWIDTH 960 0
DWIDTH 10 0
BBX 10 10 0 -2
BITMAP
7d40
2540
25c0
2540
4940
0140
1000
1000
0fc0
0000
ENDCHAR
STARTCHAR K+317D
ENCODING 12669
SWIDTH 960 0
DWIDTH 10 0
BBX 10 10 0 -2
BITMAP
7d40
2540
25c0
4940
0140
1fc0
0040
1f80
0fc0
0000
ENDCHAR
STARTCHAR K+317E
ENCODING 12670
SWIDTH 960 0
DWIDTH 10 0
BBX 10 10 0 -2
BITMAP
7d40
1540
15c0
2940
5140
0000
1fc0
1040
0fc0
0000
ENDCHAR
STARTCHAR K+3221
ENCODING 12833
SWIDTH 960 0
DWIDTH 10 0
BBX 10 10 0 -2
BITMAP
7d40
1540
15c0
2940
5140
1040
1fc0
1040
0fc0
0000
ENDCHAR
STARTCHAR K+3222
ENCODING 12834
SWIDTH 960 0
DWIDTH 10 0
BBX 10 10 0 -2
BITMAP
7d40
1540
15c0
2940
5140
0000
0200
0500
18c0
0000
ENDCHAR
STARTCHAR K+3223
ENCODING 12835
SWIDTH 960 0
DWIDTH 10 0
BBX 10 10 0 -2
BITMAP
7d40
1540
15c0
2940
5140
0000
1100
2a80
4440
0000
ENDCHAR
STARTCHAR K+3224
ENCODING 12836
SWIDTH 960 0
DWIDTH 10 0
BBX 10 10 0 -2
BITMAP
7d40
1540
15c0
2940
5140
0000
0f80
1040
0f80
0000
ENDCHAR
STARTCHAR K+3225
ENCODING 12837
SWIDTH 960 0
DWIDTH 10 0
BBX 10 10 0 -2
BITMAP
7e80
1280
12c0
1280
1280
12c0
2480
4880
0080
0000
ENDCHAR
STARTCHAR K+3226
ENCODING 12838
SWIDTH 960 0
DWIDTH 10 0
BBX 10 10 0 -2
BITMAP
7e80
12c0
1280
24c0
4880
0000
3f80
0080
0080
0000
ENDCHAR
STARTCHAR K+3227
ENCODING 12839
SWIDTH 960 0
DWIDTH 10 0
BBX 10 10 0 -2
BITMAP
7e80
12c0
1280
24c0
4880
3f80
0080
3f00
1f80
0000
ENDCHAR
STARTCHAR K+3228
ENCODING 12840
SWIDTH 960 0
DWIDTH 10 0
BBX 10 10 0 -2
BITMAP
7e80
1280
1280
1380
1280
1280
2480
4880
0080
0000
ENDCHAR
STARTCHAR K+3229
ENCODING 12841
SWIDTH 960 0
DWIDTH 10 0
BBX 10 10 0 -2
BITMAP
7e80
1280
1380
2480
4880
0000
3f80
0080
0080
0000
ENDCHAR
STARTCHAR K+322A
ENCODING 12842
SWIDTH 960 0
DWIDTH 10 0
BBX 10 10 0 -2
BITMAP
7e80
1280
1380
2480
4880
0000
3b80
0880
0880
0000
ENDCHAR
STARTCHAR K+322B
ENCODING 12843
SWIDTH 960 0
DWIDTH 10 0
BBX 10 10 0 -2
BITMAP
7e80
1280
1380
1280
2480
4880
2000
2000
1f80
0000
ENDCHAR
STARTCHAR K+322C
ENCODING 12844
SWIDTH 960 0
DWIDTH 10 0
BBX 10 10 0 -2
BITMAP
7e80
1280
1380
2480
4880
3f80
0080
3f00
1f80
0000
ENDCHAR
STARTCHAR K+322D
ENCODING 12845
SWIDTH 960 0
DWIDTH 10 0
BBX 10 10 0 -2
BITMAP
7e80
1280
1380
2480
4880
0000
3f80
2080
1f80
0000
ENDCHAR
STARTCHAR K+322E
ENCODING 12846
SWIDTH 960 0
DWIDTH 10 0
BBX 10 10 0 -2
BITMAP
7e80
1280
1380
2480
4880
2080
3f80
2080
1f80
0000
ENDCHAR
STARTCHAR K+322F
ENCODING 12847
SWIDTH 960 0
DWIDTH 10 0
BBX 10 10 0 -2
BITMAP
7e80
1280
1380
2480
4880
0000
0400
0a00
3180
0000
ENDCHAR
STARTCHAR K+3230
ENCODING 12848
SWIDTH 960 0
DWIDTH 10 0
BBX 10 10 0 -2
BITMAP
7e80
1280
1380
2480
4880
0000
1100
2a80
4440
0000
ENDCHAR
STARTCHAR K+3231
ENCODING 12849
SWIDTH 960 0
DWIDTH 10 0
BBX 10 10 0 -2
BITMAP
7e80
1280
1380
2480
4880
0000
1f00
2080
1f00
0000
ENDCHAR
STARTCHAR K+3232
ENCODING 12850
SWIDTH 960 0
DWIDTH 10 0
BBX 10 10 0 -2
BITMAP
7d40
1540
1540
1740
1540
1540
2540
4940
1140
0000
ENDCHAR
STARTCHAR K+3233
ENCODING 12851
SWIDTH 960 0
DWIDTH 10 0
BBX 10 10 0 -2
BITMAP
7d40
1540
1740
2940
5140
0000
1fc0
0040
0040
0000
ENDCHAR
STARTCHAR K+3234
ENCODING 12852
SWIDTH 960 0
DWIDTH 10 0
BBX 10 10 0 -2
BITMAP
7d40
2540
2740
2540
4940
0140
1000
1000
0fc0
0000
ENDCHAR
STARTCHAR K+3235
ENCODING 12853
SWIDTH 960 0
DWIDTH 10 0
BBX 10 10 0 -2
BITMAP
7d40
1540
1740
2940
5140
0000
1fc0
1040
0fc0
0000
ENDCHAR
STARTCHAR K+3236
ENCODING 12854
SWIDTH 960 0
DWIDTH 10 0
BBX 10 10 0 -2
BITMAP
7d40
1540
1740
2940
5140
0000
0200
0500
18c0
0000
ENDCHAR
STARTCHAR K+3237
ENCODING 12855
SWIDTH 960 0
DWIDTH 10 0
BBX 10 10 0 -2
BITMAP
7d40
1540
1740
2940
5140
0000
0f80
1040
0f80
0000
ENDCHAR
STARTCHAR K+3238
ENCODING 12856
SWIDTH 960 0
DWIDTH 10 0
BBX 10 10 0 -2
BITMAP
7e80
1280
1380
1280
1280
1380
2480
4880
0080
0000
ENDCHAR
STARTCHAR K+3239
ENCODING 12857
SWIDTH 960 0
DWIDTH 10 0
BBX 10 10 0 -2
BITMAP
7e80
1380
1280
1380
2480
4880
2000
2000
1f80
0000
ENDCHAR
STARTCHAR K+323A
ENCODING 12858
SWIDTH 960 0
DWIDTH 10 0
BBX 10 10 0 -2
BITMAP
7e80
1380
1280
2780
4880
3f80
0080
3f00
1f80
0000
ENDCHAR
STARTCHAR K+323B
ENCODING 12859
SWIDTH 960 0
DWIDTH 10 0
BBX 10 10 0 -2
BITMAP
7e80
1380
1280
2780
4880
0000
0400
0a00
3180
0000
ENDCHAR
STARTCHAR K+323C
ENCODING 12860
SWIDTH 960 0
DWIDTH 10 0
BBX 10 10 0 -2
BITMAP
7e80
1380
1280
2780
4880
0000
1100
2a80
4440
0000
ENDCHAR
STARTCHAR K+323D
ENCODING 12861
SWIDTH 960 0
DWIDTH 10 0
BBX 10 10 0 -2
BITMAP
7e80
1380
1280
2780
4880
3f80
3f00
2000
1f80
0000
ENDCHAR
STARTCHAR K+323E
ENCODING 12862
SWIDTH 960 0
DWIDTH 10 0
BBX 10 10 0 -2
BITMAP
7d40
1540
1740
1540
1540
1740
2540
4940
1140
0000
ENDCHAR
STARTCHAR K+323F
ENCODING 12863
SWIDTH 960 0
DWIDTH 10 0
BBX 10 10 0 -2
BITMAP
7f80
0880
0880
0880
0880
1100
0400
0400
7fc0
0000
ENDCHAR
STARTCHAR K+3240
ENCODING 12864
SWIDTH 960 0
DWIDTH 10 0
BBX 10 10 0 -2
BITMAP
3f80
0480
0880
0400
7fc0
0000
3f80
0080
0080
0000
ENDCHAR
STARTCHAR K+3241
ENCODING 12865
SWIDTH 960 0
DWIDTH 10 0
BBX 10 10 0 -2
BITMAP
3f80
0480
0880
0000
0400
7fc0
2000
2000
1f80
0000
ENDCHAR
STARTCHAR K+3242
ENCODING 12866
SWIDTH 960 0
DWIDTH 10 0
BBX 10 10 0 -2
BITMAP
3f80
0480
0880
0400
7fc0
0100
2fc0
2480
1b00
0000
ENDCHAR
STARTCHAR K+3243
ENCODING 12867
SWIDTH 960 0
DWIDTH 10 0
BBX 10 10 0 -2
BITMAP
3f80
0480
0880
0400
7fc0
3f80
0080
3f00
1f80
0000
ENDCHAR
STARTCHAR K+3244
ENCODING 12868
SWIDTH 960 0
DWIDTH 10 0
BBX 10 10 0 -2
BITMAP
3f80
0480
0880
0400
7fc0
0000
3f80
2080
1f80
0000
ENDCHAR
STARTCHAR K+3245
ENCODING 12869
SWIDTH 960 0
DWIDTH 10 0
BBX 10 10 0 -2
BITMAP
3f80
0480
0880
0400
7fc0
2080
3f80
2080
1f80
0000
ENDCHAR
STARTCHAR K+3246
ENCODING 12870
SWIDTH 960 0
DWIDTH 10 0
BBX 10 10 0 -2
BITMAP
3f80
0480
0880
0400
7fc0
0000
0400
0a00
3180
0000
ENDCHAR
STARTCHAR K+3247
ENCODING 12871
SWIDTH 960 0
DWIDTH 10 0
BBX 10 10 0 -2
BITMAP
3f80
0480
0880
0400
7fc0
0000
1f00
2080
1f00
0000
ENDCHAR
STARTCHAR K+3248
ENCODING 12872
SWIDTH 960 0
DWIDTH 10 0
BBX 10 10 0 -2
BITMAP
3f80
0480
0880
0400
7fc0
0000
3f80
0a00
3180
0000
ENDCHAR
STARTCHAR K+3249
ENCODING 12873
SWIDTH 960 0
DWIDTH 10 0
BBX 10 10 0 -2
BITMAP
3f80
0480
0880
0400
7fc0
0200
3f80
0a00
3180
0000
ENDCHAR
STARTCHAR K+324A
ENCODING 12874
SWIDTH 960 0
DWIDTH 10 0
BBX 10 10 0 -2
BITMAP
7e80
1280
1280
1280
24c0
1080
1080
7f80
0080
0000
ENDCHAR
STARTCHAR K+324B
ENCODING 12875
SWIDTH 960 0
DWIDTH 10 0
BBX 10 10 0 -2
BITMAP
7c80
1480
24c0
5480
7f80
0000
3f80
0080
0080
0000
ENDCHAR
STARTCHAR K+324C
ENCODING 12876
SWIDTH 960 0
DWIDTH 10 0
BBX 10 10 0 -2
BITMAP
7c80
1480
24c0
1080
7f80
3f80
0080
3f00
1f80
0000
ENDCHAR
STARTCHAR K+324D
ENCODING 12877
SWIDTH 960 0
DWIDTH 10 0
BBX 10 10 0 -2
BITMAP
7c80
1480
24c0
5480
7f80
0000
1100
2a80
4440
0000
ENDCHAR
STARTCHAR K+324E
ENCODING 12878
SWIDTH 960 0
DWIDTH 10 0
BBX 10 10 0 -2
BITMAP
7c80
1480
24c0
5480
7f80
0000
1f00
2080
1f00
0000
ENDCHAR
STARTCHAR K+324F
ENCODING 12879
SWIDTH 960 0
DWIDTH 10 0
BBX 10 10 0 -2
BITMAP
7d40
2540
2540
2540
4940
11c0
1140
7f40
0140
0000
ENDCHAR
STARTCHAR K+3250
ENCODING 12880
SWIDTH 960 0
DWIDTH 10 0
BBX 10 10 0 -2
BITMAP
7d40
15c0
2540
5540
7f40
0000
1fc0
0040
0040
0000
ENDCHAR
STARTCHAR K+3251
ENCODING 12881
SWIDTH 960 0
DWIDTH 10 0
BBX 10 10 0 -2
BITMAP
7d40
15c0
2540
5540
7f40
0000
0f80
1040
0f80
0000
ENDCHAR
STARTCHAR K+3252
ENCODING 12882
SWIDTH 960 0
DWIDTH 10 0
BBX 10 10 0 -2
BITMAP
7e80
1280
1280
1280
2480
1080
1080
7f80
0080
0000
ENDCHAR
STARTCHAR K+3253
ENCODING 12883
SWIDTH 960 0
DWIDTH 10 0
BBX 10 10 0 -2
BITMAP
7c80
1480
2480
4880
1080
7f80
2080
2000
1f80
0000
ENDCHAR
STARTCHAR K+3254
ENCODING 12884
SWIDTH 960 0
DWIDTH 10 0
BBX 10 10 0 -2
BITMAP
7c80
1480
2480
1080
7f80
3f80
0080
3f00
1f80
0000
ENDCHAR
STARTCHAR K+3255
ENCODING 12885
SWIDTH 960 0
DWIDTH 10 0
BBX 10 10 0 -2
BITMAP
7c80
1480
2480
5480
7f80
0000
3f80
2080
1f80
0000
ENDCHAR
STARTCHAR K+3256
ENCODING 12886
SWIDTH 960 0
DWIDTH 10 0
BBX 10 10 0 -2
BITMAP
7c80
1480
2480
5480
7f80
2080
3f80
2080
1f80
0000
ENDCHAR
STARTCHAR K+3257
ENCODING 12887
SWIDTH 960 0
DWIDTH 10 0
BBX 10 10 0 -2
BITMAP
7c80
1480
2480
5480
7f80
0000
1f00
2080
1f00
0000
ENDCHAR
STARTCHAR K+3258
ENCODING 12888
SWIDTH 960 0
DWIDTH 10 0
BBX 10 10 0 -2
BITMAP
7f80
0880
0880
0880
0880
1100
1100
1100
7fc0
0000
ENDCHAR
STARTCHAR K+3259
ENCODING 12889
SWIDTH 960 0
DWIDTH 10 0
BBX 10 10 0 -2
BITMAP
7f80
0880
0880
0880
0000
7fc0
0400
0400
0400
0000
ENDCHAR
STARTCHAR K+325A
ENCODING 12890
SWIDTH 960 0
DWIDTH 10 0
BBX 10 10 0 -2
BITMAP
3f80
0480
0880
0000
7fc0
0400
3f80
0080
0080
0000
ENDCHAR
STARTCHAR K+325B
ENCODING 12891
SWIDTH 960 0
DWIDTH 10 0
BBX 10 10 0 -2
BITMAP
7f80
0880
0880
0880
0000
7fc0
2400
2000
1f80
0000
ENDCHAR
STARTCHAR K+325C
ENCODING 12892
SWIDTH 960 0
DWIDTH 10 0
BBX 10 10 0 -2
BITMAP
3f80
0480
0900
7fc0
0400
3f80
0080
3f00
1f80
0000
ENDCHAR
STARTCHAR K+325D
ENCODING 12893
SWIDTH 960 0
DWIDTH 10 0
BBX 10 10 0 -2
BITMAP
3f80
0480
0900
7fc0
0400
3900
0fc0
7480
3b00
0000
ENDCHAR
STARTCHAR K+325E
ENCODING 12894
SWIDTH 960 0
DWIDTH 10 0
BBX 10 10 0 -2
BITMAP
3f80
0480
0880
0000
7fc0
0400
3f80
2080
1f80
0000
ENDCHAR
STARTCHAR K+325F
ENCODING 12895
SWIDTH 960 0
DWIDTH 10 0
BBX 10 10 0 -2
BITMAP
3f80
0480
0880
0000
7fc0
2480
3f80
2080
1f80
0000
ENDCHAR
STARTCHAR K+3260
ENCODING 12896
SWIDTH 960 0
DWIDTH 10 0
BBX 10 10 0 -2
BITMAP
3f80
0480
0880
0000
7fc0
0400
0400
0a00
3180
0000
ENDCHAR
STARTCHAR K+3261
ENCODING 12897
SWIDTH 960 0
DWIDTH 10 0
BBX 10 10 0 -2
BITMAP
3f80
0480
0880
0000
7fc0
0400
1f00
2080
1f00
0000
ENDCHAR
STARTCHAR K+3262
ENCODING 12898
SWIDTH 960 0
DWIDTH 10 0
BBX 10 10 0 -2
BITMAP
3f80
0480
0880
0000
7fc0
0400
3f80
0a00
3180
0000
ENDCHAR
STARTCHAR K+3263
ENCODING 12899
SWIDTH 960 0
DWIDTH 10 0
BBX 10 10 0 -2
BITMAP
7e80
1280
1280
1280
0080
7f80
1080
1180
1080
0000
ENDCHAR
STARTCHAR K+3264
ENCODING 12900
SWIDTH 960 0
DWIDTH 10 0
BBX 10 10 0 -2
BITMAP
7c80
2580
2480
7f80
1080
3f80
0080
3f00
1f80
0000
ENDCHAR
STARTCHAR K+3265
ENCODING 12901
SWIDTH 960 0
DWIDTH 10 0
BBX 10 10 0 -2
BITMAP
7c80
2580
2480
7f80
1080
0000
1100
2a80
4440
0000
ENDCHAR
STARTCHAR K+3266
ENCODING 12902
SWIDTH 960 0
DWIDTH 10 0
BBX 10 10 0 -2
BITMAP
7c80
2580
2480
7f80
1080
0000
1f00
2080
1f00
0000
ENDCHAR
STARTCHAR K+3267
ENCODING 12903
SWIDTH 960 0
DWIDTH 10 0
BBX 10 10 0 -2
BITMAP
7d40
2540
2540
2540
0140
7f40
1140
1740
1140
0000
ENDCHAR
STARTCHAR K+3268
ENCODING 12904
SWIDTH 960 0
DWIDTH 10 0
BBX 10 10 0 -2
BITMAP
7d40
2540
2540
7d40
1340
0000
1fc0
0040
0040
0000
ENDCHAR
STARTCHAR K+3269
ENCODING 12905
SWIDTH 960 0
DWIDTH 10 0
BBX 10 10 0 -2
BITMAP
7d40
2540
2540
0140
7d40
1340
1140
1000
0fc0
0000
ENDCHAR
STARTCHAR K+326A
ENCODING 12906
SWIDTH 960 0
DWIDTH 10 0
BBX 10 10 0 -2
BITMAP
7d40
2540
2540
7d40
1340
1fc0
0040
1f80
0fc0
0000
ENDCHAR
STARTCHAR K+326B
ENCODING 12907
SWIDTH 960 0
DWIDTH 10 0
BBX 10 10 0 -2
BITMAP
7d40
2540
2540
7d40
1340
0000
1fc0
1040
0fc0
0000
ENDCHAR
STARTCHAR K+326C
ENCODING 12908
SWIDTH 960 0
DWIDTH 10 0
BBX 10 10 0 -2
BITMAP
7d40
2540
2540
7d40
1340
1040
1fc0
1040
0fc0
0000
ENDCHAR
STARTCHAR K+326D
ENCODING 12909
SWIDTH 960 0
DWIDTH 10 0
BBX 10 10 0 -2
BITMAP
7d40
2540
2540
7d40
1340
0000
1100
2a80
4440
0000
ENDCHAR
STARTCHAR K+326E
ENCODING 12910
SWIDTH 960 0
DWIDTH 10 0
BBX 10 10 0 -2
BITMAP
7e80
1280
1280
1280
0080
7f80
1080
1080
1080
0000
ENDCHAR
STARTCHAR K+326F
ENCODING 12911
SWIDTH 960 0
DWIDTH 10 0
BBX 10 10 0 -2
BITMAP
7c80
2480
2480
0080
7f80
0880
2080
2000
1f80
0000
ENDCHAR
STARTCHAR K+3270
ENCODING 12912
SWIDTH 960 0
DWIDTH 10 0
BBX 10 10 0 -2
BITMAP
7c80
2480
2480
7f80
1080
3f80
0080
3f00
1f80
0000
ENDCHAR
STARTCHAR K+3271
ENCODING 12913
SWIDTH 960 0
DWIDTH 10 0
BBX 10 10 0 -2
BITMAP
7c80
2480
2480
7f80
1080
0000
3f80
2080
1f80
0000
ENDCHAR
STARTCHAR K+3272
ENCODING 12914
SWIDTH 960 0
DWIDTH 10 0
BBX 10 10 0 -2
BITMAP
7c80
2480
2480
7f80
1080
2080
3f80
2080
1f80
0000
ENDCHAR
STARTCHAR K+3273
ENCODING 12915
SWIDTH 960 0
DWIDTH 10 0
BBX 10 10 0 -2
BITMAP
7f80
0880
0880
0880
0000
0000
7fc0
1100
1100
0000
ENDCHAR
STARTCHAR K+3274
ENCODING 12916
SWIDTH 960 0
DWIDTH 10 0
BBX 10 10 0 -2
BITMAP
7f80
0880
0880
0880
0880
1100
0000
0000
7fc0
0000
ENDCHAR
STARTCHAR K+3275
ENCODING 12917
SWIDTH 960 0
DWIDTH 10 0
BBX 10 10 0 -2
BITMAP
3f80
0480
0880
0000
7fc0
0000
3f80
0080
0080
0000
ENDCHAR
STARTCHAR K+3276
ENCODING 12918
SWIDTH 960 0
DWIDTH 10 0
BBX 10 10 0 -2
BITMAP
7f80
0880
0880
0880
0000
7fc0
2000
2000
1f80
0000
ENDCHAR
STARTCHAR K+3277
ENCODING 12919
SWIDTH 960 0
DWIDTH 10 0
BBX 10 10 0 -2
BITMAP
3f80
0480
0880
0000
7fc0
0000
2fc0
2480
1b00
0000
ENDCHAR
STARTCHAR K+3278
ENCODING 12920
SWIDTH 960 0
DWIDTH 10 0
BBX 10 10 0 -2
BITMAP
3f80
0480
0900
0000
7fc0
3f80
0080
3f00
1f80
0000
ENDCHAR
STARTCHAR K+3279
ENCODING 12921
SWIDTH 960 0
DWIDTH 10 0
BBX 10 10 0 -2
BITMAP
3f80
0480
0900
0000
7fc0
3b80
0a80
7280
3980
0000
ENDCHAR
STARTCHAR K+327A
ENCODING 12922
SWIDTH 960 0
DWIDTH 10 0
BBX 10 10 0 -2
BITMAP
3f80
0480
0900
0000
7fc0
3900
0fc0
7480
3b00
0000
ENDCHAR
STARTCHAR K+327B
ENCODING 12923
SWIDTH 960 0
DWIDTH 10 0
BBX 10 10 0 -2
BITMAP
3f80
0480
0880
0000
7fc0
0000
3f80
2080
1f80
0000
ENDCHAR
STARTCHAR K+327C
ENCODING 12924
SWIDTH 960 0
DWIDTH 10 0
BBX 10 10 0 -2
BITMAP
3f80
0480
0880
0000
7fc0
2080
3f80
2080
1f80
0000
ENDCHAR
STARTCHAR K+327D
ENCODING 12925
SWIDTH 960 0
DWIDTH 10 0
BBX 10 10 0 -2
BITMAP
3f80
0480
0880
0000
7fc0
0000
0400
0a00
3180
0000
ENDCHAR
STARTCHAR K+327E
ENCODING 12926
SWIDTH 960 0
DWIDTH 10 0
BBX 10 10 0 -2
BITMAP
3f80
0480
0880
0000
7fc0
0000
1f00
2080
1f00
0000
ENDCHAR
STARTCHAR K+3321
ENCODING 13089
SWIDTH 960 0
DWIDTH 10 0
BBX 10 10 0 -2
BITMAP
3f80
0480
0900
0000
7fc0
3f80
3f00
2000
1f80
0000
ENDCHAR
STARTCHAR K+3322
ENCODING 13090
SWIDTH 960 0
DWIDTH 10 0
BBX 10 10 0 -2
BITMAP
7e80
1280
1280
1280
1280
1280
2480
4880
0080
0000
ENDCHAR
STARTCHAR K+3323
ENCODING 13091
SWIDTH 960 0
DWIDTH 10 0
BBX 10 10 0 -2
BITMAP
7e80
1280
1280
2480
4880
0000
3f80
0080
0080
0000
ENDCHAR
STARTCHAR K+3324
ENCODING 13092
SWIDTH 960 0
DWIDTH 10 0
BBX 10 10 0 -2
BITMAP
7e80
1280
1280
1280
2480
4880
2000
2000
1f80
0000
ENDCHAR
STARTCHAR K+3325
ENCODING 13093
SWIDTH 960 0
DWIDTH 10 0
BBX 10 10 0 -2
BITMAP
7e80
1280
1280
2480
4880
3f80
0080
3f00
1f80
0000
ENDCHAR
STARTCHAR K+3326
ENCODING 13094
SWIDTH 960 0
DWIDTH 10 0
BBX 10 10 0 -2
BITMAP
7e80
1280
1280
2480
4880
0000
3f80
2080
1f80
0000
ENDCHAR
STARTCHAR K+3327
ENCODING 13095
SWIDTH 960 0
DWIDTH 10 0
BBX 10 10 0 -2
BITMAP
7e80
1280
1280
2480
4880
2080
3f80
2080
1f80
0000
ENDCHAR
STARTCHAR K+3328
ENCODING 13096
SWIDTH 960 0
DWIDTH 10 0
BBX 10 10 0 -2
BITMAP
7e80
1280
1280
2480
4880
0000
0400
0a00
3180
0000
ENDCHAR
STARTCHAR K+3329
ENCODING 13097
SWIDTH 960 0
DWIDTH 10 0
BBX 10 10 0 -2
BITMAP
7e80
1280
1280
2480
4880
0000
1f00
2080
1f00
0000
ENDCHAR
STARTCHAR K+332A
ENCODING 13098
SWIDTH 960 0
DWIDTH 10 0
BBX 10 10 0 -2
BITMAP
4080
4080
4080
4080
40c0
4080
4080
3e80
0080
0000
ENDCHAR
STARTCHAR K+332B
ENCODING 13099
SWIDTH 960 0
DWIDTH 10 0
BBX 10 10 0 -2
BITMAP
4080
4080
40c0
4080
3c80
0000
3f80
0080
0080
0000
ENDCHAR
STARTCHAR K+332C
ENCODING 13100
SWIDTH 960 0
DWIDTH 10 0
BBX 10 10 0 -2
BITMAP
4080
4080
40c0
4080
3c80
0000
3b80
0880
0880
0000
ENDCHAR
STARTCHAR K+332D
ENCODING 13101
SWIDTH 960 0
DWIDTH 10 0
BBX 10 10 0 -2
BITMAP
4080
4080
40c0
4080
3e80
0080
2000
2000
1f80
0000
ENDCHAR
STARTCHAR K+332E
ENCODING 13102
SWIDTH 960 0
DWIDTH 10 0
BBX 10 10 0 -2
BITMAP
4080
4080
40c0
4080
3c80
0000
3f80
2000
1f80
0000
ENDCHAR
STARTCHAR K+332F
ENCODING 13103
SWIDTH 960 0
DWIDTH 10 0
BBX 10 10 0 -2
BITMAP
4080
4080
40c0
3e80
0080
3f80
0080
3f00
1f80
0000
ENDCHAR
STARTCHAR K+3330
ENCODING 13104
SWIDTH 960 0
DWIDTH 10 0
BBX 10 10 0 -2
BITMAP
4080
4080
40c0
3e80
0080
3b80
0880
7080
3880
0000
ENDCHAR
STARTCHAR K+3331
ENCODING 13105
SWIDTH 960 0
DWIDTH 10 0
BBX 10 10 0 -2
BITMAP
4080
4080
40c0
3e80
0080
3b80
0a80
7280
3980
0000
ENDCHAR
STARTCHAR K+3332
ENCODING 13106
SWIDTH 960 0
DWIDTH 10 0
BBX 10 10 0 -2
BITMAP
4080
4080
40c0
4080
3c80
0000
3f80
2080
1f80
0000
ENDCHAR
STARTCHAR K+3333
ENCODING 13107
SWIDTH 960 0
DWIDTH 10 0
BBX 10 10 0 -2
BITMAP
4080
4080
40c0
4080
3c80
2080
3f80
2080
1f80
0000
ENDCHAR
STARTCHAR K+3334
ENCODING 13108
SWIDTH 960 0
DWIDTH 10 0
BBX 10 10 0 -2
BITMAP
4080
4080
40c0
4080
3c80
0000
0400
0a00
3180
0000
ENDCHAR
STARTCHAR K+3335
ENCODING 13109
SWIDTH 960 0
DWIDTH 10 0
BBX 10 10 0 -2
BITMAP
4080
4080
40c0
4080
3c80
0000
1100
2a80
4440
0000
ENDCHAR
STARTCHAR K+3336
ENCODING 13110
SWIDTH 960 0
DWIDTH 10 0
BBX 10 10 0 -2
BITMAP
4080
4080
40c0
4080
3c80
0000
1f00
2080
1f00
0000
ENDCHAR
STARTCHAR K+3337
ENCODING 13111
SWIDTH 960 0
DWIDTH 10 0
BBX 10 10 0 -2
BITMAP
4080
4080
40c0
4080
3c80
0000
3f80
0a00
3180
0000
ENDCHAR
STARTCHAR K+3338
ENCODING 13112
SWIDTH 960 0
DWIDTH 10 0
BBX 10 10 0 -2
BITMAP
4080
4080
40c0
3e80
0080
0400
3f80
0a00
3180
0000
ENDCHAR
STARTCHAR K+3339
ENCODING 13113
SWIDTH 960 0
DWIDTH 10 0
BBX 10 10 0 -2
BITMAP
4080
4080
40c0
3e80
0080
3f80
3f00
2000
1f80
0000
ENDCHAR
STARTCHAR K+333A
ENCODING 13114
SWIDTH 960 0
DWIDTH 10 0
BBX 10 10 0 -2
BITMAP
4080
4080
40c0
3e80
0080
0400
7fc0
2080
1f00
0000
ENDCHAR
STARTCHAR K+333B
ENCODING 13115
SWIDTH 960 0
DWIDTH 10 0
BBX 10 10 0 -2
BITMAP
4140
4140
4140
41c0
4140
4140
4140
3d40
0140
0000
ENDCHAR
STARTCHAR K+333C
ENCODING 13116
SWIDTH 960 0
DWIDTH 10 0
BBX 10 10 0 -2
BITMAP
4140
4140
41c0
3d40
0140
0000
1fc0
0040
0040
0000
ENDCHAR
STARTCHAR K+333D
ENCODING 13117
SWIDTH 960 0
DWIDTH 10 0
BBX 10 10 0 -2
BITMAP
4140
4140
41c0
4140
3d40
0140
1000
1000
0fc0
0000
ENDCHAR
STARTCHAR K+333E
ENCODING 13118
SWIDTH 960 0
DWIDTH 10 0
BBX 10 10 0 -2
BITMAP
4140
4140
41c0
3d40
0140
1fc0
0040
1f80
0fc0
0000
ENDCHAR
STARTCHAR K+333F
ENCODING 13119
SWIDTH 960 0
DWIDTH 10 0
BBX 10 10 0 -2
BITMAP
4140
4140
41c0
3d40
0140
0000
1fc0
1040
0fc0
0000
ENDCHAR
STARTCHAR K+3340
ENCODING 13120
SWIDTH 960 0
DWIDTH 10 0
BBX 10 10 0 -2
BITMAP
4140
4140
41c0
3d40
0140
1040
1fc0
1040
0fc0
0000
ENDCHAR
STARTCHAR K+3341
ENCODING 13121
SWIDTH 960 0
DWIDTH 10 0
BBX 10 10 0 -2
BITMAP
4140
4140
41c0
3d40
0140
0000
0200
0500
18c0
0000
ENDCHAR
STARTCHAR K+3342
ENCODING 13122
SWIDTH 960 0
DWIDTH 10 0
BBX 10 10 0 -2
BITMAP
4140
4140
41c0
3d40
0140
0000
1100
2a80
4440
0000
ENDCHAR
STARTCHAR K+3343
ENCODING 13123
SWIDTH 960 0
DWIDTH 10 0
BBX 10 10 0 -2
BITMAP
4140
4140
41c0
3d40
0140
0000
0f80
1040
0f80
0000
ENDCHAR
STARTCHAR K+3344
ENCODING 13124
SWIDTH 960 0
DWIDTH 10 0
BBX 10 10 0 -2
BITMAP
4080
4080
40c0
4080
4080
40c0
4080
3e80
0080
0000
ENDCHAR
STARTCHAR K+3345
ENCODING 13125
SWIDTH 960 0
DWIDTH 10 0
BBX 10 10 0 -2
BITMAP
4080
40c0
4080
40c0
3c80
0000
3f80
0080
0080
0000
ENDCHAR
STARTCHAR K+3346
ENCODING 13126
SWIDTH 960 0
DWIDTH 10 0
BBX 10 10 0 -2
BITMAP
4080
40c0
4080
40c0
3e80
0080
2000
2000
1f80
0000
ENDCHAR
STARTCHAR K+3347
ENCODING 13127
SWIDTH 960 0
DWIDTH 10 0
BBX 10 10 0 -2
BITMAP
4080
40c0
4080
3ec0
0080
3f80
0080
3f00
1f80
0000
ENDCHAR
STARTCHAR K+3348
ENCODING 13128
SWIDTH 960 0
DWIDTH 10 0
BBX 10 10 0 -2
BITMAP
4080
40c0
4080
40c0
3c80
0000
3f80
2080
1f80
0000
ENDCHAR
STARTCHAR K+3349
ENCODING 13129
SWIDTH 960 0
DWIDTH 10 0
BBX 10 10 0 -2
BITMAP
4080
40c0
4080
40c0
3c80
0000
1f00
2080
1f00
0000
ENDCHAR
STARTCHAR K+334A
ENCODING 13130
SWIDTH 960 0
DWIDTH 10 0
BBX 10 10 0 -2
BITMAP
4080
4080
4080
4380
4080
4080
4080
3e80
0080
0000
ENDCHAR
STARTCHAR K+334B
ENCODING 13131
SWIDTH 960 0
DWIDTH 10 0
BBX 10 10 0 -2
BITMAP
4080
4080
4380
4080
3c80
0000
3f80
0080
0080
0000
ENDCHAR
STARTCHAR K+334C
ENCODING 13132
SWIDTH 960 0
DWIDTH 10 0
BBX 10 10 0 -2
BITMAP
4080
4080
4380
4080
3c80
0000
3900
0a80
0440
0000
ENDCHAR
STARTCHAR K+334D
ENCODING 13133
SWIDTH 960 0
DWIDTH 10 0
BBX 10 10 0 -2
BITMAP
4080
4080
4380
4080
3e80
0080
2000
2000
1f80
0000
ENDCHAR
STARTCHAR K+334E
ENCODING 13134
SWIDTH 960 0
DWIDTH 10 0
BBX 10 10 0 -2
BITMAP
4080
4080
4380
3e80
0080
3f80
0080
3f00
1f80
0000
ENDCHAR
STARTCHAR K+334F
ENCODING 13135
SWIDTH 960 0
DWIDTH 10 0
BBX 10 10 0 -2
BITMAP
4080
4080
4380
3e80
0080
3b80
0a80
7280
3980
0000
ENDCHAR
STARTCHAR K+3350
ENCODING 13136
SWIDTH 960 0
DWIDTH 10 0
BBX 10 10 0 -2
BITMAP
4080
4080
4380
3e80
0080
3a80
0b80
7280
3980
0000
ENDCHAR
STARTCHAR K+3351
ENCODING 13137
SWIDTH 960 0
DWIDTH 10 0
BBX 10 10 0 -2
BITMAP
4080
4080
4380
4080
3c80
0000
3f80
2080
1f80
0000
ENDCHAR
STARTCHAR K+3352
ENCODING 13138
SWIDTH 960 0
DWIDTH 10 0
BBX 10 10 0 -2
BITMAP
4080
4080
4380
4080
3c80
2080
3f80
2080
1f80
0000
ENDCHAR
STARTCHAR K+3353
ENCODING 13139
SWIDTH 960 0
DWIDTH 10 0
BBX 10 10 0 -2
BITMAP
4080
4080
4380
4080
3c80
0000
0400
0a00
3180
0000
ENDCHAR
STARTCHAR K+3354
ENCODING 13140
SWIDTH 960 0
DWIDTH 10 0
BBX 10 10 0 -2
BITMAP
4080
4080
4380
4080
3c80
0000
1100
2a80
4440
0000
ENDCHAR
STARTCHAR K+3355
ENCODING 13141
SWIDTH 960 0
DWIDTH 10 0
BBX 10 10 0 -2
BITMAP
4080
4080
4380
4080
3c80
0000
1f00
2080
1f00
0000
ENDCHAR
STARTCHAR K+3356
ENCODING 13142
SWIDTH 960 0
DWIDTH 10 0
BBX 10 10 0 -2
BITMAP
4080
4080
4380
3e80
0080
0400
7fc0
1080
0f00
0000
ENDCHAR
STARTCHAR K+3357
ENCODING 13143
SWIDTH 960 0
DWIDTH 10 0
BBX 10 10 0 -2
BITMAP
4140
4140
4140
4340
4140
4140
4140
3d40
0140
0000
ENDCHAR
STARTCHAR K+3358
ENCODING 13144
SWIDTH 960 0
DWIDTH 10 0
BBX 10 10 0 -2
BITMAP
4140
4140
4340
3d40
0140
0000
1fc0
0040
0040
0000
ENDCHAR
STARTCHAR K+3359
ENCODING 13145
SWIDTH 960 0
DWIDTH 10 0
BBX 10 10 0 -2
BITMAP
4140
4140
4340
4140
3d40
0140
1000
1000
0fc0
0000
ENDCHAR
STARTCHAR K+335A
ENCODING 13146
SWIDTH 960 0
DWIDTH 10 0
BBX 10 10 0 -2
BITMAP
4140
4140
4340
3d40
0140
1fc0
0040
1f80
0fc0
0000
ENDCHAR
STARTCHAR K+335B
ENCODING 13147
SWIDTH 960 0
DWIDTH 10 0
BBX 10 10 0 -2
BITMAP
4140
4140
4340
3d40
0140
0000
1fc0
1040
0fc0
0000
ENDCHAR
STARTCHAR K+335C
ENCODING 13148
SWIDTH 960 0
DWIDTH 10 0
BBX 10 10 0 -2
BITMAP
4140
4140
4340
3d40
0140
1040
1fc0
1040
0fc0
0000
ENDCHAR
STARTCHAR K+335D
ENCODING 13149
SWIDTH 960 0
DWIDTH 10 0
BBX 10 10 0 -2
BITMAP
4140
4140
4340
3d40
0140
0000
0200
0500
18c0
0000
ENDCHAR
STARTCHAR K+335E
ENCODING 13150
SWIDTH 960 0
DWIDTH 10 0
BBX 10 10 0 -2
BITMAP
4140
4140
4340
3d40
0140
0000
1100
2a80
4440
0000
ENDCHAR
STARTCHAR K+335F
ENCODING 13151
SWIDTH 960 0
DWIDTH 10 0
BBX 10 10 0 -2
BITMAP
4140
4140
4340
3d40
0140
0000
0f80
1040
0f80
0000
ENDCHAR
STARTCHAR K+3360
ENCODING 13152
SWIDTH 960 0
DWIDTH 10 0
BBX 10 10 0 -2
BITMAP
4080
4080
4380
4080
4080
4380
4080
3e80
0080
0000
ENDCHAR
STARTCHAR K+3361
ENCODING 13153
SWIDTH 960 0
DWIDTH 10 0
BBX 10 10 0 -2
BITMAP
4080
4380
4080
4380
3c80
0000
3f80
0080
0080
0000
ENDCHAR
STARTCHAR K+3362
ENCODING 13154
SWIDTH 960 0
DWIDTH 10 0
BBX 10 10 0 -2
BITMAP
4080
4380
4080
4380
3e80
0080
2000
2000
1f80
0000
ENDCHAR
STARTCHAR K+3363
ENCODING 13155
SWIDTH 960 0
DWIDTH 10 0
BBX 10 10 0 -2
BITMAP
4080
4380
4080
3f80
0080
3f80
0080
3f00
1f80
0000
ENDCHAR
STARTCHAR K+3364
ENCODING 13156
SWIDTH 960 0
DWIDTH 10 0
BBX 10 10 0 -2
BITMAP
4080
4380
4080
4380
3c80
0000
3f80
2080
1f80
0000
ENDCHAR
STARTCHAR K+3365
ENCODING 13157
SWIDTH 960 0
DWIDTH 10 0
BBX 10 10 0 -2
BITMAP
4080
4380
4080
4380
3c80
2080
3f80
2080
1f80
0000
ENDCHAR
STARTCHAR K+3366
ENCODING 13158
SWIDTH 960 0
DWIDTH 10 0
BBX 10 10 0 -2
BITMAP
4080
4380
4080
4380
3c80
0000
1100
2a80
4440
0000
ENDCHAR
STARTCHAR K+3367
ENCODING 13159
SWIDTH 960 0
DWIDTH 10 0
BBX 10 10 0 -2
BITMAP
4080
4380
4080
4380
3c80
0000
1f00
2080
1f00
0000
ENDCHAR
STARTCHAR K+3368
ENCODING 13160
SWIDTH 960 0
DWIDTH 10 0
BBX 10 10 0 -2
BITMAP
4080
4380
4080
4380
3c80
3f80
0080
3f80
0080
0000
ENDCHAR
STARTCHAR K+3369
ENCODING 13161
SWIDTH 960 0
DWIDTH 10 0
BBX 10 10 0 -2
BITMAP
4140
4140
4340
4140
4140
4340
4140
3d40
0140
0000
ENDCHAR
STARTCHAR K+336A
ENCODING 13162
SWIDTH 960 0
DWIDTH 10 0
BBX 10 10 0 -2
BITMAP
4140
4340
4140
4340
3d40
0140
1000
1000
0fc0
0000
ENDCHAR
STARTCHAR K+336B
ENCODING 13163
SWIDTH 960 0
DWIDTH 10 0
BBX 10 10 0 -2
BITMAP
2000
2000
2000
2000
1f80
0000
0400
0400
7fc0
0000
ENDCHAR
STARTCHAR K+336C
ENCODING 13164
SWIDTH 960 0
DWIDTH 10 0
BBX 10 10 0 -2
BITMAP
2000
2000
1f80
0400
7fc0
0000
3f80
0080
0080
0000
ENDCHAR
STARTCHAR K+336D
ENCODING 13165
SWIDTH 960 0
DWIDTH 10 0
BBX 10 10 0 -2
BITMAP
2000
2000
2000
1f80
0400
7fc0
2000
2000
1f80
0000
ENDCHAR
STARTCHAR K+336E
ENCODING 13166
SWIDTH 960 0
DWIDTH 10 0
BBX 10 10 0 -2
BITMAP
2000
2000
1f80
0400
7fc0
3f80
0080
3f00
1f80
0000
ENDCHAR
STARTCHAR K+336F
ENCODING 13167
SWIDTH 960 0
DWIDTH 10 0
BBX 10 10 0 -2
BITMAP
2000
2000
1f80
0400
7fc0
3b80
0a80
7280
3980
0000
ENDCHAR
STARTCHAR K+3370
ENCODING 13168
SWIDTH 960 0
DWIDTH 10 0
BBX 10 10 0 -2
BITMAP
2000
2000
1f80
0400
7fc0
0000
3f80
2080
1f80
0000
ENDCHAR
STARTCHAR K+3371
ENCODING 13169
SWIDTH 960 0
DWIDTH 10 0
BBX 10 10 0 -2
BITMAP
2000
2000
1f80
0400
7fc0
2080
3f80
2080
1f80
0000
ENDCHAR
STARTCHAR K+3372
ENCODING 13170
SWIDTH 960 0
DWIDTH 10 0
BBX 10 10 0 -2
BITMAP
2000
2000
1f80
0400
7fc0
0000
0400
0a00
3180
0000
ENDCHAR
STARTCHAR K+3373
ENCODING 13171
SWIDTH 960 0
DWIDTH 10 0
BBX 10 10 0 -2
BITMAP
2000
2000
1f80
0400
7fc0
0000
1f00
2080
1f00
0000
ENDCHAR
STARTCHAR K+3374
ENCODING 13172
SWIDTH 960 0
DWIDTH 10 0
BBX 10 10 0 -2
BITMAP
2000
2000
1f80
0400
7fc0
0000
3f80
1100
3f80
0000
ENDCHAR
STARTCHAR K+3375
ENCODING 13173
SWIDTH 960 0
DWIDTH 10 0
BBX 10 10 0 -2
BITMAP
2000
2000
1f80
0400
7fc0
0400
7fc0
2080
1f00
0000
ENDCHAR
STARTCHAR K+3376
ENCODING 13174
SWIDTH 960 0
DWIDTH 10 0
BBX 10 10 0 -2
BITMAP
4080
4080
4080
4080
3cc0
1080
1080
7f80
0080
0000
ENDCHAR
STARTCHAR K+3377
ENCODING 13175
SWIDTH 960 0
DWIDTH 10 0
BBX 10 10 0 -2
BITMAP
4080
4080
40c0
3c80
1080
7f80
2080
2000
1f80
0000
ENDCHAR
STARTCHAR K+3378
ENCODING 13176
SWIDTH 960 0
DWIDTH 10 0
BBX 10 10 0 -2
BITMAP
4080
4080
3cc0
1080
7f80
3f80
0080
3f00
1f80
0000
ENDCHAR
STARTCHAR K+3379
ENCODING 13177
SWIDTH 960 0
DWIDTH 10 0
BBX 10 10 0 -2
BITMAP
4080
4080
3cc0
1080
7f80
0000
1100
2a80
4440
0000
ENDCHAR
STARTCHAR K+337A
ENCODING 13178
SWIDTH 960 0
DWIDTH 10 0
BBX 10 10 0 -2
BITMAP
4080
4080
4080
4080
3c80
1080
1080
7f80
0080
0000
ENDCHAR
STARTCHAR K+337B
ENCODING 13179
SWIDTH 960 0
DWIDTH 10 0
BBX 10 10 0 -2
BITMAP
4080
4080
4080
3c80
1080
7f80
2080
2000
1f80
0000
ENDCHAR
STARTCHAR K+337C
ENCODING 13180
SWIDTH 960 0
DWIDTH 10 0
BBX 10 10 0 -2
BITMAP
4080
4080
3c80
1080
7f80
3f80
0080
3f00
1f80
0000
ENDCHAR
STARTCHAR K+337D
ENCODING 13181
SWIDTH 960 0
DWIDTH 10 0
BBX 10 10 0 -2
BITMAP
4080
4080
3c80
1080
7f80
0000
3f80
2080
1f80
0000
ENDCHAR
STARTCHAR K+337E
ENCODING 13182
SWIDTH 960 0
DWIDTH 10 0
BBX 10 10 0 -2
BITMAP
4080
4080
3c80
1080
7f80
2080
3f80
2080
1f80
0000
ENDCHAR
STARTCHAR K+3421
ENCODING 13345
SWIDTH 960 0
DWIDTH 10 0
BBX 10 10 0 -2
BITMAP
4080
4080
3c80
1080
7f80
0000
0400
0a00
3180
0000
ENDCHAR
STARTCHAR K+3422
ENCODING 13346
SWIDTH 960 0
DWIDTH 10 0
BBX 10 10 0 -2
BITMAP
2000
2000
2000
2000
1f80
0000
1100
1100
7fc0
0000
ENDCHAR
STARTCHAR K+3423
ENCODING 13347
SWIDTH 960 0
DWIDTH 10 0
BBX 10 10 0 -2
BITMAP
2000
2000
1f80
1100
7fc0
0000
3f80
0080
0080
0000
ENDCHAR
STARTCHAR K+3424
ENCODING 13348
SWIDTH 960 0
DWIDTH 10 0
BBX 10 10 0 -2
BITMAP
2000
2000
2000
1f80
1100
7fc0
2000
2000
1f80
0000
ENDCHAR
STARTCHAR K+3425
ENCODING 13349
SWIDTH 960 0
DWIDTH 10 0
BBX 10 10 0 -2
BITMAP
2000
2000
1f80
1100
7fc0
3f80
0080
3f00
1f80
0000
ENDCHAR
STARTCHAR K+3426
ENCODING 13350
SWIDTH 960 0
DWIDTH 10 0
BBX 10 10 0 -2
BITMAP
2000
2000
1f80
1100
7fc0
2080
3f80
2080
1f80
0000
ENDCHAR
STARTCHAR K+3427
ENCODING 13351
SWIDTH 960 0
DWIDTH 10 0
BBX 10 10 0 -2
BITMAP
2000
2000
1f80
1100
7fc0
0000
0400
0a00
3180
0000
ENDCHAR
STARTCHAR K+3428
ENCODING 13352
SWIDTH 960 0
DWIDTH 10 0
BBX 10 10 0 -2
BITMAP
2000
2000
1f80
1100
7fc0
0000
1f00
2080
1f00
0000
ENDCHAR
STARTCHAR K+3429
ENCODING 13353
SWIDTH 960 0
DWIDTH 10 0
BBX 10 10 0 -2
BITMAP
2000
2000
2000
1f80
0000
7fc0
0400
0400
0400
0000
ENDCHAR
STARTCHAR K+342A
ENCODING 13354
SWIDTH 960 0
DWIDTH 10 0
BBX 10 10 0 -2
BITMAP
2000
2000
1f80
0000
7fc0
0400
3f80
0080
0080
0000
ENDCHAR
STARTCHAR K+342B
ENCODING 13355
SWIDTH 960 0
DWIDTH 10 0
BBX 10 10 0 -2
BITMAP
2000
2000
2000
1f80
0000
7fc0
2400
2000
1f80
0000
ENDCHAR
STARTCHAR K+342C
ENCODING 13356
SWIDTH 960 0
DWIDTH 10 0
BBX 10 10 0 -2
BITMAP
2000
2000
1f80
0000
7fc0
0400
3f80
2000
1f80
0000
ENDCHAR
STARTCHAR K+342D
ENCODING 13357
SWIDTH 960 0
DWIDTH 10 0
BBX 10 10 0 -2
BITMAP
2000
3f80
0000
7fc0
0400
3f80
0080
3f00
1f80
0000
ENDCHAR
STARTCHAR K+342E
ENCODING 13358
SWIDTH 960 0
DWIDTH 10 0
BBX 10 10 0 -2
BITMAP
2000
2000
1f80
0000
7fc0
0400
3f80
2080
1f80
0000
ENDCHAR
STARTCHAR K+342F
ENCODING 13359
SWIDTH 960 0
DWIDTH 10 0
BBX 10 10 0 -2
BITMAP
2000
2000
1f80
0000
7fc0
2480
3f80
2080
1f80
0000
ENDCHAR
STARTCHAR K+3430
ENCODING 13360
SWIDTH 960 0
DWIDTH 10 0
BBX 10 10 0 -2
BITMAP
2000
2000
1f80
0000
7fc0
0400
0400
0a00
3180
0000
ENDCHAR
STARTCHAR K+3431
ENCODING 13361
SWIDTH 960 0
DWIDTH 10 0
BBX 10 10 0 -2
BITMAP
2000
2000
1f80
0000
7fc0
0400
1f00
2080
1f00
0000
ENDCHAR
STARTCHAR K+3432
ENCODING 13362
SWIDTH 960 0
DWIDTH 10 0
BBX 10 10 0 -2
BITMAP
4080
4080
4080
3c80
0080
7f80
1080
1180
1080
0000
ENDCHAR
STARTCHAR K+3433
ENCODING 13363
SWIDTH 960 0
DWIDTH 10 0
BBX 10 10 0 -2
BITMAP
4080
7d80
0080
7f80
1080
0000
1100
2a80
4440
0000
ENDCHAR
STARTCHAR K+3434
ENCODING 13364
SWIDTH 960 0
DWIDTH 10 0
BBX 10 10 0 -2
BITMAP
4140
4140
4140
3d40
0140
7f40
1140
1740
1140
0000
ENDCHAR
STARTCHAR K+3435
ENCODING 13365
SWIDTH 960 0
DWIDTH 10 0
BBX 10 10 0 -2
BITMAP
4080
4080
4080
3c80
0080
7f80
1080
1080
1080
0000
ENDCHAR
STARTCHAR K+3436
ENCODING 13366
SWIDTH 960 0
DWIDTH 10 0
BBX 10 10 0 -2
BITMAP
4080
4080
3c80
0080
7f80
0880
2080
2000
1f80
0000
ENDCHAR
STARTCHAR K+3437
ENCODING 13367
SWIDTH 960 0
DWIDTH 10 0
BBX 10 10 0 -2
BITMAP
4080
4080
3c80
7f80
1080
3f80
0080
3f00
1f80
0000
ENDCHAR
STARTCHAR K+3438
ENCODING 13368
SWIDTH 960 0
DWIDTH 10 0
BBX 10 10 0 -2
BITMAP
4080
7c80
0080
7f80
1080
0000
3f80
2080
1f80
0000
ENDCHAR
STARTCHAR K+3439
ENCODING 13369
SWIDTH 960 0
DWIDTH 10 0
BBX 10 10 0 -2
BITMAP
4080
7c80
0080
7f80
1080
2080
3f80
2080
1f80
0000
ENDCHAR
STARTCHAR K+343A
ENCODING 13370
SWIDTH 960 0
DWIDTH 10 0
BBX 10 10 0 -2
BITMAP
2000
2000
2000
1f80
0000
0000
7fc0
1100
1100
0000
ENDCHAR
STARTCHAR K+343B
ENCODING 13371
SWIDTH 960 0
DWIDTH 10 0
BBX 10 10 0 -2
BITMAP
2000
2000
1f80
0000
7fc0
1100
3f80
0080
0080
0000
ENDCHAR
STARTCHAR K+343C
ENCODING 13372
SWIDTH 960 0
DWIDTH 10 0
BBX 10 10 0 -2
BITMAP
2000
3f80
0000
7fc0
1100
3f80
0080
3f00
1f80
0000
ENDCHAR
STARTCHAR K+343D
ENCODING 13373
SWIDTH 960 0
DWIDTH 10 0
BBX 10 10 0 -2
BITMAP
2000
2000
1f80
0000
7fc0
1100
3f80
2080
1f80
0000
ENDCHAR
STARTCHAR K+343E
ENCODING 13374
SWIDTH 960 0
DWIDTH 10 0
BBX 10 10 0 -2
BITMAP
2000
2000
1f80
0000
7fc0
3180
3f80
2080
1f80
0000
ENDCHAR
STARTCHAR K+343F
ENCODING 13375
SWIDTH 960 0
DWIDTH 10 0
BBX 10 10 0 -2
BITMAP
2000
2000
1f80
0000
7fc0
1100
1f00
2080
1f00
0000
ENDCHAR
STARTCHAR K+3440
ENCODING 13376
SWIDTH 960 0
DWIDTH 10 0
BBX 10 10 0 -2
BITMAP
2000
2000
2000
2000
1f80
0000
0000
0000
7fc0
0000
ENDCHAR
STARTCHAR K+3441
ENCODING 13377
SWIDTH 960 0
DWIDTH 10 0
BBX 10 10 0 -2
BITMAP
2000
2000
1f80
0000
7fc0
0000
3f80
0080
0080
0000
ENDCHAR
STARTCHAR K+3442
ENCODING 13378
SWIDTH 960 0
DWIDTH 10 0
BBX 10 10 0 -2
BITMAP
2000
2000
2000
1f80
0000
7fc0
2000
2000
1f80
0000
ENDCHAR
STARTCHAR K+3443
ENCODING 13379
SWIDTH 960 0
DWIDTH 10 0
BBX 10 10 0 -2
BITMAP
2000
3f80
0000
0000
7fc0
3f80
0080
3f00
1f80
0000
ENDCHAR
STARTCHAR K+3444
ENCODING 13380
SWIDTH 960 0
DWIDTH 10 0
BBX 10 10 0 -2
BITMAP
2000
3f80
0000
0000
7fc0
3b80
0880
7080
3880
0000
ENDCHAR
STARTCHAR K+3445
ENCODING 13381
SWIDTH 960 0
DWIDTH 10 0
BBX 10 10 0 -2
BITMAP
2000
3f80
0000
0000
7fc0
3b80
0a80
7280
3980
0000
ENDCHAR
STARTCHAR K+3446
ENCODING 13382
SWIDTH 960 0
DWIDTH 10 0
BBX 10 10 0 -2
BITMAP
2000
2000
1f80
0000
7fc0
0000
3f80
2080
1f80
0000
ENDCHAR
STARTCHAR K+3447
ENCODING 13383
SWIDTH 960 0
DWIDTH 10 0
BBX 10 10 0 -2
BITMAP
2000
2000
1f80
0000
7fc0
2080
3f80
2080
1f80
0000
ENDCHAR
STARTCHAR K+3448
ENCODING 13384
SWIDTH 960 0
DWIDTH 10 0
BBX 10 10 0 -2
BITMAP
2000
2000
1f80
0000
7fc0
0000
0400
0a00
3180
0000
ENDCHAR
STARTCHAR K+3449
ENCODING 13385
SWIDTH 960 0
DWIDTH 10 0
BBX 10 10 0 -2
BITMAP
2000
2000
1f80
0000
7fc0
0000
1f00
2080
1f00
0000
ENDCHAR
STARTCHAR K+344A
ENCODING 13386
SWIDTH 960 0
DWIDTH 10 0
BBX 10 10 0 -2
BITMAP
2000
2000
1f80
0000
7fc0
0000
3f80
0a00
3180
0000
ENDCHAR
STARTCHAR K+344B
ENCODING 13387
SWIDTH 960 0
DWIDTH 10 0
BBX 10 10 0 -2
BITMAP
2000
2000
1f80
0000
7fc0
0000
3f80
1100
3f80
0000
ENDCHAR
STARTCHAR K+344C
ENCODING 13388
SWIDTH 960 0
DWIDTH 10 0
BBX 10 10 0 -2
BITMAP
4080
4080
4080
4080
3c80
0080
0080
7f80
0080
0000
ENDCHAR
STARTCHAR K+344D
ENCODING 13389
SWIDTH 960 0
DWIDTH 10 0
BBX 10 10 0 -2
BITMAP
4080
4080
4080
3c80
0080
7f80
2080
2000
1f80
0000
ENDCHAR
STARTCHAR K+344E
ENCODING 13390
SWIDTH 960 0
DWIDTH 10 0
BBX 10 10 0 -2
BITMAP
4080
4080
3c80
7f80
0000
3f80
0080
3f00
1f80
0000
ENDCHAR
STARTCHAR K+344F
ENCODING 13391
SWIDTH 960 0
DWIDTH 10 0
BBX 10 10 0 -2
BITMAP
4080
4080
4080
4080
4080
4080
4080
3e80
0080
0000
ENDCHAR
STARTCHAR K+3450
ENCODING 13392
SWIDTH 960 0
DWIDTH 10 0
BBX 10 10 0 -2
BITMAP
4080
4080
4080
4080
3c80
0000
3f80
0080
0080
0000
ENDCHAR
STARTCHAR K+3451
ENCODING 13393
SWIDTH 960 0
DWIDTH 10 0
BBX 10 10 0 -2
BITMAP
4080
4080
4080
4080
3e80
0080
2000
2000
1f80
0000
ENDCHAR
STARTCHAR K+3452
ENCODING 13394
SWIDTH 960 0
DWIDTH 10 0
BBX 10 10 0 -2
BITMAP
4080
4080
4080
3e80
0080
3f80
0080
3f00
1f80
0000
ENDCHAR
STARTCHAR K+3453
ENCODING 13395
SWIDTH 960 0
DWIDTH 10 0
BBX 10 10 0 -2
BITMAP
4080
4080
4080
3e80
0080
3b80
0a80
7280
3980
0000
ENDCHAR
STARTCHAR K+3454
ENCODING 13396
SWIDTH 960 0
DWIDTH 10 0
BBX 10 10 0 -2
BITMAP
4080
4080
4080
4080
3c80
0000
3f80
2080
1f80
0000
ENDCHAR
STARTCHAR K+3455
ENCODING 13397
SWIDTH 960 0
DWIDTH 10 0
BBX 10 10 0 -2
BITMAP
4080
4080
4080
4080
3c80
2080
3f80
2080
1f80
0000
ENDCHAR
STARTCHAR K+3456
ENCODING 13398
SWIDTH 960 0
DWIDTH 10 0
BBX 10 10 0 -2
BITMAP
4080
4080
4080
4080
3c80
0000
0400
0a00
3180
0000
ENDCHAR
STARTCHAR K+3457
ENCODING 13399
SWIDTH 960 0
DWIDTH 10 0
BBX 10 10 0 -2
BITMAP
4080
4080
4080
4080
3c80
0000
1f00
2080
1f00
0000
ENDCHAR
STARTCHAR K+3458
ENCODING 13400
SWIDTH 960 0
DWIDTH 10 0
BBX 10 10 0 -2
BITMAP
4080
4080
4080
4080
3c80
0000
3f80
1100
3f80
0000
ENDCHAR
STARTCHAR K+3459
ENCODING 13401
SWIDTH 960 0
DWIDTH 10 0
BBX 10 10 0 -2
BITMAP
7c80
4080
4080
4080
40c0
4080
4080
3e80
0080
0000
ENDCHAR
STARTCHAR K+345A
ENCODING 13402
SWIDTH 960 0
DWIDTH 10 0
BBX 10 10 0 -2
BITMAP
7c80
4080
40c0
4080
3e80
0000
3f80
0080
0080
0000
ENDCHAR
STARTCHAR K+345B
ENCODING 13403
SWIDTH 960 0
DWIDTH 10 0
BBX 10 10 0 -2
BITMAP
7c80
4080
40c0
4080
3e80
0000
3b80
0880
0880
0000
ENDCHAR
STARTCHAR K+345C
ENCODING 13404
SWIDTH 960 0
DWIDTH 10 0
BBX 10 10 0 -2
BITMAP
7c80
4080
40c0
4080
3e80
0080
2000
2000
1f80
0000
ENDCHAR
STARTCHAR K+345D
ENCODING 13405
SWIDTH 960 0
DWIDTH 10 0
BBX 10 10 0 -2
BITMAP
7c80
4080
40c0
4080
3e80
0000
3f80
2000
1f80
0000
ENDCHAR
STARTCHAR K+345E
ENCODING 13406
SWIDTH 960 0
DWIDTH 10 0
BBX 10 10 0 -2
BITMAP
7c80
4080
40c0
3e80
0080
3f80
0080
3f00
1f80
0000
ENDCHAR
STARTCHAR K+345F
ENCODING 13407
SWIDTH 960 0
DWIDTH 10 0
BBX 10 10 0 -2
BITMAP
7c80
4080
40c0
3e80
0080
3b80
0880
7080
3880
0000
ENDCHAR
STARTCHAR K+3460
ENCODING 13408
SWIDTH 960 0
DWIDTH 10 0
BBX 10 10 0 -2
BITMAP
7c80
4080
40c0
3e80
0080
3b80
0a80
7280
3980
0000
ENDCHAR
STARTCHAR K+3461
ENCODING 13409
SWIDTH 960 0
DWIDTH 10 0
BBX 10 10 0 -2
BITMAP
7c80
4080
40c0
3e80
0080
3a80
0b80
7280
3980
0000
ENDCHAR
STARTCHAR K+3462
ENCODING 13410
SWIDTH 960 0
DWIDTH 10 0
BBX 10 10 0 -2
BITMAP
7c80
4080
40c0
3e80
0080
3900
0fc0
7480
3b00
0000
ENDCHAR
STARTCHAR K+3463
ENCODING 13411
SWIDTH 960 0
DWIDTH 10 0
BBX 10 10 0 -2
BITMAP
7c80
4080
40c0
4080
3e80
0000
3f80
2080
1f80
0000
ENDCHAR
STARTCHAR K+3464
ENCODING 13412
SWIDTH 960 0
DWIDTH 10 0
BBX 10 10 0 -2
BITMAP
7c80
4080
40c0
4080
3e80
2080
3f80
2080
1f80
0000
ENDCHAR
STARTCHAR K+3465
ENCODING 13413
SWIDTH 960 0
DWIDTH 10 0
BBX 10 10 0 -2
BITMAP
7c80
4080
40c0
4080
3e80
0000
0400
0a00
3180
0000
ENDCHAR
STARTCHAR K+3466
ENCODING 13414
SWIDTH 960 0
DWIDTH 10 0
BBX 10 10 0 -2
BITMAP
7c80
4080
40c0
4080
3e80
0000
1100
2a80
4440
0000
ENDCHAR
STARTCHAR K+3467
ENCODING 13415
SWIDTH 960 0
DWIDTH 10 0
BBX 10 10 0 -2
BITMAP
7c80
4080
40c0
4080
3e80
0000
1f00
2080
1f00
0000
ENDCHAR
STARTCHAR K+3468
ENCODING 13416
SWIDTH 960 0
DWIDTH 10 0
BBX 10 10 0 -2
BITMAP
7c80
4080
40c0
4080
3e80
0000
3f80
0a00
3180
0000
ENDCHAR
STARTCHAR K+3469
ENCODING 13417
SWIDTH 960 0
DWIDTH 10 0
BBX 10 10 0 -2
BITMAP
7c80
4080
40c0
3e80
0080
0400
3f80
0a00
3180
0000
ENDCHAR
STARTCHAR K+346A
ENCODING 13418
SWIDTH 960 0
DWIDTH 10 0
BBX 10 10 0 -2
BITMAP
7c80
4080
40c0
3e80
0080
0400
7fc0
2080
1f00
0000
ENDCHAR
STARTCHAR K+346B
ENCODING 13419
SWIDTH 960 0
DWIDTH 10 0
BBX 10 10 0 -2
BITMAP
7940
4140
4140
41c0
4140
4140
4140
3d40
0140
0000
ENDCHAR
STARTCHAR K+346C
ENCODING 13420
SWIDTH 960 0
DWIDTH 10 0
BBX 10 10 0 -2
BITMAP
7940
4140
41c0
3d40
0140
0000
1fc0
0040
0040
0000
ENDCHAR
STARTCHAR K+346D
ENCODING 13421
SWIDTH 960 0
DWIDTH 10 0
BBX 10 10 0 -2
BITMAP
7940
4140
41c0
4140
3d40
0140
1000
1000
0fc0
0000
ENDCHAR
STARTCHAR K+346E
ENCODING 13422
SWIDTH 960 0
DWIDTH 10 0
BBX 10 10 0 -2
BITMAP
7d40
4140
41c0
3d40
0140
1fc0
0040
1f80
0fc0
0000
ENDCHAR
STARTCHAR K+346F
ENCODING 13423
SWIDTH 960 0
DWIDTH 10 0
BBX 10 10 0 -2
BITMAP
7940
4140
41c0
3d40
0140
0000
1fc0
1040
0fc0
0000
ENDCHAR
STARTCHAR K+3470
ENCODING 13424
SWIDTH 960 0
DWIDTH 10 0
BBX 10 10 0 -2
BITMAP
7940
4140
41c0
3d40
0140
1040
1fc0
1040
0fc0
0000
ENDCHAR
STARTCHAR K+3471
ENCODING 13425
SWIDTH 960 0
DWIDTH 10 0
BBX 10 10 0 -2
BITMAP
7940
4140
41c0
3d40
0140
0000
0200
0500
18c0
0000
ENDCHAR
STARTCHAR K+3472
ENCODING 13426
SWIDTH 960 0
DWIDTH 10 0
BBX 10 10 0 -2
BITMAP
7940
4140
41c0
3d40
0140
0000
1100
2a80
4440
0000
ENDCHAR
STARTCHAR K+3473
ENCODING 13427
SWIDTH 960 0
DWIDTH 10 0
BBX 10 10 0 -2
BITMAP
7940
4140
41c0
3d40
0140
0000
0f80
1040
0f80
0000
ENDCHAR
STARTCHAR K+3474
ENCODING 13428
SWIDTH 960 0
DWIDTH 10 0
BBX 10 10 0 -2
BITMAP
7c80
4080
40c0
4080
4080
40c0
4080
3e80
0080
0000
ENDCHAR
STARTCHAR K+3475
ENCODING 13429
SWIDTH 960 0
DWIDTH 10 0
BBX 10 10 0 -2
BITMAP
7c80
4080
4080
4380
4080
4080
4080
3e80
0080
0000
ENDCHAR
STARTCHAR K+3476
ENCODING 13430
SWIDTH 960 0
DWIDTH 10 0
BBX 10 10 0 -2
BITMAP
7c80
4080
4380
4080
3e80
0000
3f80
0080
0080
0000
ENDCHAR
STARTCHAR K+3477
ENCODING 13431
SWIDTH 960 0
DWIDTH 10 0
BBX 10 10 0 -2
BITMAP
7c80
4080
4380
4080
3e80
0000
3b80
0880
0880
0000
ENDCHAR
STARTCHAR K+3478
ENCODING 13432
SWIDTH 960 0
DWIDTH 10 0
BBX 10 10 0 -2
BITMAP
7c80
4080
4380
4080
3e80
0080
2000
2000
1f80
0000
ENDCHAR
STARTCHAR K+3479
ENCODING 13433
SWIDTH 960 0
DWIDTH 10 0
BBX 10 10 0 -2
BITMAP
7c80
4080
4380
4080
3e80
0000
3f80
2000
1f80
0000
ENDCHAR
STARTCHAR K+347A
ENCODING 13434
SWIDTH 960 0
DWIDTH 10 0
BBX 10 10 0 -2
BITMAP
7c80
4080
4380
3e80
0080
3f80
0080
3f00
1f80
0000
ENDCHAR
STARTCHAR K+347B
ENCODING 13435
SWIDTH 960 0
DWIDTH 10 0
BBX 10 10 0 -2
BITMAP
7c80
4080
4380
3e80
0080
3b80
0a80
7280
3980
0000
ENDCHAR
STARTCHAR K+347C
ENCODING 13436
SWIDTH 960 0
DWIDTH 10 0
BBX 10 10 0 -2
BITMAP
7c80
4080
4380
3e80
0080
3a80
0b80
7280
3980
0000
ENDCHAR
STARTCHAR K+347D
ENCODING 13437
SWIDTH 960 0
DWIDTH 10 0
BBX 10 10 0 -2
BITMAP
7c80
4080
4380
4080
3e80
0000
3f80
2080
1f80
0000
ENDCHAR
ENDFONT
